<svg xmlns="http://www.w3.org/2000/svg"  viewBox="0 0 280 280" class="logo_crax--1K9QqdOLL5Srb0i1vM3S8l">
	
	<defs>
		<style>.cls-1{fill:#2AB587;}</style>
	</defs>

	<path id="CREX24" class="cls-1" d="M237.882 39.787l-.263-.215a2.2162 2.2162 0 0 1-.1-.085c-8.112-6.487-18.395-9.645-31.819-7.58-24.046 3.7-24.354 19.113-24.354 19.113s-.206 1.13-7.707 8.323-10.481 19.729-10.481 19.729 11.714-.863 24.045-1.541 17.634 7.09 19.73 10.481 0 12.947 0 12.947a4.576 4.576 0 0 1 2.774-.616c1.172.308 0 2.774-1.849 5.857s-2.607 5.677-9.557 11.1a116.072 116.072 0 0 0-10.652 9.565 72.977 72.977 0 0 0-9.694 9.548s11.715-2.158 7.4 4.932-31.541 17.916-53.64-4.316c-26.345-26.5-31.629-53.581-30.827-83.85C102.039 9.839 126.786.155 126.786.155s-9.372-.433-22.2 10.481C99.3 15.136 80.024 36.107 89.4 87.85c-3.89-3.646-7.9-8.7-11.321-22.341C68.745 28.3 80.456 9.714 80.456 9.714S52.2 38.042 62.973 71.982a186.577 186.577 0 0 0 16.647 36.685S57.195 87.738 52.184 69.516C47.349 51.938 49.2 32.592 49.2 32.592s-30.565 42.548-1.024 85.632a179.405 179.405 0 0 0 24.97 28.976c-2.8-1.387-18.8-7.108-36.068-26.511-17.251-19.38-19.729-49.323-19.729-49.323s-12.244 38.6.925 59.188c14.656 22.911 44.414 40.033 47.515 41.776-2.817-1.564-27.513-15.038-42.274-15.264-15.67-.24-23.429-25.279-23.429-25.279s2.225 33 19.113 53.64 29.05 27.806 42.85 26.512 28.388 4.84 28.388 4.84-17.726-2.9-29.656-.067C49.6 219.363 26.808 213.8 24 213.093q-3.276-1.269-6.368-2.684a141.822 141.822 0 0 0 263.911-72.148c-.004-41.308-16.579-76.516-43.661-98.474z">		
	</path>
</svg>