<?xml version="1.0" encoding="utf-8"?>
<!-- Generator: Adobe Illustrator 21.1.0, SVG Export Plug-In . SVG Version: 6.00 Build 0)  -->
<svg version="1.1" baseProfile="tiny" id="Layer_1" xmlns="http://www.w3.org/2000/svg" xmlns:xlink="http://www.w3.org/1999/xlink"
	 x="0px" y="0px" viewBox="0 0 256 256" xml:space="preserve">
<g>
	<path fill="#FFFFFF" d="M226.8522949,107.9169922h-15.0622559V47.6679077c0-1.9955444-1.1767578-3.7998657-3.010498-4.5990601
		l-45.5817871-19.9420166c-0.0057983-0.0025635-0.0109863-0.0060425-0.0168457-0.008606L128.4474487,7.923584
		c-1.2747803-0.55896-2.7457275-0.55896-4.0205078,0L89.6935425,23.1182251
		c-0.0057983,0.0025024-0.0109863,0.0059814-0.0167236,0.0085449L44.0949097,43.0688477
		c-1.8288574,0.7991943-3.010498,2.6035156-3.010498,4.5990601v60.2490845H26.0221558
		c-2.7751465,0-5.020752,2.2456055-5.020752,5.020752v40.1660156c0,1.9024048,1.0737305,3.6380615,2.7751465,4.4912109
		l17.3078613,8.6539307v32.041626c0,1.8141479,0.9805908,3.4909668,2.5593872,4.3735352l80.3320923,45.1867676
		c0.7648315,0.4315186,1.6130981,0.6472168,2.4613037,0.6472168c0.8482666,0,1.6964722-0.2156982,2.4613647-0.6472168
		l80.3320312-45.1867676c1.5787964-0.8825684,2.5594482-2.5593872,2.5594482-4.3735352v-32.041626l17.3078613-8.6539307
		c1.6964722-0.8531494,2.7751465-2.5888062,2.7751465-4.4912109v-40.1660156
		C231.8730469,110.1625977,229.6274414,107.9169922,226.8522949,107.9169922z M152.4414673,29.3811646l-26.0042725,26.2199707
		l-26.0076294-26.2185059l26.0076294-11.3783569L152.4414673,29.3811646z M51.1259155,50.9530029l39.4395752-17.2548218
		l32.3071899,32.5671387c0.9414062,0.9511719,2.2260132,1.4855957,3.5645142,1.4855957
		c1.338562,0,2.6231689-0.5344238,3.5645752-1.4855957l32.3040161-32.5685425l39.442749,17.2562256v104.2114258
		l-40.1268311,22.2978516l-32.6937256-18.6807861c-1.5395508-0.8825073-3.4419556-0.8825073-4.9815063,0l-32.6888428,18.6807861
		l-40.1317139-22.2954712V50.9530029z M31.0429077,150.0050049v-32.0465088h10.0415039v37.0644531L31.0429077,150.0050049z
		 M126.4371948,237.7210693l-75.3112793-42.3625488v-28.6977539l37.729187,20.9606934
		c1.5297852,0.8530884,3.3978271,0.8334961,4.9276123-0.0294189l32.65448-18.6611328l32.654541,18.6611328
		c0.7746582,0.4314575,1.6278076,0.6569824,2.4907227,0.6569824c0.8433228,0,1.6768799-0.2059326,2.4417725-0.6275635
		l37.7243042-20.9580078v28.6950684L126.4371948,237.7210693z M221.831543,150.0050049l-10.0415039,5.0178833v-37.0643921
		h10.0415039V150.0050049z"/>
	<path fill="#FFFFFF" d="M136.4786987,188.2490234h-20.0830078c-2.7751465,0-5.020752,2.2456055-5.020752,5.020752
		s2.2456055,5.020752,5.020752,5.020752h20.0830078c2.7751465,0,5.020752-2.2456055,5.020752-5.020752
		S139.2538452,188.2490234,136.4786987,188.2490234z"/>
	<path fill="#FFFFFF" d="M77.7006226,146.6120605c0.9413452,0.9414062,2.2161865,1.4709473,3.5498047,1.4709473h20.0830078
		c1.3336182,0,2.6084595-0.529541,3.5498657-1.4709473l15.0622559-15.0622559
		c0.9413452-0.9414062,1.4708862-2.2161865,1.4708862-3.5498047v-10.0415039h10.0415039v10.3994141
		c0,1.3336182,0.529541,2.6084595,1.4709473,3.5498047l14.7092285,14.7043457
		c0.9414062,0.9414062,2.2161865,1.4709473,3.5498047,1.4709473h20.7890625c1.3336792,0,2.6084595-0.529541,3.5498657-1.4709473
		l14.7092285-14.7043457c0.9414062-0.9413452,1.4709473-2.2161865,1.4709473-3.5498047V107.559021
		c0-1.3336182-0.529541-2.6083984-1.4709473-3.5498047l-14.7092285-14.7043457
		c-0.9414062-0.9414062-2.2161865-1.4708862-3.5498657-1.4708862h-20.7890625c-1.3336182,0-2.6083984,0.52948-3.5498047,1.4708862
		l-14.7092285,14.7043457c-0.9414062,0.9414062-1.4709473,2.2161865-1.4709473,3.5498047v0.3579712h-10.0415039
		c0-1.3336792-0.529541-2.6084595-1.4708862-3.5498657l-15.0622559-15.0622559
		c-0.9414062-0.9414062-2.2162476-1.4708862-3.5498657-1.4708862H81.2504272c-1.3336182,0-2.6084595,0.52948-3.5498047,1.4708862
		l-15.0622559,15.0622559c-0.9414062,0.9414062-1.4709473,2.2161865-1.4709473,3.5498657V128
		c0,1.3336182,0.529541,2.6083984,1.4709473,3.5498047L77.7006226,146.6120605z M141.4994507,109.6379395l11.767395-11.7624512
		h16.6312866l11.767334,11.7624512v16.6410522l-11.767334,11.7625122h-16.6312866l-11.767395-11.7625122V109.6379395z
		 M71.2089233,109.9958496l12.1204224-12.1203613h15.9251709l12.1204224,12.1203613v15.9252319l-12.1204224,12.1204224H83.3293457
		l-12.1204224-12.1204224V109.9958496z"/>
</g>
</svg>
