<?xml version="1.0" encoding="utf-8"?>
<!-- Generator: Adobe Illustrator 21.1.0, SVG Export Plug-In . SVG Version: 6.00 Build 0)  -->
<svg version="1.1" baseProfile="tiny" id="Layer_3" xmlns="http://www.w3.org/2000/svg" xmlns:xlink="http://www.w3.org/1999/xlink"
	 x="0px" y="0px" viewBox="0 0 256 256" xml:space="preserve">
<path fill="#FFFFFF" d="M249.6591797,127.7778931c0.0344849-0.0895996,0.0625-0.1812744,0.0917969-0.2727051
	c0.0336914-0.1051636,0.0696411-0.2093506,0.0961914-0.31604c0.0233765-0.0936279,0.0379028-0.189209,0.0559082-0.2841797
	c0.0197754-0.1049194,0.0443726-0.2089233,0.057373-0.3146362c0.0245361-0.1968994,0.0375977-0.395752,0.0385742-0.5957031
	c0.0001831-0.0560913-0.0072021-0.1118164-0.0089111-0.1679077c-0.0039062-0.1386719-0.0064087-0.2772827-0.0219727-0.4162598
	c-0.00177-0.0148926-0.0059204-0.0291138-0.0078125-0.0440063c-0.0093384-0.0756836-0.0271606-0.1501465-0.039978-0.2254639
	c-0.0216675-0.125-0.0426025-0.249939-0.0732422-0.3720703c-0.0233765-0.093811-0.0546265-0.1855469-0.0834961-0.2781982
	c-0.0328369-0.1047974-0.0654297-0.2093506-0.1048584-0.3113403c-0.0350342-0.0906372-0.0751343-0.1791992-0.1156006-0.2682495
	c-0.0471191-0.1038208-0.0964966-0.2059326-0.1503906-0.3061523c-0.0223999-0.0415039-0.0383911-0.0853271-0.0620117-0.1263428
	L191.592041,23.0635986c-0.0424805-0.0742798-0.0949097-0.1403198-0.1408691-0.211792
	c-0.0444336-0.0692139-0.0881958-0.1375732-0.1360474-0.2046509c-0.1636353-0.2290649-0.3393555-0.4470825-0.536377-0.6429443
	c-0.0286255-0.0285034-0.0621338-0.0522461-0.0915527-0.0802002c-0.1829224-0.1730957-0.3791504-0.3289795-0.5848389-0.4720459
	c-0.0685425-0.0477295-0.1365356-0.0943604-0.2079468-0.138916c-0.2441406-0.1524048-0.4978027-0.288269-0.7648926-0.3969116
	c-0.0134888-0.0054932-0.0244751-0.0143433-0.0380249-0.0197144c-0.0373535-0.0147095-0.0757446-0.0182495-0.1132202-0.0319824
	c-0.2404175-0.0889893-0.4877319-0.157959-0.7410278-0.2095947c-0.0701294-0.0142822-0.1392822-0.0310059-0.2094116-0.0421753
	c-0.2595215-0.0414429-0.5223389-0.0692749-0.7896729-0.0692749H71.7608032c-0.0728149,0-0.1436768,0.0112915-0.2160034,0.0144043
	c-0.130188,0.0056152-0.2600708,0.0101318-0.3895874,0.0259399c-0.0949097,0.0115356-0.1873779,0.0316162-0.2810059,0.0485229
	c-0.117981,0.0212402-0.2357178,0.0412598-0.352356,0.0710449c-0.0999146,0.0255127-0.1964111,0.059082-0.2941895,0.0905762
	c-0.1055908,0.0339966-0.2111206,0.0665894-0.3148193,0.1078491c-0.1083374,0.0430298-0.2122803,0.0942993-0.3171997,0.1445923
	c-0.0656128,0.0316162-0.133606,0.0557251-0.1981201,0.090332c-0.0224609,0.0119019-0.0421143,0.0274658-0.0643311,0.0396729
	c-0.0979004,0.0541992-0.1912231,0.1152344-0.2852783,0.1758423c-0.0927124,0.0594482-0.1856689,0.1179199-0.2736816,0.1829224
	c-0.0752563,0.0557861-0.1460571,0.1168823-0.2182007,0.1768799c-0.0961304,0.0797729-0.1915283,0.159729-0.2810059,0.2460327
	c-0.0618286,0.0596924-0.1193237,0.1235352-0.1781616,0.1865845c-0.0893555,0.0956421-0.1769409,0.1920776-0.2583618,0.2941284
	c-0.0529175,0.0663452-0.1016846,0.1358032-0.1514282,0.2050781c-0.0770264,0.1073608-0.1513062,0.2158813-0.2195435,0.3289795
	c-0.0189819,0.0313721-0.0423584,0.05896-0.0606689,0.0908203L9.6682129,123.4786377
	c-0.010376,0.0181274-0.0170898,0.0375977-0.0272217,0.0557861c-0.0374756,0.067627-0.067627,0.1394653-0.1022339,0.2092285
	c-0.1080322,0.2172241-0.1993408,0.43927-0.2740479,0.6663818c-0.0145874,0.0444336-0.0390015,0.0825806-0.0524902,0.1276855
	c-0.0068359,0.0227661-0.0067139,0.0457764-0.0131836,0.0685425c-0.0784912,0.2763672-0.131897,0.5570068-0.1621094,0.8405151
	c-0.008667,0.0808105-0.0108032,0.1602783-0.0155029,0.2408447c-0.0133667,0.2301636-0.0113525,0.4599609,0.006897,0.6898193
	c0.0053711,0.06604,0.0047607,0.1323242,0.0126953,0.197876c0.0327148,0.274353,0.0918579,0.545166,0.1699219,0.812439
	c0.0203857,0.0692139,0.045105,0.1358643,0.0683594,0.2041016c0.0767212,0.2261963,0.1694336,0.4474487,0.2792969,0.6635132
	c0.0239868,0.0469971,0.0437622,0.095459,0.0692139,0.1416626c0.0148926,0.0270996,0.0250244,0.0559082,0.0404053,0.0827637
	l57.7386475,100.4151001c0.0014648,0.0025635,0.003418,0.0046997,0.0048828,0.0072632
	c0.1028442,0.1786499,0.2189331,0.3493042,0.3432617,0.5142822c0.0325317,0.0430298,0.0683594,0.0826416,0.1021118,0.1245117
	c0.0960693,0.1192627,0.1963501,0.2348633,0.3034668,0.3453979c0.0438232,0.045166,0.0890503,0.0881958,0.1343994,0.1315308
	c0.105957,0.1014404,0.2165527,0.1981201,0.3319702,0.2906494c0.046814,0.0374756,0.0930786,0.0750122,0.1411133,0.1106567
	c0.0407104,0.0303345,0.0776978,0.0645142,0.1195068,0.093689c0.0527954,0.036438,0.1108398,0.0620728,0.1647339,0.0963745
	c0.1229248,0.0789795,0.24823,0.15271,0.3775024,0.2207031c0.0786133,0.0411377,0.1571655,0.0807495,0.2375488,0.1176758
	c0.1452026,0.0668335,0.2937012,0.1246338,0.4450684,0.1774292c0.0753174,0.0262451,0.149353,0.0546265,0.225708,0.0773315
	c0.164978,0.0489502,0.3334961,0.0853882,0.5037842,0.1172485c0.0668335,0.0125732,0.1321411,0.0303955,0.1994629,0.0402222
	c0.2366333,0.0343628,0.4763794,0.0551758,0.7194214,0.0551758h115.477356c0.2695312,0,0.5343628-0.0284424,0.7959595-0.0705566
	c0.0856323-0.0136108,0.1694336-0.0332642,0.2544556-0.0512695c0.1821899-0.0391235,0.3605347-0.0880127,0.5361938-0.1466675
	c0.0914917-0.0302734,0.1827393-0.0576172,0.2727661-0.0933228c0.2319946-0.0925903,0.4575806-0.1993408,0.6728516-0.3249512
	c0.0841064-0.0489502,0.1623535-0.1088257,0.2442017-0.163147c0.1490479-0.0990601,0.2930908-0.2044067,0.4310303-0.3191528
	c0.050415-0.0418091,0.1068726-0.0714111,0.1560059-0.1155396c0.034668-0.0313721,0.0584106-0.0695801,0.09198-0.1016846
	c0.1956787-0.185791,0.3799438-0.3842773,0.5447388-0.6019287c0.0551147-0.0727539,0.098999-0.1500854,0.1496582-0.2250977
	c0.0687256-0.1017456,0.1424561-0.1992798,0.2040405-0.3068237l57.7387085-100.4151001
	c0.0240479-0.0418091,0.0404053-0.0863037,0.0631714-0.1286011c0.0497437-0.0926514,0.0949097-0.1870728,0.1387329-0.2825928
	C249.5770264,127.972168,249.6212769,127.8762817,249.6591797,127.7778931z M186.3419189,217.883728l-14.6681519-16.2979736
	l52.1487427-48.8926392L186.3419189,217.883728z M231.2780151,112.2328491l-59.3668213-34.4155884l16.1602173-40.734375
	L231.2780151,112.2328491z M69.8648071,131.7909546l6.3774414-97.822937l79.5343018,46.1064453L69.8648071,131.7909546z
	 M160.550293,88.9188232l-0.8538818,103.5501709l-85.7177124-51.4331665L160.550293,88.9188232z M151.9360352,199.5231934
	l-75.7036133,20.4578857l-6.1896362-69.5962524L151.9360352,199.5231934z M170.5945435,88.6645508l66.0175781,38.270752
	L169.762085,189.609436L170.5945435,88.6645508z M163.1281738,72.725647L90.4353638,30.5848999h89.4083252L163.1281738,72.725647z
	 M59.6845093,134.4355469l-38.1528931-11.4458618l43.8248901-76.2185059L59.6845093,134.4355469z M59.5276489,144.8727417
	l5.2299194,59.2728882l-40.0952759-69.7321167L59.5276489,144.8727417z M162.9736938,206.9415283l12.9848022,14.4320068h-66.3861694
	L162.9736938,206.9415283z"/>
</svg>
