<?xml version="1.0" encoding="utf-8"?>
<!-- Generator: Adobe Illustrator 21.1.0, SVG Export Plug-In . SVG Version: 6.00 Build 0)  -->
<svg version="1.1" baseProfile="tiny" id="Layer_2" xmlns="http://www.w3.org/2000/svg" xmlns:xlink="http://www.w3.org/1999/xlink"
	 x="0px" y="0px" viewBox="0 0 256 256" xml:space="preserve">
<g>
	<path fill="#FFFFFF" d="M203.7900391,83.0240479v-50.418396c0-0.3113403-0.0361938-0.6173706-0.0924683-0.918335
		c-0.0087891-0.0474243-0.0142822-0.0953369-0.024353-0.1422729c-0.0584106-0.2694092-0.1425171-0.5307617-0.2435913-0.7855225
		c-0.0264893-0.0668335-0.0528564-0.1326904-0.0820312-0.1980591c-0.1079102-0.2415161-0.2331543-0.4745483-0.3778687-0.6965942
		c-0.0355835-0.0544434-0.0741577-0.1055908-0.1117554-0.1585693c-0.1607666-0.2272949-0.3345947-0.4460449-0.5325928-0.6456299
		c-0.0079346-0.0079956-0.0169067-0.0146484-0.0249634-0.022583c-0.1246948-0.1240234-0.2548828-0.2434082-0.3931885-0.3548584
		L176.8034668,8.6002197c-0.892334-0.7109985-2.0004272-1.0983276-3.1380005-1.0983276H88.3126831
		c-0.9904175,0-1.9612427,0.2941895-2.7849731,0.8433228L55.4031982,28.4282227
		c-0.0015869,0.0010376-0.0028687,0.0023193-0.0044556,0.0033569c-0.0288086,0.0192871-0.053894,0.0427246-0.0822754,0.062561
		c-0.2089233,0.1459351-0.4017944,0.3082886-0.5834961,0.4813843c-0.0537109,0.0511475-0.1069336,0.1013184-0.1583252,0.1547852
		c-0.1895142,0.1970825-0.3648682,0.4053345-0.5187988,0.6289062c-0.0327759,0.0474854-0.0594482,0.0984497-0.0906372,0.1471558
		c-0.1275024,0.199646-0.2398071,0.4075928-0.3379517,0.6230469c-0.0288086,0.0632324-0.0603638,0.1240234-0.0866089,0.1885986
		c-0.1039429,0.2557983-0.1846313,0.5205688-0.2454834,0.7918701c-0.0147095,0.065918-0.0253906,0.1324463-0.0374756,0.1993408
		c-0.0535278,0.2939453-0.090271,0.5922241-0.090271,0.8964233v50.418396c0,1.6229248,0.7844849,3.1428833,2.1033936,4.0842285
		l64.5990601,46.1228638L55.270813,179.3450317c-1.3189087,0.9414062-2.1033936,2.4711304-2.1033936,4.0891724v39.960083
		c0,1.6768799,0.8384399,3.2458496,2.2357788,4.1774292L85.52771,247.6547241
		c0.8237305,0.5491333,1.7945557,0.8433228,2.7849731,0.8433228h85.3527832c1.1375732,0,2.2456665-0.3922119,3.1380005-1.0982666
		l25.1037598-20.0830078c1.1865234-0.9512329,1.8828125-2.3927002,1.8828125-3.9224854v-39.960083
		c0-1.618042-0.7845459-3.1380005-2.0985718-4.0891724l-64.5449219-46.1138916l64.5449219-46.1228638
		C203.0054932,86.1669312,203.7900391,84.6469727,203.7900391,83.0240479z M89.8326416,17.543396h82.067749l18.8278198,15.0622559
		l-18.8278198,15.0622559h-82.067749L67.2392578,32.6056519L89.8326416,17.543396z M193.7485352,220.9819946l-21.8481445,17.4745483
		h-82.067749l-26.6237183-17.7491455v-34.6843872l65.2991943-46.6184692l65.2404175,46.6087036V220.9819946z
		 M128.5081177,127.0634766L63.2089233,80.4401245V41.9868774L85.52771,56.8660889
		c0.8237305,0.5491943,1.7945557,0.8433228,2.7849731,0.8433228h85.3527832c1.1375732,0,2.2456665-0.3873291,3.1380005-1.0982666
		l16.9450684-13.5560303v37.3850098L128.5081177,127.0634766z"/>
	<path fill="#FFFFFF" d="M150.444519,78.8907471l-21.9658203,17.5775146l-21.9657593-17.5775146
		c-2.1622925-1.7258911-5.3247681-1.3728638-7.0604858,0.7844849C97.7216797,81.8424072,98.074707,85,100.2369995,86.7356567
		l25.1037598,20.0830078c0.9168701,0.7305908,2.0298462,1.0983276,3.1379395,1.0983276s2.2161865-0.3677368,3.1380005-1.0983276
		l25.1037598-20.0830078c2.1671753-1.7356567,2.510376-4.8932495,0.7844849-7.0604248
		C155.7790527,77.5178833,152.6312866,77.164856,150.444519,78.8907471z"/>
	<path fill="#FFFFFF" d="M123.4873657,163.1452637v10.0415039c0,2.7751465,2.2456055,5.020752,5.020752,5.020752
		s5.020752-2.2456055,5.020752-5.020752v-10.0415039c0-2.7751465-2.2456055-5.020752-5.020752-5.020752
		S123.4873657,160.3701172,123.4873657,163.1452637z"/>
	<path fill="#FFFFFF" d="M133.5288696,193.4953003c0.0098267-2.7751465-2.2357788-5.0305176-5.0010986-5.0403442
		c-0.0098267,0-0.0098267,0-0.0196533,0c-2.7653198,0-5.0109253,2.2357788-5.020752,5.0011597l-0.0186157,6.2297974
		l-41.7654419,13.921814c-2.6280518,0.8825684-4.0499268,3.7263794-3.1722412,6.3544312
		c0.8727417,2.6280518,3.6968994,4.069519,6.3494873,3.1771851l43.5981445-14.5327148l43.5982056,14.5327148
		c0.529541,0.1765137,1.059082,0.2549438,1.588562,0.2549438c2.0985718,0,4.0597534-1.3336182,4.7658081-3.4321289
		c0.8727417-2.6280518-0.5491333-5.4718628-3.1771851-6.3544312l-41.7437744-13.9146118L133.5288696,193.4953003z"/>
</g>
</svg>
