<?xml version="1.0" encoding="utf-8"?>
<!-- Generator: Adobe Illustrator 21.1.0, SVG Export Plug-In . SVG Version: 6.00 Build 0)  -->
<svg version="1.1" baseProfile="tiny" id="Layer_1" xmlns="http://www.w3.org/2000/svg" xmlns:xlink="http://www.w3.org/1999/xlink"
	 x="0px" y="0px" viewBox="0 0 490 211" xml:space="preserve">
<linearGradient id="SVGID_1_" gradientUnits="userSpaceOnUse" x1="4.8923669" y1="105.6241531" x2="487" y2="105.6241531">
	<stop  offset="0" style="stop-color:#DDEF50"/>
	<stop  offset="1" style="stop-color:#008A29"/>
</linearGradient>
<path fill="url(#SVGID_1_)" d="M107.8673019,193.2820587c-48.3343506,0-87.6573334-39.3229828-87.6573334-87.6584854
	c0-48.3343468,39.322979-87.6573257,87.6573334-87.6573257c48.3355026,0,87.6584854,39.3229828,87.6584854,87.6573257
	C195.5257874,153.9590759,156.2028046,193.2820587,107.8673019,193.2820587z M107.8673019,20.324749
	c-47.0341797,0-85.2988281,38.2646484-85.2988281,85.2988281s38.2646484,85.2999802,85.2988281,85.2999802
	s85.2999802-38.2657928,85.2999802-85.2999802S154.901474,20.324749,107.8673019,20.324749z M107.8673019,208.5985107
	c-56.7802811,0-102.9749374-46.1934967-102.9749374-102.9749374c0-56.7802773,46.1946526-102.9737778,102.9749374-102.9737778
	c56.7814255,0,102.9749374,46.1935043,102.9749374,102.9737778
	C210.8422394,162.405014,164.6487274,208.5985107,107.8673019,208.5985107z M107.8673019,9.7253036
	c-52.8786163,0-95.8994217,43.0196571-95.8994217,95.8982697c0,52.8797684,43.0208092,95.8994217,95.8994217,95.8994217
	c52.8797684,0,95.8994217-43.0196533,95.8994217-95.8994217C203.7667236,52.7449608,160.7470703,9.7253036,107.8673019,9.7253036z
	 M248.2030334,70.2248535c0.1161652-1.1617126,1.1630096-2.2098389,2.3260193-2.2098389h14.4259338
	c1.0468445,0,1.743866,1.0481262,1.6276855,2.2098389l-8.7244873,62.1234436h23.7312927
	c1.1643066,0,1.7451477,1.0455475,1.6289673,2.2098389l-1.7451477,12.6807861
	c-0.1161804,1.1617126-1.1629944,2.2098389-2.3260193,2.2098389h-40.0185394c-1.1643066,0-1.8613281-1.0481262-1.745163-2.2098389
	L248.2030334,70.2248535z M296.3561707,70.2248535c0.1161804-1.1617126,1.1630249-2.2098389,2.2111511-2.2098389h14.7744446
	c1.0468445,0,1.8613281,1.0481262,1.743866,2.2098389l-6.6308289,48.0460205
	c-1.1629944,8.1449203,2.9081726,13.7288971,9.3066406,13.7288971c6.9806213,0,12.6807861-5.5839767,13.843811-13.7288971
	l6.6307983-48.0460205c0.1161804-1.1617126,1.0481262-2.2098389,2.2098389-2.2098389h14.6582947
	c1.0481262,0,1.8613281,1.0481262,1.7451477,2.2098389l-6.7482605,48.9779739
	c-2.67453,18.8456192-15.3553162,31.4102249-34.6656494,31.4102249c-15.5889282,0-28.3858948-13.7288971-25.8262329-31.4102249
	L296.3561707,70.2248535z M365.9132996,70.8082962c0.2323608-1.5128098,1.3966675-2.7932816,2.9068909-2.7932816h14.0774231
	c1.396637,0,2.4421692,1.2804718,2.2098389,2.7932816l-4.3035278,30.5944519l24.1972656-32.2234344
	c0.4646912-0.6970291,1.1617126-1.164299,2.093689-1.164299h16.868103c1.9775085,0,2.67453,2.560936,1.3966675,4.3060989
	l-27.803772,35.3652267l19.3103333,38.3882751c0.9319458,1.8613281-1.1617432,3.3741455-2.3260193,3.3741455H398.48526
	c-1.0455322,0-1.8613281-0.4646912-2.3260193-1.5128174l-16.868103-35.9460907l-4.8869629,34.6682129
	c-0.1161804,1.5102234-1.5128174,2.7906952-2.9068909,2.7906952h-14.0774231c-1.5127869,0-2.3259888-1.2804718-2.2098389-2.7906952
	L365.9132996,70.8082962z M416.2750244,146.4231415l44.0884094-78.291954
	c0.4672852-0.6970291,1.0481262-1.2778931,1.9775085-1.2778931h1.0481262c0.8132019,0,1.396637,0.580864,1.6289978,1.2778931
	l21.8712463,78.291954c0.4646912,1.5128021-0.5834351,3.0256195-2.2124329,3.0256195h-13.1454773
	c-2.0936584,0-3.2553711-0.5808563-3.7226562-2.9094543l-1.977478-9.1904755h-25.710083l-4.5358582,9.3092346
	c-0.6970215,1.5102234-2.2098389,2.7906952-4.6520386,2.7906952h-13.2642212
	C416.0426636,149.448761,415.4592285,147.9359436,416.2750244,146.4231415z M461.4115601,121.5288391l-3.6064758-19.4264832
	h-0.1161804l-9.3066406,19.4264832H461.4115601z M79.5249786,50.5108719c-6.9940491,0-10.6250763,3.2272873-10.6250763,9.9537926
	v84.6100311c0,6.7243195,3.6310272,10.221344,10.8948212,10.221344c7.1302414,0,10.6272812-3.4970245,10.6272812-10.221344
	v-18.3838425v-5.6938019V89.7887192V73.0233231V60.4650955C90.4220047,53.7381592,86.7887802,50.5108719,79.5249786,50.5108719z
	 M154.8070679,129.2266846c0.0781403-5.4458847-2.3796692-9.2903519-7.2550812-12.0396881
	c-1.9846344-1.1191177-3.7920685-2.1400375-5.5161438-3.1146774c-8.6308289-4.8784637-14.3250809-8.1253967-19.8813858-11.3029251
	c-2.093338-1.1968079-4.1844635-2.3940506-6.4017639-3.6620178c-1.7960815-1.0274658-3.6855927-2.1077423-5.7453156-3.2831573
	c-1.0340118-0.5905533-2.097702-1.197258-3.2290344-1.8423615c-0.4443359-0.2531509-0.8209991-0.4984512-1.1475067-0.7389526
	l-2.7947464-1.5411911c5.7789078-5.3900146,18.5091171-17.2555542,23.6014557-21.944603
	c4.1242218-3.79776,5.3131866-4.9980621,9.4631958-8.7705002c1.8213959-1.655983,3.8453369-1.2238731,4.6139679,0.9593697
	c0.2204132,0.6259041,0.4006958,1.1946297,0.5115356,1.7367287c0.1344299,2.0409546-1.4888153,3.3927078-1.4888153,3.3927078
	l-24.8087311,22.757309l1.9025955,1.0846405l4.9173126,2.8030396c1.9418564-1.8022003,3.6454239-3.3791809,4.8889389-4.5240555
	c4.1242218-3.79776,5.3131866-4.9980621,9.4631958-8.7705002c1.8213959-1.655983,4.0814819-0.4513092,4.8500977,1.7314911
	c0.9117889,2.5900345,0.4111633,4.1355896-1.9375153,6.0538864c-2.0505524,1.6747589-1.0628052,0.8677139-3.0452728,2.6179733
	c-2.0317993,1.7939072-4.6659088,4.1050415-7.5924683,6.6684494l6.4755249,3.6912613
	c4.4773407-4.0063858,12.1095428-10.7167435,15.7597656-13.9828796c0.3661957-0.3277969,0.70578-0.6324539,0.9842377-0.8842926
	c2.0492554-1.8532715,2.6987152-4.0050812,2.0191193-6.6601562c-2.093338-8.1751556-4.1421356-16.3616676-6.0853271-24.5699959
	c-0.6359253-2.6864929-1.9427338-4.6794319-4.8033905-5.4179459c-2.8296509-0.7306557-5.1124268,0.3050957-7.1459503,2.1932793
	c-11.9454117,11.0908012-23.899559,22.1728745-35.9104538,33.1995163c-1.1784821,1.082016-1.9348831,2.2430344-2.2958603,3.5118713
	l-0.0458145-0.0253143c-0.125267,0.5163422-0.194664,1.0641251-0.2033997,1.6489944
	c0,0.0209503-0.0069809,0.0401535-0.0069809,0.0611038l0.0030594,0.0013123c0,0.0183411-0.0030594,0.0344849-0.0030594,0.0528183
	c0.0091629,6.2926407,0.0410233,12.5857239,0.0619888,18.8783646c0.0152664,4.6327362,0.0148392,9.2658997,0.0453949,13.8986282
	c0.0161438,2.4477463,0.9493256,4.49263,3.3185272,5.8277969c15.4420242,8.7050323,30.8534622,17.4593964,46.3055191,26.1482697
	c3.8361816,2.157486,7.7709961,0.1313782,8.1520233-3.9046936c0.0200958-0.2134399,0.0375366-0.4281769,0.0375366-0.6525269
	C154.8284607,143.4173126,154.7053833,136.3202667,154.8070679,129.2266846z M141.7102356,140.5095367
	c-2.6947937,0-4.878891-2.1845551-4.878891-4.8789062c0-2.6943665,2.1845551-4.8789062,4.878891-4.8789062
	c2.6943512,0,4.8789062,2.1845398,4.8789062,4.8789062C146.5891418,138.3254242,144.4050293,140.5095367,141.7102356,140.5095367z"
	/>
</svg>
