<?xml version="1.0" encoding="utf-8"?>
<!-- Generator: Adobe Illustrator 21.1.0, SVG Export Plug-In . SVG Version: 6.00 Build 0)  -->
<svg version="1.1" baseProfile="tiny" id="Layer_1" xmlns="http://www.w3.org/2000/svg" xmlns:xlink="http://www.w3.org/1999/xlink"
	 x="0px" y="0px" viewBox="0 0 253 84" xml:space="preserve">
<path fill="#FFFFFF" d="M12.2030306,3.2248571c0.1161718-1.1617167,1.1630077-2.2098432,2.3260155-2.2098432h14.4259367
	c1.0468369,0,1.743866,1.0481263,1.6276951,2.2098432l-8.7244911,62.1234322h23.731287
	c1.164299,0,1.7451553,1.0455475,1.6289825,2.2098465l-1.7451553,12.6807785
	c-0.1161728,1.1617203-1.1630058,2.2098465-2.3260155,2.2098465H3.1287341c-1.1642981,0-1.8613279-1.0481262-1.7451563-2.2098465
	L12.2030306,3.2248571z M60.3561821,3.2248571c0.116169-1.1617167,1.1630058-2.2098432,2.211132-2.2098432h14.7744522
	c1.0468369,0,1.8613281,1.0481263,1.743866,2.2098432l-6.6308212,48.0460129
	c-1.163002,8.1449242,2.908165,13.7289085,9.3066406,13.7289085c6.980629,0,12.6807785-5.5839844,13.8437881-13.7289085
	l6.6308212-48.0460129c0.1161728-1.1617167,1.0481262-2.2098432,2.2098465-2.2098432h14.6582794
	c1.0481262,0,1.8613281,1.0481263,1.7451553,2.2098432l-6.7482834,48.9779663
	c-2.67453,18.845623-15.3553085,31.4102364-34.6656189,31.4102364c-15.5889473,0-28.3858986-13.7289124-25.826252-31.4102364
	L60.3561821,3.2248571z M129.9133148,3.8082969c0.2323456-1.5128131,1.396637-2.793283,2.9068756-2.793283h14.0774231
	c1.396637,0,2.4421844,1.2804698,2.2098389,2.793283l-4.3035126,30.5944519l24.1972656-32.2234344
	c0.4646759-0.6970299,1.1617126-1.1642982,2.0936584-1.1642982h16.8681335c1.9774933,0,2.67453,2.5609393,1.396637,4.3060956
	l-27.8037415,35.3652344l19.3103027,38.3882713c0.9319611,1.8613281-1.1617126,3.3741455-2.3260193,3.3741455H162.48526
	c-1.0455475,0-1.8613281-0.4646912-2.3260193-1.5128174l-16.8681183-35.9460869l-4.8869476,34.6682014
	c-0.1161804,1.510231-1.5128174,2.7907028-2.9068756,2.7907028h-14.0774231c-1.5128174,0-2.3260193-1.2804718-2.2098465-2.7907028
	L129.9133148,3.8082969z M180.2750092,79.4231339l44.0884399-78.2919464
	c0.4672699-0.6970299,1.0481262-1.2778882,1.9774933-1.2778882h1.0481262c0.8132019,0,1.3966522,0.5808582,1.6289825,1.2778882
	l21.8712616,78.2919464c0.4646759,1.5128098-0.5834503,3.0256271-2.2124329,3.0256271h-13.145462
	c-2.0936737,0-3.2553864-0.5808563-3.7226562-2.9094543l-1.9775085-9.1904678h-25.7100677l-4.5358582,9.3092194
	c-0.6970367,1.510231-2.2098541,2.7907028-4.6520386,2.7907028h-13.2642212
	C180.0426636,82.448761,179.4592285,80.9359436,180.2750092,79.4231339z M225.4115753,54.5288391l-3.6064911-19.4264793h-0.1161652
	l-9.3066406,19.4264793H225.4115753z"/>
</svg>
