<?xml version="1.0" encoding="utf-8"?>
<!-- Generator: Adobe Illustrator 21.1.0, SVG Export Plug-In . SVG Version: 6.00 Build 0)  -->
<svg version="1.1" baseProfile="tiny" id="Layer_3" xmlns="http://www.w3.org/2000/svg" xmlns:xlink="http://www.w3.org/1999/xlink"
	 x="0px" y="0px" viewBox="0 0 872 381" xml:space="preserve">
<g>
	<g>
		<line fill="#3F434C" x1="125.6513977" y1="204.8798981" x2="76.0322037" y2="230.8867035"/>
		<polygon fill="#3F434C" points="76.0723038,230.9629059 75.9932022,230.8105011 125.6122971,204.8036957 125.6913986,204.9550018 
					"/>
	</g>
	<g>
		<line fill="#3F434C" x1="125.6513977" y1="204.8798981" x2="76.0322037" y2="230.8867035"/>
		<polygon fill="#3F434C" points="76.0723038,230.9629059 75.9932022,230.8105011 125.6122971,204.8036957 125.6913986,204.9550018 
					"/>
	</g>
	<g>
		<line fill="#3F434C" x1="159.1864929" y1="248.6815948" x2="125.6513977" y2="204.8798981"/>
		
			<rect x="142.3333588" y="199.197464" transform="matrix(0.7940016 -0.6079156 0.6079156 0.7940016 -108.5251312 133.2952118)" fill="#3F434C" width="0.1716706" height="55.1655769"/>
	</g>
	<g>
		<line fill="#3F434C" x1="159.1864929" y1="248.6815948" x2="125.6513977" y2="204.8798981"/>
		
			<rect x="142.3333588" y="199.197464" transform="matrix(0.7940016 -0.6079156 0.6079156 0.7940016 -108.5251312 133.2952118)" fill="#3F434C" width="0.1716706" height="55.1655769"/>
	</g>
	<g>
		<line fill="#3F434C" x1="110.9365005" y1="267.1600952" x2="159.1864929" y2="248.6815948"/>
		
			<rect x="109.2282715" y="257.835022" transform="matrix(0.9335707 -0.3583933 0.3583933 0.9335707 -83.4649277 65.5388107)" fill="#3F434C" width="51.6675529" height="0.1711326"/>
	</g>
	<g>
		<line fill="#3F434C" x1="110.9365005" y1="267.1600952" x2="125.6513977" y2="204.8798981"/>
		<polygon fill="#3F434C" points="111.0205002,267.1796875 110.8535004,267.1405945 125.5683975,204.8592987 
			125.7343979,204.8993988 		"/>
	</g>
	<g>
		<line fill="#3F434C" x1="110.9365005" y1="267.1600952" x2="125.6513977" y2="204.8798981"/>
		<polygon fill="#3F434C" points="111.0205002,267.1796875 110.8535004,267.1405945 125.5683975,204.8592987 
			125.7343979,204.8993988 		"/>
	</g>
	<g>
		<line fill="#3F434C" x1="110.9365005" y1="267.1600952" x2="76.0322037" y2="230.8867035"/>
		<polygon fill="#3F434C" points="110.8759995,267.219696 75.9707031,230.9463043 76.0938034,230.8271027 110.9990005,267.1005859 
					"/>
	</g>
	<g>
		<line fill="#3F434C" x1="207.7792969" y1="240.4687042" x2="159.1864929" y2="248.6815948"/>
		<polygon fill="#3F434C" points="159.2012024,248.7655945 159.1728973,248.5966949 207.7646942,240.3838043 
			207.7940063,240.5527039 		"/>
	</g>
	<g>
		<line fill="#3F434C" x1="246.4483032" y1="212.75" x2="207.7792969" y2="240.4687042"/>
		
			<rect x="203.3251648" y="226.5235138" transform="matrix(0.8142451 -0.5805212 0.5805212 0.8142451 -89.3638916 173.9381256)" fill="#3F434C" width="47.5772591" height="0.1711633"/>
	</g>
	<g>
		<line fill="#3F434C" x1="296.7510071" y1="187.0848999" x2="246.4483032" y2="212.75"/>
		<polygon fill="#3F434C" points="246.4873047,212.8260956 246.4091949,212.6737976 296.7128906,187.0088043 
			296.7901001,187.1611023 		"/>
	</g>
	<g>
		<line fill="#3F434C" x1="238.9199066" y1="197.3515015" x2="296.7510071" y2="187.0848999"/>
		<polygon fill="#3F434C" points="238.9346008,197.4355011 238.905304,197.2666016 296.7362976,187.0009003 
			296.7666016,187.1688995 		"/>
	</g>
	<g>
		<line fill="#3F434C" x1="238.9199066" y1="197.3515015" x2="246.4483032" y2="212.75"/>
		<polygon fill="#3F434C" points="246.3710938,212.7881012 238.842804,197.3885956 238.9971008,197.3134003 
			246.5243988,212.7129059 		"/>
	</g>
	<g>
		<line fill="#3F434C" x1="238.9199066" y1="197.3515015" x2="207.7792969" y2="240.4687042"/>
		<polygon fill="#3F434C" points="207.8486023,240.5184937 207.7100067,240.4178925 238.8506012,197.3007965 
			238.9893036,197.4013062 		"/>
	</g>
	<g>
		<line fill="#3F434C" x1="185.8789062" y1="187.4277039" x2="238.9199066" y2="197.3515015"/>
		<polygon fill="#3F434C" points="238.9033051,197.4355011 185.8623047,187.5117035 185.8945007,187.3426971 
			238.9355927,197.2666016 		"/>
	</g>
	<g>
		<line fill="#3F434C" x1="185.8789062" y1="187.4277039" x2="246.4483032" y2="212.75"/>
		<polygon fill="#3F434C" points="246.4151001,212.8291016 185.8457031,187.5057983 185.9111023,187.3486023 
			246.4815063,212.6708984 		"/>
	</g>
	<g>
		<line fill="#3F434C" x1="185.8789062" y1="187.4277039" x2="207.7792969" y2="240.4687042"/>
		
			<rect x="196.7434998" y="185.2554779" transform="matrix(0.9243096 -0.3816434 0.3816434 0.9243096 -66.7536697 91.3123169)" fill="#3F434C" width="0.1711853" height="57.384449"/>
	</g>
	<g>
		<line fill="#3F434C" x1="185.8789062" y1="187.4277039" x2="159.1864929" y2="248.6815948"/>
		
			<rect x="139.1245728" y="217.9687805" transform="matrix(0.3940604 -0.9190845 0.9190845 0.3940604 -95.8660355 290.6999207)" fill="#3F434C" width="66.8162384" height="0.171238"/>
	</g>
	<g>
		<line fill="#3F434C" x1="185.8789062" y1="187.4277039" x2="125.6513977" y2="204.8798981"/>
		
			<rect x="124.4124756" y="196.0679016" transform="matrix(0.9615018 -0.2747985 0.2747985 0.9615018 -47.9060326 50.3555145)" fill="#3F434C" width="62.7048531" height="0.1712413"/>
	</g>
	<g>
		<line fill="#3F434C" x1="185.8789062" y1="187.4277039" x2="125.6513977" y2="204.8798981"/>
		
			<rect x="124.4124756" y="196.0679016" transform="matrix(0.9615018 -0.2747985 0.2747985 0.9615018 -47.9060326 50.3555145)" fill="#3F434C" width="62.7048531" height="0.1712413"/>
	</g>
	<g>
		<line fill="#3F434C" x1="170.1376953" y1="286.3232117" x2="207.7792969" y2="240.4687042"/>
		
			<rect x="159.2956085" y="263.3103333" transform="matrix(0.6288276 -0.7775447 0.7775447 0.6288276 -134.6656799 244.6891022)" fill="#3F434C" width="59.3262901" height="0.1707226"/>
	</g>
	<g>
		<line fill="#3F434C" x1="170.1376953" y1="286.3232117" x2="110.9365005" y2="267.1600952"/>
		
			<rect x="140.451889" y="245.628952" transform="matrix(0.3079671 -0.951397 0.951397 0.3079671 -166.0341034 325.2210693)" fill="#3F434C" width="0.1714335" height="62.2244987"/>
	</g>
	<g>
		<line fill="#3F434C" x1="170.1376953" y1="286.3232117" x2="159.1864929" y2="248.6815948"/>
		<polygon fill="#3F434C" points="170.0556946,286.3475952 159.1045074,248.7050018 159.2695007,248.657196 170.219696,286.2987976 
					"/>
	</g>
	<g>
		<line fill="#3F434C" x1="191.6963043" y1="338.6796875" x2="242.3417969" y2="300.0107117"/>
		
			<rect x="185.1589966" y="319.2603149" transform="matrix(0.7948397 -0.6068195 0.6068195 0.7948397 -149.2614594 197.2084351)" fill="#3F434C" width="63.7201653" height="0.1707357"/>
	</g>
	<g>
		<line fill="#3F434C" x1="191.6963043" y1="338.6796875" x2="170.1376953" y2="286.3232117"/>
		<polygon fill="#3F434C" points="191.6161957,338.7119141 170.0576019,286.3554077 170.2167969,286.2909851 
			191.7754059,338.6473999 		"/>
	</g>
	<g>
		<line fill="#3F434C" x1="191.6963043" y1="338.6796875" x2="242.3417969" y2="300.0107117"/>
		
			<rect x="185.1589966" y="319.2603149" transform="matrix(0.7948397 -0.6068195 0.6068195 0.7948397 -149.2614594 197.2084351)" fill="#3F434C" width="63.7201653" height="0.1707357"/>
	</g>
	<g>
		<line fill="#3F434C" x1="191.6963043" y1="338.6796875" x2="170.1376953" y2="286.3232117"/>
		<polygon fill="#3F434C" points="191.6161957,338.7119141 170.0576019,286.3554077 170.2167969,286.2909851 
			191.7754059,338.6473999 		"/>
	</g>
	<g>
		<line fill="#3F434C" x1="294.0137024" y1="314.3837891" x2="242.3417969" y2="300.0107117"/>
		
			<rect x="268.0921326" y="280.380127" transform="matrix(0.2679648 -0.9634287 0.9634287 0.2679648 -99.6471024 483.2493286)" fill="#3F434C" width="0.1712653" height="53.6342773"/>
	</g>
	<g>
		<line fill="#3F434C" x1="269.3760071" y1="262.0273132" x2="294.0137024" y2="314.3837891"/>
		
			<rect x="281.6089783" y="259.2730408" transform="matrix(0.904817 -0.4258005 0.4258005 0.904817 -95.9053421 147.3778992)" fill="#3F434C" width="0.1711895" height="57.8639908"/>
	</g>
	<g>
		<line fill="#3F434C" x1="269.3760071" y1="262.0273132" x2="242.3417969" y2="300.0107117"/>
		
			<rect x="232.5475159" y="280.9337463" transform="matrix(0.57968 -0.8148443 0.8148443 0.57968 -121.4441986 326.6028748)" fill="#3F434C" width="46.6222649" height="0.1705018"/>
	</g>
	<g>
		<line fill="#3F434C" x1="269.3760071" y1="262.0273132" x2="246.4483032" y2="212.75"/>
		
			<rect x="257.8260193" y="210.2135468" transform="matrix(0.906664 -0.4218537 0.4218537 0.906664 -76.0708008 130.9578857)" fill="#3F434C" width="0.1712385" height="54.3501511"/>
	</g>
	<g>
		<line fill="#3F434C" x1="269.3760071" y1="262.0273132" x2="207.7792969" y2="240.4687042"/>
		<polygon fill="#3F434C" points="269.3467102,262.1073914 207.7510071,240.5487976 207.8076019,240.3876953 
			269.4032898,261.9462891 		"/>
	</g>
	<g>
		<line fill="#3F434C" x1="193.0653992" y1="285.296814" x2="191.6963043" y2="338.6796875"/>
		<polygon fill="#3F434C" points="191.782196,338.6816101 191.6103973,338.6777039 192.9795074,285.2939148 
			193.1504059,285.2987976 		"/>
	</g>
	<g>
		<line fill="#3F434C" x1="193.0653992" y1="285.296814" x2="191.6963043" y2="338.6796875"/>
		<polygon fill="#3F434C" points="191.782196,338.6816101 191.6103973,338.6777039 192.9795074,285.2939148 
			193.1504059,285.2987976 		"/>
	</g>
	<g>
		<line fill="#3F434C" x1="193.0653992" y1="285.296814" x2="242.3417969" y2="300.0107117"/>
		
			<rect x="217.6178131" y="266.9403992" transform="matrix(0.2861098 -0.9581969 0.9581969 0.2861098 -125.0040131 417.5253296)" fill="#3F434C" width="0.1706753" height="51.4272728"/>
	</g>
	<g>
		<line fill="#3F434C" x1="193.0653992" y1="285.296814" x2="170.1376953" y2="286.3232117"/>
		
			<rect x="170.1262054" y="285.7240295" transform="matrix(0.9989721 -0.0453286 0.0453286 0.9989721 -12.7686901 8.5255051)" fill="#3F434C" width="22.9502354" height="0.1715581"/>
	</g>
	<g>
		<line fill="#3F434C" x1="193.0653992" y1="285.296814" x2="207.7792969" y2="240.4687042"/>
		<polygon fill="#3F434C" points="193.1454926,285.3232117 192.9833984,285.2695007 207.6983032,240.4414062 
			207.8603973,240.4951019 		"/>
	</g>
	<g>
		<line fill="#3F434C" x1="193.0653992" y1="285.296814" x2="159.1864929" y2="248.6815948"/>
		<polygon fill="#3F434C" points="193.0019989,285.3544922 159.1239929,248.7391968 159.25,248.6230011 193.1278992,285.2383118 		
			"/>
	</g>
	<g>
		<line fill="#3F434C" x1="423.7080078" y1="247.6542969" x2="410.0195007" y2="181.9521027"/>
		
			<rect x="416.7779846" y="181.2467041" transform="matrix(0.9789791 -0.2039609 0.2039609 0.9789791 -35.0485649 89.5392609)" fill="#3F434C" width="0.1715888" height="67.1129379"/>
	</g>
	<g>
		<line fill="#3F434C" x1="358.3476868" y1="194.9559937" x2="382.4726868" y2="181.0966949"/>
		<polygon fill="#3F434C" points="358.3897095,195.0301971 358.3046875,194.8818054 382.4296875,181.0223999 
			382.5155945,181.1708984 		"/>
	</g>
	<g>
		<line fill="#3F434C" x1="358.3476868" y1="194.9559937" x2="322.0741882" y2="239.4414062"/>
		
			<rect x="311.5106506" y="217.1131744" transform="matrix(0.6323479 -0.7746845 0.7746845 0.6323479 -43.1812973 343.4095154)" fill="#3F434C" width="57.4000893" height="0.1710379"/>
	</g>
	<g>
		<line fill="#3F434C" x1="358.3476868" y1="194.9559937" x2="410.0195007" y2="181.9521027"/>
		<polygon fill="#3F434C" points="358.3681946,195.0390015 358.3272095,194.8730011 409.9989929,181.8690948 
			410.0401001,182.0350952 		"/>
	</g>
	<g>
		<line fill="#3F434C" x1="358.3476868" y1="194.9559937" x2="352.8721008" y2="237.0458984"/>
		<polygon fill="#3F434C" points="352.9570007,237.0576019 352.7871094,237.0350952 358.2626953,194.9443054 
			358.4325867,194.9667969 		"/>
	</g>
	<g>
		<line fill="#3F434C" x1="358.3476868" y1="194.9559937" x2="296.7510071" y2="187.0848999"/>
		<polygon fill="#3F434C" points="358.3369141,195.0410004 296.7412109,187.1699066 296.7626953,187 358.3583984,194.8710938 		"/>
	</g>
	<g>
		<line fill="#3F434C" x1="299.4892883" y1="216.5146027" x2="358.3476868" y2="194.9559937"/>
		
			<rect x="297.5772705" y="205.6499176" transform="matrix(0.9391413 -0.3435311 0.3435311 0.9391413 -50.6589355 125.5144272)" fill="#3F434C" width="62.681942" height="0.1707544"/>
	</g>
	<g>
		<line fill="#3F434C" x1="299.4892883" y1="216.5146027" x2="322.0741882" y2="239.4414062"/>
		
			<rect x="310.6965332" y="211.8862" transform="matrix(0.7124109 -0.7017626 0.7017626 0.7124109 -70.6089172 283.6591492)" fill="#3F434C" width="0.1709114" height="32.1836014"/>
	</g>
	<g>
		<line fill="#3F434C" x1="299.4892883" y1="216.5146027" x2="352.8721008" y2="237.0458984"/>
		
			<rect x="326.0950928" y="198.1824799" transform="matrix(0.3589634 -0.9333516 0.9333516 0.3589634 -2.5721879 449.8158264)" fill="#3F434C" width="0.171086" height="57.196003"/>
	</g>
	<g>
		<line fill="#3F434C" x1="299.4892883" y1="216.5146027" x2="269.3760071" y2="262.0273132"/>
		<polygon fill="#3F434C" points="269.4472961,262.0741882 269.3037109,261.9794922 299.4169922,216.4667969 
			299.5606079,216.5614929 		"/>
	</g>
	<g>
		<line fill="#3F434C" x1="299.4892883" y1="216.5146027" x2="238.9199066" y2="197.3515015"/>
		
			<rect x="269.1188965" y="175.1681061" transform="matrix(0.3016414 -0.9534215 0.9534215 0.3016414 -9.2927914 401.1783752)" fill="#3F434C" width="0.170963" height="63.5289803"/>
	</g>
	<g>
		<line fill="#3F434C" x1="299.4892883" y1="216.5146027" x2="296.7510071" y2="187.0848999"/>
		<polygon fill="#3F434C" points="299.4032898,216.5223999 296.6659851,187.0926971 296.8369141,187.0771027 
			299.5741882,216.5068054 		"/>
	</g>
	<g>
		<line fill="#3F434C" x1="299.4892883" y1="216.5146027" x2="246.4483032" y2="212.75"/>
		<polygon fill="#3F434C" points="299.4833984,216.5995941 246.4423981,212.8348999 246.4541016,212.6649933 
			299.4950867,216.4286957 		"/>
	</g>
	<g>
		<line fill="#3F434C" x1="407.282196" y1="146.3632965" x2="382.4726868" y2="181.0966949"/>
		
			<rect x="373.5353394" y="163.6443329" transform="matrix(0.5836722 -0.8119894 0.8119894 0.5836722 31.4513645 388.8014221)" fill="#3F434C" width="42.6837273" height="0.1712215"/>
	</g>
	<g>
		<line fill="#3F434C" x1="407.282196" y1="146.3632965" x2="410.0195007" y2="181.9521027"/>
		<polygon fill="#3F434C" points="409.9346008,181.9589996 407.1962891,146.3701019 407.3671875,146.3563995 
			410.1044922,181.9452972 		"/>
	</g>
	<g>
		<line fill="#3F434C" x1="363.8233032" y1="304.1171875" x2="352.8721008" y2="237.0458984"/>
		<polygon fill="#3F434C" points="363.7383118,304.1307983 352.7880859,237.0605011 352.9570007,237.032196 363.907196,304.1034851 
					"/>
	</g>
	<g>
		<line fill="#3F434C" x1="404.8866882" y1="259.6318054" x2="363.8233032" y2="304.1171875"/>
		
			<rect x="354.0838928" y="281.7887878" transform="matrix(0.6782559 -0.7348258 0.7348258 0.6782559 -83.4648285 373.1250916)" fill="#3F434C" width="60.5412445" height="0.1713986"/>
	</g>
	<g>
		<line fill="#3F434C" x1="404.8866882" y1="259.6318054" x2="423.7080078" y2="247.6542969"/>
		<polygon fill="#3F434C" points="404.9325867,259.7041016 404.8407898,259.5595093 423.6621094,247.5820007 
			423.7528992,247.7265015 		"/>
	</g>
	<g>
		<line fill="#3F434C" x1="404.8866882" y1="259.6318054" x2="352.8721008" y2="237.0458984"/>
		
			<rect x="378.7937012" y="219.985672" transform="matrix(0.3982784 -0.9172646 0.9172646 0.3982784 0.1875363 496.9635315)" fill="#3F434C" width="0.1714622" height="56.706295"/>
	</g>
	<g>
		<line fill="#3F434C" x1="88.3516006" y1="321.9121094" x2="110.9365005" y2="267.1600952"/>
		
			<rect x="70.0306396" y="294.4497986" transform="matrix(0.3820422 -0.9241449 0.9241449 0.3820422 -210.6176147 274.096344)" fill="#3F434C" width="59.2273293" height="0.1716666"/>
	</g>
	<g>
		<line fill="#3F434C" x1="143.7881012" y1="333.8886108" x2="88.3516006" y2="321.9121094"/>
		<polygon fill="#3F434C" points="143.7704926,333.9725952 88.3330002,321.9950867 88.3701019,321.8280945 143.8056946,333.805603 
					"/>
	</g>
	<g>
		<line fill="#3F434C" x1="143.7881012" y1="333.8886108" x2="191.6963043" y2="338.6796875"/>
		<polygon fill="#3F434C" points="191.6875,338.7645874 143.780304,333.9746094 143.7958984,333.8037109 191.7041016,338.594696 		
			"/>
	</g>
	<g>
		<line fill="#3F434C" x1="143.7881012" y1="333.8886108" x2="191.6963043" y2="338.6796875"/>
		<polygon fill="#3F434C" points="191.6875,338.7645874 143.780304,333.9746094 143.7958984,333.8037109 191.7041016,338.594696 		
			"/>
	</g>
	<g>
		<line fill="#3F434C" x1="143.7881012" y1="333.8886108" x2="170.1376953" y2="286.3232117"/>
		<polygon fill="#3F434C" points="143.8623047,333.930603 143.7138977,333.8475952 170.0625,286.282196 170.2118988,286.3641968 		
			"/>
	</g>
	<g>
		<line fill="#3F434C" x1="12.3837996" y1="251.4188995" x2="76.0322037" y2="230.8867035"/>
		
			<rect x="10.7681255" y="241.0670929" transform="matrix(0.95156 -0.307463 0.307463 0.95156 -72.0041504 25.2736187)" fill="#3F434C" width="66.8788452" height="0.1714027"/>
	</g>
	<g>
		<line fill="#3F434C" x1="72.9522018" y1="291.7987976" x2="88.3516006" y2="321.9121094"/>
		
			<rect x="80.5662613" y="289.9442444" transform="matrix(0.8903363 -0.4553035 0.4553035 0.8903363 -130.8677673 70.3719788)" fill="#3F434C" width="0.1712248" height="33.8223419"/>
	</g>
	<g>
		<line fill="#3F434C" x1="72.9522018" y1="291.7987976" x2="110.9365005" y2="267.1600952"/>
		<polygon fill="#3F434C" points="72.9990005,291.8700867 72.9063034,291.7265015 110.8906021,267.0878906 110.9833984,267.2314148 
					"/>
	</g>
	<g>
		<line fill="#3F434C" x1="72.9522018" y1="291.7987976" x2="76.0322037" y2="230.8867035"/>
		
			<rect x="43.9980011" y="261.2569275" transform="matrix(0.051424 -0.9986769 0.9986769 0.051424 -190.3352203 322.2973633)" fill="#3F434C" width="60.9888992" height="0.1716258"/>
	</g>
	<g>
		<line fill="#3F434C" x1="54.8153992" y1="362.9755859" x2="17.1737995" y2="331.835907"/>
		<polygon fill="#3F434C" points="54.7616997,363.0419922 17.1201,331.9013062 17.2285004,331.7695007 54.8700981,362.9100952 		"/>
	</g>
	<g>
		<line fill="#3F434C" x1="54.8153992" y1="362.9755859" x2="88.3516006" y2="321.9121094"/>
		<polygon fill="#3F434C" points="54.8819008,363.0302124 54.75,362.921814 88.2861023,321.8573914 88.4179993,321.9657898 		"/>
	</g>
	<g>
		<line fill="#3F434C" x1="149.6054993" y1="372.8994141" x2="143.7881012" y2="333.8886108"/>
		
			<rect x="146.6113434" y="333.6729126" transform="matrix(0.989067 -0.1474671 0.1474671 0.989067 -50.5101433 25.4966164)" fill="#3F434C" width="0.1708487" height="39.4421616"/>
	</g>
	<g>
		<line fill="#3F434C" x1="149.6054993" y1="372.8994141" x2="148.9208984" y2="329.0986023"/>
		<polygon fill="#3F434C" points="149.5204926,372.9013062 148.8350067,329.0996094 149.006897,329.0967102 149.6903992,372.898407 
					"/>
	</g>
	<g>
		<line fill="#3F434C" x1="149.6054993" y1="372.8994141" x2="191.6963043" y2="338.6796875"/>
		<polygon fill="#3F434C" points="149.6591949,372.9657898 149.5518036,372.8330078 191.6416016,338.6133118 191.75,338.7460938 		
			"/>
	</g>
	<g>
		<line fill="#3F434C" x1="149.6054993" y1="372.8994141" x2="191.6963043" y2="338.6796875"/>
		<polygon fill="#3F434C" points="149.6591949,372.9657898 149.5518036,372.8330078 191.6416016,338.6133118 191.75,338.7460938 		
			"/>
	</g>
	<g>
		<line fill="#3F434C" x1="260.1358032" y1="350.9989929" x2="294.0137024" y2="314.3837891"/>
		<polygon fill="#3F434C" points="260.1983032,351.0566101 260.0733032,350.9403992 293.9512024,314.3251953 
			294.0772095,314.4414062 		"/>
	</g>
	<g>
		<line fill="#3F434C" x1="260.1358032" y1="350.9989929" x2="242.3417969" y2="300.0107117"/>
		<polygon fill="#3F434C" points="260.0556946,351.0273132 242.2608032,300.0390015 242.4228973,299.9833984 
			260.2167969,350.9707031 		"/>
	</g>
	<g>
		<line fill="#3F434C" x1="244.0527954" y1="282.2167969" x2="193.0653992" y2="285.296814"/>
		<polygon fill="#3F434C" points="193.069397,285.3818054 193.0596008,285.210907 244.0478973,282.1307983 244.0576019,282.3027039 
					"/>
	</g>
	<g>
		<line fill="#3F434C" x1="244.0527954" y1="282.2167969" x2="269.3760071" y2="262.0273132"/>
		<polygon fill="#3F434C" points="244.1065063,282.2832031 243.9989929,282.1503906 269.3222961,261.9598999 
			269.4287109,262.093689 		"/>
	</g>
	<g>
		<line fill="#3F434C" x1="244.0527954" y1="282.2167969" x2="294.0137024" y2="314.3837891"/>
		<polygon fill="#3F434C" points="293.967804,314.4549866 244.006897,282.2890015 244.0986023,282.1445007 294.0606079,314.3114929 
					"/>
	</g>
	<g>
		<line fill="#3F434C" x1="244.0527954" y1="282.2167969" x2="242.3417969" y2="300.0107117"/>
		<polygon fill="#3F434C" points="242.4268036,300.0195007 242.256897,300.0028992 243.967804,282.2090149 244.1376953,282.2246094 
					"/>
	</g>
	<g>
		<line fill="#3F434C" x1="244.0527954" y1="282.2167969" x2="207.7792969" y2="240.4687042"/>
		<polygon fill="#3F434C" points="243.9882965,282.2723999 207.7149048,240.5243988 207.8437958,240.4120941 
			244.1172028,282.1600952 		"/>
	</g>
	<g>
		<line fill="#3F434C" x1="187.5899048" y1="222.6737976" x2="193.0653992" y2="285.296814"/>
		
			<rect x="190.2418823" y="222.5548706" transform="matrix(0.9962004 -0.0870906 0.0870906 0.9962004 -21.3965759 17.5407581)" fill="#3F434C" width="0.1705305" height="62.8608971"/>
	</g>
	<g>
		<line fill="#3F434C" x1="187.5899048" y1="222.6737976" x2="170.1376953" y2="286.3232117"/>
		<polygon fill="#3F434C" points="170.219696,286.3457031 170.0547028,286.3008118 187.506897,222.6513062 187.6728973,222.6963043 
					"/>
	</g>
	<g>
		<line fill="#3F434C" x1="187.5899048" y1="222.6737976" x2="185.8789062" y2="187.4277039"/>
		<polygon fill="#3F434C" points="187.5039062,222.6777039 185.7929993,187.4315948 185.9638977,187.4237976 
			187.6748047,222.6699066 		"/>
	</g>
	<g>
		<line fill="#3F434C" x1="187.5899048" y1="222.6737976" x2="238.9199066" y2="197.3515015"/>
		
			<rect x="184.6366272" y="209.926651" transform="matrix(0.8967413 -0.4425552 0.4425552 0.8967413 -70.9216614 116.0626831)" fill="#3F434C" width="57.2365341" height="0.1715527"/>
	</g>
	<g>
		<line fill="#3F434C" x1="187.5899048" y1="222.6737976" x2="246.4483032" y2="212.75"/>
		
			<rect x="187.1744843" y="217.6266785" transform="matrix(0.9851299 -0.1718113 0.1718113 0.9851299 -34.1782761 40.5236931)" fill="#3F434C" width="59.6886444" height="0.1704514"/>
	</g>
	<g>
		<line fill="#3F434C" x1="187.5899048" y1="222.6737976" x2="207.7792969" y2="240.4687042"/>
		<polygon fill="#3F434C" points="207.7236023,240.532196 187.5332031,222.7382965 187.6454926,222.6092987 
			207.8359985,240.4042969 		"/>
	</g>
	<g>
		<line fill="#3F434C" x1="187.5899048" y1="222.6737976" x2="159.1864929" y2="248.6815948"/>
		
			<rect x="154.1333313" y="235.5918884" transform="matrix(0.7380288 -0.6747692 0.6747692 0.7380288 -113.6050491 178.7380371)" fill="#3F434C" width="38.5106888" height="0.1711283"/>
	</g>
	<g>
		<line fill="#3F434C" x1="187.5899048" y1="222.6737976" x2="125.6513977" y2="204.8798981"/>
		<polygon fill="#3F434C" points="187.5653992,222.7557983 125.6278992,204.9618988 125.6747971,204.7978058 
			187.6132965,222.5917969 		"/>
	</g>
	<g>
		<line fill="#3F434C" x1="187.5899048" y1="222.6737976" x2="125.6513977" y2="204.8798981"/>
		<polygon fill="#3F434C" points="187.5653992,222.7557983 125.6278992,204.9618988 125.6747971,204.7978058 
			187.6132965,222.5917969 		"/>
	</g>
	<g>
		<line fill="#3F434C" x1="137.6278992" y1="267.5018921" x2="146.1835938" y2="263.7383118"/>
		<polygon fill="#3F434C" points="137.6631012,267.5799866 137.5937958,267.4237976 146.1493988,263.6600952 
			146.217804,263.8164062 		"/>
	</g>
	<g>
		<line fill="#3F434C" x1="137.6278992" y1="267.5018921" x2="143.7881012" y2="333.8886108"/>
		<polygon fill="#3F434C" points="143.7030945,333.8973999 137.5429993,267.5097046 137.7138977,267.4941101 
			143.8730927,333.8807983 		"/>
	</g>
	<g>
		<line fill="#3F434C" x1="137.6278992" y1="267.5018921" x2="148.9208984" y2="329.0986023"/>
		<polygon fill="#3F434C" points="148.8368988,329.1133118 137.5440063,267.5174866 137.7129059,267.4862976 
			149.0048981,329.0830078 		"/>
	</g>
	<g>
		<line fill="#3F434C" x1="137.6278992" y1="267.5018921" x2="193.0653992" y2="285.296814"/>
		<polygon fill="#3F434C" points="193.039093,285.3778992 137.6026001,267.5840149 137.6542969,267.4208984 
			193.0908051,285.2148132 		"/>
	</g>
	<g>
		<line fill="#3F434C" x1="137.6278992" y1="267.5018921" x2="170.1376953" y2="286.3232117"/>
		
			<rect x="153.7974548" y="258.1302795" transform="matrix(0.5010457 -0.8654208 0.8654208 0.5010457 -162.8652649 271.340332)" fill="#3F434C" width="0.171244" height="37.5645142"/>
	</g>
	<g>
		<line fill="#3F434C" x1="137.6278992" y1="267.5018921" x2="110.9365005" y2="267.1600952"/>
		<polygon fill="#3F434C" points="137.6278992,267.5878906 110.9365005,267.2450867 110.9384995,267.0741882 
			137.6298981,267.4169922 		"/>
	</g>
	<g>
		<line fill="#3F434C" x1="137.6278992" y1="267.5018921" x2="159.1864929" y2="248.6815948"/>
		<polygon fill="#3F434C" points="137.6846008,267.5664062 137.5722961,267.4375 159.1309052,248.6161957 159.2431946,248.7460938 
					"/>
	</g>
	<g>
		<line fill="#3F434C" x1="137.6278992" y1="267.5018921" x2="125.6513977" y2="204.8798981"/>
		
			<rect x="131.5541687" y="204.3119202" transform="matrix(0.9821987 -0.1878447 0.1878447 0.9821987 -42.0238647 28.9323177)" fill="#3F434C" width="0.1710089" height="63.7579651"/>
	</g>
	<g>
		<line fill="#3F434C" x1="137.6278992" y1="267.5018921" x2="125.6513977" y2="204.8798981"/>
		
			<rect x="131.5541687" y="204.3119202" transform="matrix(0.9821987 -0.1878447 0.1878447 0.9821987 -42.0238647 28.9323177)" fill="#3F434C" width="0.1710089" height="63.7579651"/>
	</g>
	<g>
		<line fill="#3F434C" x1="55.8428001" y1="268.5282898" x2="72.9522018" y2="291.7987976"/>
		<polygon fill="#3F434C" points="72.8837967,291.8496094 55.7743988,268.5791016 55.9110985,268.4775085 73.0214996,291.7479858 		
			"/>
	</g>
	<g>
		<line fill="#3F434C" x1="55.8428001" y1="268.5282898" x2="12.3837996" y2="251.4188995"/>
		
			<rect x="34.0274429" y="236.6204071" transform="matrix(0.3663361 -0.9304826 0.9304826 0.3663361 -220.2846985 196.4774933)" fill="#3F434C" width="0.1712129" height="46.7063713"/>
	</g>
	<g>
		<line fill="#3F434C" x1="55.8428001" y1="268.5282898" x2="88.3516006" y2="321.9121094"/>
		<polygon fill="#3F434C" points="88.2782974,321.9559937 55.7695007,268.5732117 55.9160004,268.484314 88.4247971,321.8671875 		
			"/>
	</g>
	<g>
		<line fill="#3F434C" x1="55.8428001" y1="268.5282898" x2="110.9365005" y2="267.1600952"/>
		<polygon fill="#3F434C" points="55.8446999,268.6141968 55.8408012,268.4432983 110.9346008,267.0741882 110.9384995,267.2450867 
					"/>
	</g>
	<g>
		<line fill="#3F434C" x1="55.8428001" y1="268.5282898" x2="76.0322037" y2="230.8867035"/>
		<polygon fill="#3F434C" points="55.9179993,268.5693054 55.7666016,268.4883118 75.9570007,230.8466949 76.1083984,230.9266968 		
			"/>
	</g>
	<g>
		<line fill="#3F434C" x1="114.7012024" y1="304.8016968" x2="137.6278992" y2="267.5018921"/>
		
			<rect x="104.2733612" y="286.0661011" transform="matrix(0.5230258 -0.8523169 0.8523169 0.5230258 -183.7146606 244.0194092)" fill="#3F434C" width="43.7828712" height="0.1714324"/>
	</g>
	<g>
		<line fill="#3F434C" x1="114.7012024" y1="304.8016968" x2="146.1835938" y2="263.7383118"/>
		<polygon fill="#3F434C" points="114.7686005,304.8544922 114.6337967,304.75 146.1161957,263.6854858 146.2510071,263.7900085 		
			"/>
	</g>
	<g>
		<line fill="#3F434C" x1="114.7012024" y1="304.8016968" x2="72.9522018" y2="291.7987976"/>
		
			<rect x="93.7412872" y="276.436615" transform="matrix(0.297386 -0.9547573 0.9547573 0.297386 -218.8804474 299.1716919)" fill="#3F434C" width="0.1708281" height="43.7273407"/>
	</g>
	<g>
		<line fill="#3F434C" x1="114.7012024" y1="304.8016968" x2="143.7881012" y2="333.8886108"/>
		
			<rect x="129.1590118" y="298.7776489" transform="matrix(0.7071056 -0.707108 0.707108 0.7071056 -187.9565125 184.9243469)" fill="#3F434C" width="0.1712259" height="41.1351242"/>
	</g>
	<g>
		<line fill="#3F434C" x1="114.7012024" y1="304.8016968" x2="149.0498047" y2="329.0986023"/>
		
			<rect x="131.7896576" y="295.9139709" transform="matrix(0.5774734 -0.8164095 0.8164095 0.5774734 -203.0403137 241.5840759)" fill="#3F434C" width="0.1711991" height="42.0723495"/>
	</g>
	<g>
		<line fill="#3F434C" x1="114.7012024" y1="304.8016968" x2="88.3516006" y2="321.9121094"/>
		<polygon fill="#3F434C" points="88.3974991,321.9833984 88.3057022,321.8398132 114.6552963,304.7304077 114.7471008,304.8739929 
					"/>
	</g>
	<g>
		<line fill="#3F434C" x1="114.7012024" y1="304.8016968" x2="170.1376953" y2="286.3232117"/>
		<polygon fill="#3F434C" points="114.7276001,304.8828125 114.6737976,304.7207031 170.1103973,286.2421875 
			170.1651001,286.4042969 		"/>
	</g>
	<g>
		<line fill="#3F434C" x1="114.7012024" y1="304.8016968" x2="110.9365005" y2="267.1600952"/>
		<polygon fill="#3F434C" points="114.6162033,304.8104858 110.8516006,267.1679077 111.0224991,267.1513062 
			114.7861023,304.7939148 		"/>
	</g>
	<g>
		<line fill="#3F434C" x1="311.8075867" y1="265.7909851" x2="363.8233032" y2="304.1171875"/>
		
			<rect x="337.7299194" y="252.649292" transform="matrix(0.5931882 -0.8050638 0.8050638 0.5931882 -91.9792862 387.8858948)" fill="#3F434C" width="0.1710659" height="64.610527"/>
	</g>
	<g>
		<line fill="#3F434C" x1="311.8075867" y1="265.7909851" x2="299.4892883" y2="216.5146027"/>
		<polygon fill="#3F434C" points="311.7255859,265.8114929 299.406311,216.5350952 299.5712891,216.4940948 
			311.8916016,265.7705078 		"/>
	</g>
	<g>
		<line fill="#3F434C" x1="311.8075867" y1="265.7909851" x2="322.0741882" y2="239.4414062"/>
		<polygon fill="#3F434C" points="311.8876953,265.8222046 311.7284851,265.7597046 321.9942017,239.4111023 
			322.1542969,239.4725952 		"/>
	</g>
	<g>
		<line fill="#3F434C" x1="311.8075867" y1="265.7909851" x2="352.8721008" y2="237.0458984"/>
		
			<rect x="307.2776489" y="251.3331451" transform="matrix(0.8187392 -0.5741656 0.5741656 0.8187392 -84.1157227 236.3906097)" fill="#3F434C" width="50.1249123" height="0.1710721"/>
	</g>
	<g>
		<line fill="#3F434C" x1="311.8075867" y1="265.7909851" x2="269.3760071" y2="262.0273132"/>
		<polygon fill="#3F434C" points="311.8008118,265.875885 269.3681946,262.1123047 269.3837891,261.9414062 
			311.8153992,265.7059937 		"/>
	</g>
	<g>
		<line fill="#3F434C" x1="311.8075867" y1="265.7909851" x2="294.0137024" y2="314.3837891"/>
		<polygon fill="#3F434C" points="294.094696,314.4130859 293.9335938,314.3544922 311.7276001,265.7616882 
			311.8887024,265.8203125 		"/>
	</g>
</g>
<g>
	<g>
		<line fill="#3F434C" x1="682.772522" y1="262.8924866" x2="757.2354126" y2="223.8632965"/>
		<polygon fill="#3F434C" points="757.1748047,223.7489929 757.2940063,223.9774933 682.8311157,263.0057983 
			682.7119141,262.7792969 		"/>
	</g>
	<g>
		<line fill="#3F434C" x1="682.772522" y1="262.8924866" x2="757.2354126" y2="223.8632965"/>
		<polygon fill="#3F434C" points="757.1748047,223.7489929 757.2940063,223.9774933 682.8311157,263.0057983 
			682.7119141,262.7792969 		"/>
	</g>
	<g>
		<line fill="#3F434C" x1="632.444397" y1="197.1591949" x2="682.772522" y2="262.8924866"/>
		<polygon fill="#3F434C" points="632.5458984,197.0809937 682.8740234,262.8143921 682.6690063,262.9707031 
			632.3427734,197.2373047 		"/>
	</g>
	<g>
		<line fill="#3F434C" x1="632.444397" y1="197.1591949" x2="682.772522" y2="262.8924866"/>
		<polygon fill="#3F434C" points="632.5458984,197.0809937 682.8740234,262.8143921 682.6690063,262.9707031 
			632.3427734,197.2373047 		"/>
	</g>
	<g>
		<line fill="#3F434C" x1="704.8535156" y1="169.4277039" x2="632.444397" y2="197.1591949"/>
		
			<rect x="629.8800049" y="183.1646576" transform="matrix(0.9341052 -0.3569978 0.3569978 0.9341052 -21.3748817 250.7842407)" fill="#3F434C" width="77.5378494" height="0.2575333"/>
	</g>
	<g>
		<line fill="#3F434C" x1="704.8535156" y1="169.4277039" x2="682.772522" y2="262.8924866"/>
		<polygon fill="#3F434C" points="704.7294922,169.398407 704.9794922,169.4570007 682.8955078,262.9227905 682.647522,262.8633118 
					"/>
	</g>
	<g>
		<line fill="#3F434C" x1="704.8535156" y1="169.4277039" x2="682.772522" y2="262.8924866"/>
		<polygon fill="#3F434C" points="704.7294922,169.398407 704.9794922,169.4570007 682.8955078,262.9227905 682.647522,262.8633118 
					"/>
	</g>
	<g>
		<line fill="#3F434C" x1="704.8535156" y1="169.4277039" x2="757.2354126" y2="223.8632965"/>
		
			<rect x="730.9160156" y="158.8731537" transform="matrix(0.7205689 -0.6933834 0.6933834 0.7205689 67.9258957 561.8429565)" fill="#3F434C" width="0.2568907" height="75.5445786"/>
	</g>
	<g>
		<line fill="#3F434C" x1="559.522522" y1="209.4842987" x2="632.444397" y2="197.1591949"/>
		<polygon fill="#3F434C" points="632.4229126,197.0332031 632.4658203,197.2850952 559.5430298,209.6103058 
			559.4990234,209.3583984 		"/>
	</g>
	<g>
		<line fill="#3F434C" x1="501.4912109" y1="251.0809937" x2="559.522522" y2="209.4842987"/>
		
			<rect x="494.8066101" y="230.1540527" transform="matrix(0.8115491 -0.5842842 0.5842842 0.8115491 -34.5760307 353.3633118)" fill="#3F434C" width="71.3989716" height="0.2567517"/>
	</g>
	<g>
		<line fill="#3F434C" x1="426.0010071" y1="289.5967102" x2="501.4912109" y2="251.0809937"/>
		<polygon fill="#3F434C" points="501.4325867,250.9667969 501.5498047,251.1952972 426.0575867,289.710907 
			425.9424133,289.4823914 		"/>
	</g>
	<g>
		<line fill="#3F434C" x1="512.7880859" y1="274.1903992" x2="426.0010071" y2="289.5967102"/>
		
			<rect x="425.3216858" y="281.765564" transform="matrix(0.9846146 -0.1747399 0.1747399 0.9846146 -42.0362816 86.3590012)" fill="#3F434C" width="88.1457214" height="0.2564118"/>
	</g>
	<g>
		<line fill="#3F434C" x1="512.7880859" y1="274.1903992" x2="501.4912109" y2="251.0809937"/>
		<polygon fill="#3F434C" points="501.6065063,251.0243988 512.9052734,274.1347046 512.6729126,274.2470093 
			501.3760071,251.1376953 		"/>
	</g>
	<g>
		<line fill="#3F434C" x1="512.7880859" y1="274.1903992" x2="559.522522" y2="209.4842987"/>
		<polygon fill="#3F434C" points="559.4169922,209.4091949 559.6259766,209.559494 512.8936157,274.2655945 
			512.6845703,274.1152039 		"/>
	</g>
	<g>
		<line fill="#3F434C" x1="592.3876953" y1="289.0830078" x2="512.7880859" y2="274.1903992"/>
		<polygon fill="#3F434C" points="512.8134766,274.0643921 592.4110718,288.9570007 592.3643188,289.2098999 
			512.7647095,274.3174133 		"/>
	</g>
	<g>
		<line fill="#3F434C" x1="592.3876953" y1="289.0830078" x2="501.4912109" y2="251.0809937"/>
		<polygon fill="#3F434C" points="501.5401001,250.9629059 592.4375,288.9648132 592.3389282,289.2020874 501.4403992,251.1992035 
					"/>
	</g>
	<g>
		<line fill="#3F434C" x1="592.3876953" y1="289.0830078" x2="559.522522" y2="209.4842987"/>
		<polygon fill="#3F434C" points="559.6397095,209.434494 592.506897,289.0342102 592.2686157,289.1318054 559.4033203,209.5332031 
					"/>
	</g>
	<g>
		<line fill="#3F434C" x1="592.3876953" y1="289.0830078" x2="632.444397" y2="197.1591949"/>
		<polygon fill="#3F434C" points="632.3272095,197.1083984 632.5625,197.2098999 592.5048828,289.1347046 592.2705078,289.032196 		
			"/>
	</g>
	<g>
		<line fill="#3F434C" x1="592.3876953" y1="289.0830078" x2="682.772522" y2="262.8924866"/>
		<polygon fill="#3F434C" points="682.7354126,262.7695007 682.8076172,263.0155945 592.4229126,289.2070007 
			592.3526001,288.9598999 		"/>
	</g>
	<g>
		<line fill="#3F434C" x1="592.3876953" y1="289.0830078" x2="682.772522" y2="262.8924866"/>
		<polygon fill="#3F434C" points="682.7354126,262.7695007 682.8076172,263.0155945 592.4229126,289.2070007 
			592.3526001,288.9598999 		"/>
	</g>
	<g>
		<line fill="#3F434C" x1="616.0108032" y1="140.6699066" x2="559.522522" y2="209.4842987"/>
		<polygon fill="#3F434C" points="615.9110718,140.5888062 616.1104126,140.75 559.6201172,209.5653992 559.421875,209.402298 		"/>
	</g>
	<g>
		<line fill="#3F434C" x1="616.0108032" y1="140.6699066" x2="704.8535156" y2="169.4277039"/>
		<polygon fill="#3F434C" points="616.0498047,140.5478058 704.8936157,169.305603 704.8134766,169.5507965 
			615.9716797,140.7920074 		"/>
	</g>
	<g>
		<line fill="#3F434C" x1="616.0108032" y1="140.6699066" x2="632.444397" y2="197.1591949"/>
		<polygon fill="#3F434C" points="616.1337891,140.6327972 632.5673828,197.1230011 632.3212891,197.1952972 
			615.8876953,140.7059937 		"/>
	</g>
	<g>
		<line fill="#3F434C" x1="583.6572266" y1="62.097599" x2="507.6532898" y2="120.1278992"/>
		<polygon fill="#3F434C" points="583.5791016,61.9950981 583.7354126,62.1991997 507.7315063,120.2294998 507.5751953,120.0262985 
					"/>
	</g>
	<g>
		<line fill="#3F434C" x1="583.6572266" y1="62.097599" x2="616.0108032" y2="140.6699066"/>
		<polygon fill="#3F434C" points="583.7764282,62.0488014 616.1298828,140.6210938 615.8916016,140.7176971 583.5380859,62.1464996 
					"/>
	</g>
	<g>
		<line fill="#3F434C" x1="583.6572266" y1="62.097599" x2="507.6532898" y2="120.1278992"/>
		<polygon fill="#3F434C" points="583.5791016,61.9950981 583.7354126,62.1991997 507.7315063,120.2294998 507.5751953,120.0262985 
					"/>
	</g>
	<g>
		<line fill="#3F434C" x1="583.6572266" y1="62.097599" x2="616.0108032" y2="140.6699066"/>
		<polygon fill="#3F434C" points="583.7764282,62.0488014 616.1298828,140.6210938 615.8916016,140.7176971 583.5380859,62.1464996 
					"/>
	</g>
	<g>
		<line fill="#3F434C" x1="430.1083984" y1="98.5595016" x2="507.6532898" y2="120.1278992"/>
		<polygon fill="#3F434C" points="430.1435852,98.4355011 507.6885071,120.0038986 507.6181946,120.2518997 430.0733032,98.6826019 
					"/>
	</g>
	<g>
		<line fill="#3F434C" x1="467.0830078" y1="177.1307983" x2="430.1083984" y2="98.5595016"/>
		
			<rect x="448.4681702" y="94.4264908" transform="matrix(0.9048212 -0.4257918 0.4257918 0.9048212 -15.9963264 204.1287231)" fill="#3F434C" width="0.2570544" height="86.8368607"/>
	</g>
	<g>
		<line fill="#3F434C" x1="467.0830078" y1="177.1307983" x2="507.6532898" y2="120.1278992"/>
		<polygon fill="#3F434C" points="507.5479126,120.0537033 507.7587891,120.2021027 467.1885071,177.2050018 
			466.9794922,177.0565948 		"/>
	</g>
	<g>
		<line fill="#3F434C" x1="467.0830078" y1="177.1307983" x2="501.4912109" y2="251.0809937"/>
		
			<rect x="484.1592712" y="173.3244781" transform="matrix(0.906666 -0.4218493 0.4218493 0.906666 -45.1198006 224.2797089)" fill="#3F434C" width="0.2566499" height="81.5623322"/>
	</g>
	<g>
		<line fill="#3F434C" x1="467.0830078" y1="177.1307983" x2="559.522522" y2="209.4842987"/>
		<polygon fill="#3F434C" points="467.1260071,177.0097046 559.5634766,209.3632965 559.4794922,209.6053925 
			467.0419922,177.2528992 		"/>
	</g>
	<g>
		<line fill="#3F434C" x1="581.6035156" y1="142.2098999" x2="583.6572266" y2="62.097599"/>
		<polygon fill="#3F434C" points="583.5292969,62.0946999 583.7860718,62.1006012 581.7315063,142.2138062 581.4755859,142.2059937 
					"/>
	</g>
	<g>
		<line fill="#3F434C" x1="581.6035156" y1="142.2098999" x2="583.6572266" y2="62.097599"/>
		<polygon fill="#3F434C" points="583.5292969,62.0946999 583.7860718,62.1006012 581.7315063,142.2138062 581.4755859,142.2059937 
					"/>
	</g>
	<g>
		<line fill="#3F434C" x1="581.6035156" y1="142.2098999" x2="507.6532898" y2="120.1278992"/>
		<polygon fill="#3F434C" points="507.6903992,120.0048981 581.6397095,142.0868988 581.5673828,142.3329926 
			507.6162109,120.2509003 		"/>
	</g>
	<g>
		<line fill="#3F434C" x1="581.6035156" y1="142.2098999" x2="616.0108032" y2="140.6699066"/>
		
			<rect x="581.586792" y="141.3113708" transform="matrix(0.9989637 -0.0455135 0.0455135 0.9989637 -5.8168888 27.4004116)" fill="#3F434C" width="34.4412231" height="0.2565971"/>
	</g>
	<g>
		<line fill="#3F434C" x1="581.6035156" y1="142.2098999" x2="559.522522" y2="209.4842987"/>
		
			<rect x="535.1598511" y="175.718338" transform="matrix(0.3117869 -0.950152 0.950152 0.3117869 225.5873108 663.1412964)" fill="#3F434C" width="70.8053284" height="0.2571105"/>
	</g>
	<g>
		<line fill="#3F434C" x1="581.6035156" y1="142.2098999" x2="632.444397" y2="197.1591949"/>
		<polygon fill="#3F434C" points="581.6983032,142.1230011 632.5391235,197.0713043 632.3505859,197.2460938 
			581.5087891,142.2967987 		"/>
	</g>
	<g>
		<line fill="#3F434C" x1="235.476593" y1="198.7001953" x2="256.0185852" y2="297.2998047"/>
		
			<rect x="245.6183777" y="197.6416931" transform="matrix(0.9789816 -0.2039487 0.2039487 0.9789816 -45.4140511 55.3323708)" fill="#3F434C" width="0.2574515" height="100.7164993"/>
	</g>
	<g>
		<line fill="#3F434C" x1="333.5625" y1="277.7850952" x2="297.3583984" y2="298.5830078"/>
		<polygon fill="#3F434C" points="333.4989929,277.6737976 333.6278992,277.8965149 297.4229126,298.6943054 
			297.2940063,298.4717102 		"/>
	</g>
	<g>
		<line fill="#3F434C" x1="333.5625" y1="277.7850952" x2="387.9989929" y2="211.0254059"/>
		
			<rect x="317.7110596" y="244.2764282" transform="matrix(0.6335127 -0.7737322 0.7737322 0.6335127 -56.8822975 368.7194214)" fill="#3F434C" width="86.140358" height="0.2571372"/>
	</g>
	<g>
		<line fill="#3F434C" x1="333.5625" y1="277.7850952" x2="256.0185852" y2="297.2998047"/>
		
			<rect x="254.8097076" y="287.4145813" transform="matrix(0.9699129 -0.243452 0.243452 0.9699129 -61.133461 80.4187851)" fill="#3F434C" width="79.9625854" height="0.2562392"/>
	</g>
	<g>
		<line fill="#3F434C" x1="333.5625" y1="277.7850952" x2="341.780304" y2="214.6201019"/>
		
			<rect x="305.8222656" y="246.0736542" transform="matrix(0.1253764 -0.9921092 0.9921092 0.1253764 51.0755157 550.3410645)" fill="#3F434C" width="63.6977577" height="0.257386"/>
	</g>
	<g>
		<line fill="#3F434C" x1="333.5625" y1="277.7850952" x2="426.0010071" y2="289.5967102"/>
		<polygon fill="#3F434C" points="333.5791016,277.6582031 426.0166016,289.468689 425.9844055,289.7246094 
			333.5458984,277.9130859 		"/>
	</g>
	<g>
		<line fill="#3F434C" x1="421.8916016" y1="245.4315948" x2="333.5625" y2="277.7850952"/>
		
			<rect x="330.6932373" y="261.4804688" transform="matrix(0.9395543 -0.3423998 0.3423998 0.9395543 -66.7427444 145.1469269)" fill="#3F434C" width="94.0686188" height="0.2562478"/>
	</g>
	<g>
		<line fill="#3F434C" x1="421.8916016" y1="245.4315948" x2="387.9989929" y2="211.0254059"/>
		<polygon fill="#3F434C" points="388.0888977,210.934494 421.9833984,245.3417969 421.8017883,245.5223999 387.907196,211.1152039 
					"/>
	</g>
	<g>
		<line fill="#3F434C" x1="421.8916016" y1="245.4315948" x2="341.780304" y2="214.6201019"/>
		
			<rect x="381.7073669" y="187.1086273" transform="matrix(0.3589658 -0.9333507 0.9333507 0.3589658 30.0751095 503.8412781)" fill="#3F434C" width="0.2571447" height="85.8344421"/>
	</g>
	<g>
		<line fill="#3F434C" x1="421.8916016" y1="245.4315948" x2="467.0830078" y2="177.1307983"/>
		<polygon fill="#3F434C" points="466.9755859,177.0605011 467.1914062,177.2021027 421.9989929,245.5028992 
			421.7842102,245.3612976 		"/>
	</g>
	<g>
		<line fill="#3F434C" x1="421.8916016" y1="245.4315948" x2="512.7880859" y2="274.1903992"/>
		<polygon fill="#3F434C" points="421.9306946,245.309494 512.8272095,274.0682983 512.7509766,274.3125 421.8544922,245.5547028 		
			"/>
	</g>
	<g>
		<line fill="#3F434C" x1="421.8916016" y1="245.4315948" x2="426.0010071" y2="289.5967102"/>
		<polygon fill="#3F434C" points="422.0205078,245.4199066 426.1278992,289.5848999 425.8721008,289.6083984 
			421.7647095,245.4432983 		"/>
	</g>
	<g>
		<line fill="#3F434C" x1="421.8916016" y1="245.4315948" x2="501.4912109" y2="251.0809937"/>
		<polygon fill="#3F434C" points="421.9013977,245.3036957 501.5010071,250.9530945 501.4815063,251.2089996 
			421.8837891,245.5605011 		"/>
	</g>
	<g>
		<line fill="#3F434C" x1="260.1260071" y1="350.7080078" x2="297.3583984" y2="298.5830078"/>
		<polygon fill="#3F434C" points="297.2539062,298.5087891 297.4619141,298.6582031 260.2315063,350.7832031 
			260.0224915,350.6328125 		"/>
	</g>
	<g>
		<line fill="#3F434C" x1="260.1260071" y1="350.7080078" x2="256.0185852" y2="297.2998047"/>
		
			<rect x="257.9439697" y="297.2208252" transform="matrix(0.997053 -0.0767165 0.0767165 0.997053 -24.0959034 20.7532539)" fill="#3F434C" width="0.256631" height="53.566555"/>
	</g>
	<g>
		<line fill="#3F434C" x1="325.3467102" y1="113.9657974" x2="341.780304" y2="214.6201019"/>
		<polygon fill="#3F434C" points="325.4736023,113.9452972 341.907196,214.5986023 341.6524048,214.6405945 325.219696,113.9862976 
					"/>
	</g>
	<g>
		<line fill="#3F434C" x1="263.7217102" y1="180.7256012" x2="325.3467102" y2="113.9657974"/>
		
			<rect x="249.1064911" y="147.2171326" transform="matrix(0.6782156 -0.7348629 0.7348629 0.6782156 -13.5025282 263.8554077)" fill="#3F434C" width="90.8543625" height="0.2570386"/>
	</g>
	<g>
		<line fill="#3F434C" x1="263.7217102" y1="180.7256012" x2="235.476593" y2="198.7001953"/>
		<polygon fill="#3F434C" points="263.6513977,180.6172028 263.7901001,180.8339996 235.5440063,198.8085938 
			235.407196,198.5917969 		"/>
	</g>
	<g>
		<line fill="#3F434C" x1="263.7217102" y1="180.7256012" x2="341.780304" y2="214.6201019"/>
		<polygon fill="#3F434C" points="263.7724915,180.6074066 341.8310852,214.5019073 341.7284851,214.7373047 
			263.6690063,180.8437042 		"/>
	</g>
	<g>
		<line fill="#3F434C" x1="738.7470703" y1="87.2617035" x2="704.8535156" y2="169.4277039"/>
		<polygon fill="#3F434C" points="738.6289062,87.2118988 738.8662109,87.3105011 704.9735718,169.4774933 704.7354126,169.3789062 
					"/>
	</g>
	<g>
		<line fill="#3F434C" x1="655.5537109" y1="69.2871017" x2="738.7470703" y2="87.2617035"/>
		<polygon fill="#3F434C" points="655.5811157,69.1621017 738.7744141,87.1356964 738.7207031,87.3867035 655.5264282,69.4121017 		
			"/>
	</g>
	<g>
		<line fill="#3F434C" x1="655.5537109" y1="69.2871017" x2="583.6572266" y2="62.097599"/>
		
			<rect x="619.477417" y="29.5653381" transform="matrix(0.0995044 -0.9950371 0.9950371 0.0995044 492.5860901 675.6866455)" fill="#3F434C" width="0.2570128" height="72.2540741"/>
	</g>
	<g>
		<line fill="#3F434C" x1="655.5537109" y1="69.2871017" x2="583.6572266" y2="62.097599"/>
		
			<rect x="619.477417" y="29.5653381" transform="matrix(0.0995044 -0.9950371 0.9950371 0.0995044 492.5860901 675.6866455)" fill="#3F434C" width="0.2570128" height="72.2540741"/>
	</g>
	<g>
		<line fill="#3F434C" x1="655.5537109" y1="69.2871017" x2="616.0108032" y2="140.6699066"/>
		<polygon fill="#3F434C" points="655.4423828,69.2246017 655.6651001,69.3496017 616.1240234,140.7313995 615.8994141,140.6074066 
					"/>
	</g>
	<g>
		<line fill="#3F434C" x1="852.7539062" y1="193.0507965" x2="757.2354126" y2="223.8632965"/>
		<polygon fill="#3F434C" points="852.7139282,192.9286957 852.7940063,193.1728058 757.2744141,223.9853058 
			757.1962891,223.7402039 		"/>
	</g>
	<g>
		<line fill="#3F434C" x1="761.8565063" y1="132.4521027" x2="738.7470703" y2="87.2617035"/>
		<polygon fill="#3F434C" points="738.8623047,87.2031021 761.9716797,132.3934937 761.7432251,132.5106964 738.6337891,87.3202972 
					"/>
	</g>
	<g>
		<line fill="#3F434C" x1="761.8565063" y1="132.4521027" x2="704.8535156" y2="169.4277039"/>
		<polygon fill="#3F434C" points="761.7880859,132.344696 761.9268188,132.5605011 704.9229126,169.5361023 
			704.7841797,169.3202972 		"/>
	</g>
	<g>
		<line fill="#3F434C" x1="761.8565063" y1="132.4521027" x2="757.2354126" y2="223.8632965"/>
		
			<rect x="713.7827148" y="178.0293579" transform="matrix(0.0495678 -0.9987708 0.9987708 0.0495678 543.9584351 927.9398193)" fill="#3F434C" width="91.5273819" height="0.2571894"/>
	</g>
	<g>
		<line fill="#3F434C" x1="789.0751953" y1="25.6366997" x2="845.5654297" y2="72.368103"/>
		
			<rect x="817.1915894" y="12.3447828" transform="matrix(0.6374278 -0.7705101 0.7705101 0.6374278 258.580719 647.5198364)" fill="#3F434C" width="0.2559776" height="73.3147354"/>
	</g>
	<g>
		<line fill="#3F434C" x1="789.0751953" y1="25.6366997" x2="738.7470703" y2="87.2617035"/>
		
			<rect x="724.1286621" y="56.3201981" transform="matrix(0.635188 -0.7723575 0.7723575 0.635188 235.0852356 610.6054688)" fill="#3F434C" width="79.5644913" height="0.2570035"/>
	</g>
	<g>
		<line fill="#3F434C" x1="646.8233032" y1="10.7431002" x2="655.5537109" y2="69.2871017"/>
		
			<rect x="651.0601196" y="10.4199505" transform="matrix(0.9890626 -0.1474963 0.1474963 0.9890626 1.2201537 96.4855881)" fill="#3F434C" width="0.2567427" height="59.1912994"/>
	</g>
	<g>
		<line fill="#3F434C" x1="646.8233032" y1="10.7431002" x2="647.8505859" y2="76.4765015"/>
		
			<rect x="647.2084961" y="10.7391396" transform="matrix(0.9998779 -0.0156264 0.0156264 0.9998779 -0.6024244 10.1208563)" fill="#3F434C" width="0.2573796" height="65.7414169"/>
	</g>
	<g>
		<line fill="#3F434C" x1="646.8233032" y1="10.7431002" x2="583.6572266" y2="62.097599"/>
		
			<rect x="574.5372314" y="36.2922554" transform="matrix(0.7794544 -0.6264591 0.6264591 0.7794544 112.872818 393.4554749)" fill="#3F434C" width="81.4070129" height="0.2561922"/>
	</g>
	<g>
		<line fill="#3F434C" x1="646.8233032" y1="10.7431002" x2="583.6572266" y2="62.097599"/>
		
			<rect x="574.5372314" y="36.2922554" transform="matrix(0.7794544 -0.6264591 0.6264591 0.7794544 112.872818 393.4554749)" fill="#3F434C" width="81.4070129" height="0.2561922"/>
	</g>
	<g>
		<line fill="#3F434C" x1="480.9491882" y1="43.6102982" x2="430.1083984" y2="98.5595016"/>
		<polygon fill="#3F434C" points="480.8554993,43.5233994 481.0440063,43.6972008 430.2022095,98.6464996 430.0147095,98.4717026 		
			"/>
	</g>
	<g>
		<line fill="#3F434C" x1="480.9491882" y1="43.6102982" x2="507.6532898" y2="120.1278992"/>
		<polygon fill="#3F434C" points="481.0712891,43.5682983 507.7744141,120.0858994 507.532196,120.169899 480.8291016,43.6523018 		
			"/>
	</g>
	<g>
		<line fill="#3F434C" x1="505.0859985" y1="146.8320007" x2="581.6035156" y2="142.2098999"/>
		
			<rect x="505.0162048" y="144.392334" transform="matrix(0.998147 -0.0608484 0.0608484 0.998147 -7.7870564 33.3294563)" fill="#3F434C" width="76.65802" height="0.2572694"/>
	</g>
	<g>
		<line fill="#3F434C" x1="505.0859985" y1="146.8320007" x2="467.0830078" y2="177.1307983"/>
		<polygon fill="#3F434C" points="505.0058899,146.7324066 505.1669922,146.9315948 467.1630859,177.2313995 
			467.0039062,177.0301971 		"/>
	</g>
	<g>
		<line fill="#3F434C" x1="505.0859985" y1="146.8320007" x2="430.1083984" y2="98.5595016"/>
		<polygon fill="#3F434C" points="430.1787109,98.4511032 505.155304,146.7236023 505.0166016,146.9403992 430.0380859,98.6669998 
					"/>
	</g>
	<g>
		<line fill="#3F434C" x1="505.0859985" y1="146.8320007" x2="507.6532898" y2="120.1278992"/>
		
			<rect x="492.9562073" y="133.3512115" transform="matrix(0.094956 -0.9954815 0.9954815 0.094956 325.410675 624.887085)" fill="#3F434C" width="26.8278236" height="0.2569644"/>
	</g>
	<g>
		<line fill="#3F434C" x1="505.0859985" y1="146.8320007" x2="559.522522" y2="209.4842987"/>
		<polygon fill="#3F434C" points="505.1825867,146.7480011 559.6182251,209.3993988 559.4248047,209.5682983 
			504.9892883,146.9170074 		"/>
	</g>
	<g>
		<line fill="#3F434C" x1="589.819397" y1="236.1884003" x2="581.6035156" y2="142.2098999"/>
		
			<rect x="585.5835571" y="142.0306854" transform="matrix(0.9961994 -0.0871014 0.0871014 0.9961994 -14.2534666 51.7353897)" fill="#3F434C" width="0.2568444" height="94.336525"/>
	</g>
	<g>
		<line fill="#3F434C" x1="589.819397" y1="236.1884003" x2="616.0108032" y2="140.6699066"/>
		<polygon fill="#3F434C" points="615.8876953,140.6356964 616.1358032,140.7030945 589.944397,236.2225952 
			589.6962891,236.1542969 		"/>
	</g>
	<g>
		<line fill="#3F434C" x1="589.819397" y1="236.1884003" x2="592.3876953" y2="289.0830078"/>
		<polygon fill="#3F434C" points="589.9483032,236.1826019 592.5166016,289.0770874 592.2587891,289.0888062 
			589.6923828,236.1943054 		"/>
	</g>
	<g>
		<line fill="#3F434C" x1="589.819397" y1="236.1884003" x2="512.7880859" y2="274.1903992"/>
		<polygon fill="#3F434C" points="589.7636719,236.0731964 589.8779297,236.3036957 512.8466797,274.305603 
			512.7315063,274.0751953 		"/>
	</g>
	<g>
		<line fill="#3F434C" x1="589.819397" y1="236.1884003" x2="501.4912109" y2="251.0809937"/>
		<polygon fill="#3F434C" points="589.7988281,236.0625 589.8427734,236.3153992 501.5126953,251.2079926 501.469696,250.9550018 		
			"/>
	</g>
	<g>
		<line fill="#3F434C" x1="589.819397" y1="236.1884003" x2="559.522522" y2="209.4842987"/>
		<polygon fill="#3F434C" points="559.6065063,209.3876953 589.9052734,236.0917969 589.7354126,236.2850952 
			559.4365234,209.5809937 		"/>
	</g>
	<g>
		<line fill="#3F434C" x1="589.819397" y1="236.1884003" x2="632.444397" y2="197.1591949"/>
		
			<rect x="582.2354126" y="216.5452271" transform="matrix(0.7369766 -0.6759183 0.6759183 0.7369766 14.2882223 470.0655212)" fill="#3F434C" width="57.7928619" height="0.2571317"/>
	</g>
	<g>
		<line fill="#3F434C" x1="589.819397" y1="236.1884003" x2="682.772522" y2="262.8924866"/>
		<polygon fill="#3F434C" points="589.8565063,236.0653992 682.8076172,262.7695007 682.7354126,263.0155945 
			589.7841797,236.3114929 		"/>
	</g>
	<g>
		<line fill="#3F434C" x1="589.819397" y1="236.1884003" x2="682.772522" y2="262.8924866"/>
		<polygon fill="#3F434C" points="589.8565063,236.0653992 682.8076172,262.7695007 682.7354126,263.0155945 
			589.7841797,236.3114929 		"/>
	</g>
	<g>
		<line fill="#3F434C" x1="664.7979126" y1="168.9140015" x2="651.9580078" y2="174.5634003"/>
		<polygon fill="#3F434C" points="664.7451172,168.7967987 664.8496094,169.0312042 652.0108032,174.680603 
			651.9072266,174.4463043 		"/>
	</g>
	<g>
		<line fill="#3F434C" x1="664.7979126" y1="168.9140015" x2="655.5537109" y2="69.2871017"/>
		<polygon fill="#3F434C" points="655.6807251,69.2743988 664.9257812,168.902298 664.6690063,168.9257965 655.4268188,69.2987976 
					"/>
	</g>
	<g>
		<line fill="#3F434C" x1="664.7979126" y1="168.9140015" x2="647.8505859" y2="76.4765015"/>
		<polygon fill="#3F434C" points="647.9776001,76.4541016 664.9229126,168.8916016 664.6708984,168.9375 647.7235718,76.5 		"/>
	</g>
	<g>
		<line fill="#3F434C" x1="664.7979126" y1="168.9140015" x2="581.6035156" y2="142.2098999"/>
		<polygon fill="#3F434C" points="581.6416016,142.0879059 664.8369141,168.7920074 664.7587891,169.0370941 
			581.5654297,142.3320007 		"/>
	</g>
	<g>
		<line fill="#3F434C" x1="664.7979126" y1="168.9140015" x2="616.0108032" y2="140.6699066"/>
		
			<rect x="640.2755127" y="126.6056976" transform="matrix(0.5010298 -0.86543 0.86543 0.5010298 185.5808868 631.4614868)" fill="#3F434C" width="0.257021" height="56.372551"/>
	</g>
	<g>
		<line fill="#3F434C" x1="664.7979126" y1="168.9140015" x2="704.8535156" y2="169.4277039"/>
		<polygon fill="#3F434C" points="664.7998047,168.7861023 704.8544922,169.2998047 704.8526001,169.5565948 
			664.7958984,169.0428925 		"/>
	</g>
	<g>
		<line fill="#3F434C" x1="664.7979126" y1="168.9140015" x2="632.444397" y2="197.1591949"/>
		<polygon fill="#3F434C" points="664.7139282,168.8173981 664.881897,169.0106964 632.5283203,197.2557983 632.3604126,197.0625 		
			"/>
	</g>
	<g>
		<line fill="#3F434C" x1="664.7979126" y1="168.9140015" x2="682.772522" y2="262.8924866"/>
		<polygon fill="#3F434C" points="664.9229126,168.8905945 682.897522,262.868103 682.6455078,262.9169922 664.6708984,168.9384003 
					"/>
	</g>
	<g>
		<line fill="#3F434C" x1="664.7979126" y1="168.9140015" x2="682.772522" y2="262.8924866"/>
		<polygon fill="#3F434C" points="664.9229126,168.8905945 682.897522,262.868103 682.6455078,262.9169922 664.6708984,168.9384003 
					"/>
	</g>
	<g>
		<line fill="#3F434C" x1="787.5341797" y1="167.3739929" x2="761.8565063" y2="132.4521027"/>
		
			<rect x="774.5667725" y="128.2399902" transform="matrix(0.8056529 -0.5923879 0.5923879 0.8056529 61.7531395 488.0553284)" fill="#3F434C" width="0.2570904" height="43.3461189"/>
	</g>
	<g>
		<line fill="#3F434C" x1="787.5341797" y1="167.3739929" x2="852.7539062" y2="193.0507965"/>
		
			<rect x="820.0161743" y="145.1660767" transform="matrix(0.3663232 -0.9304877 0.9304877 0.3663232 352.0210571 877.3305664)" fill="#3F434C" width="0.2562338" height="70.0925827"/>
	</g>
	<g>
		<line fill="#3F434C" x1="787.5341797" y1="167.3739929" x2="738.7470703" y2="87.2617035"/>
		<polygon fill="#3F434C" points="738.8583984,87.1942978 787.6436157,167.3065948 787.4248047,167.4403992 738.6376953,87.3281021 
					"/>
	</g>
	<g>
		<line fill="#3F434C" x1="787.5341797" y1="167.3739929" x2="704.8535156" y2="169.4277039"/>
		<polygon fill="#3F434C" points="787.5302734,167.2451019 787.5360718,167.5019073 704.8565063,169.5565948 
			704.8505859,169.2998047 		"/>
	</g>
	<g>
		<line fill="#3F434C" x1="787.5341797" y1="167.3739929" x2="757.2354126" y2="223.8632965"/>
		<polygon fill="#3F434C" points="787.4208984,167.3134003 787.647522,167.434494 757.3485718,223.9237976 757.1220703,223.8027039 
					"/>
	</g>
	<g>
		<line fill="#3F434C" x1="699.2041016" y1="112.9384003" x2="664.7979126" y2="168.9140015"/>
		
			<rect x="649.1490479" y="140.7973938" transform="matrix(0.520965 -0.8535781 0.8535781 0.520965 206.4110413 649.6500854)" fill="#3F434C" width="65.7048187" height="0.2577061"/>
	</g>
	<g>
		<line fill="#3F434C" x1="699.2041016" y1="112.9384003" x2="651.9580078" y2="174.5634003"/>
		<polygon fill="#3F434C" points="699.1026001,112.8592987 699.3067017,113.0166016 652.0606079,174.6416016 
			651.8565063,174.4842987 		"/>
	</g>
	<g>
		<line fill="#3F434C" x1="699.2041016" y1="112.9384003" x2="761.8565063" y2="132.4521027"/>
		
			<rect x="730.4028931" y="89.8846893" transform="matrix(0.297383 -0.9547583 0.9547583 0.297383 396.1394043 783.6885986)" fill="#3F434C" width="0.2567048" height="65.6211777"/>
	</g>
	<g>
		<line fill="#3F434C" x1="699.2041016" y1="112.9384003" x2="655.5537109" y2="69.2871017"/>
		
			<rect x="677.2509766" y="60.2465935" transform="matrix(0.707106 -0.7071076 0.7071076 0.707106 133.9738464 505.6665039)" fill="#3F434C" width="0.2568565" height="61.7323647"/>
	</g>
	<g>
		<line fill="#3F434C" x1="699.2041016" y1="112.9384003" x2="647.6582031" y2="76.4765015"/>
		<polygon fill="#3F434C" points="647.7315063,76.3720016 699.2792969,112.8330002 699.1298828,113.0429001 647.585022,76.5810013 
					"/>
	</g>
	<g>
		<line fill="#3F434C" x1="699.2041016" y1="112.9384003" x2="738.7470703" y2="87.2617035"/>
		<polygon fill="#3F434C" points="738.6787109,87.1532974 738.8173828,87.3691025 699.2744141,113.0458984 699.1358032,112.8300018 
					"/>
	</g>
	<g>
		<line fill="#3F434C" x1="699.2041016" y1="112.9384003" x2="616.0108032" y2="140.6699066"/>
		<polygon fill="#3F434C" points="699.1651001,112.8163986 699.2451172,113.0595016 616.0518188,140.7910004 
			615.9697266,140.5478058 		"/>
	</g>
	<g>
		<line fill="#3F434C" x1="699.2041016" y1="112.9384003" x2="704.8535156" y2="169.4277039"/>
		<polygon fill="#3F434C" points="699.3330078,112.9257965 704.9815063,169.4160004 704.7255859,169.4403992 
			699.0772095,112.9511032 		"/>
	</g>
	<g>
		<line fill="#3F434C" x1="403.405304" y1="171.4824066" x2="325.3467102" y2="113.9657974"/>
		
			<rect x="364.2476807" y="94.2438354" transform="matrix(0.5931973 -0.8050571 0.8050571 0.5931973 33.3282928 351.4039612)" fill="#3F434C" width="0.2566478" height="96.9600296"/>
	</g>
	<g>
		<line fill="#3F434C" x1="403.405304" y1="171.4824066" x2="421.8916016" y2="245.4315948"/>
		<polygon fill="#3F434C" points="403.5282898,171.4510956 422.0166016,245.4013062 421.7685852,245.4629059 
			403.280304,171.5135956 		"/>
	</g>
	<g>
		<line fill="#3F434C" x1="403.405304" y1="171.4824066" x2="387.9989929" y2="211.0254059"/>
		<polygon fill="#3F434C" points="403.2842102,171.434494 403.5244141,171.5292969 388.1181946,211.0713043 
			387.8778992,210.9785004 		"/>
	</g>
	<g>
		<line fill="#3F434C" x1="403.405304" y1="171.4824066" x2="341.780304" y2="214.6201019"/>
		<polygon fill="#3F434C" points="403.3310852,171.3759003 403.4776001,171.5879059 341.8526001,214.7245941 
			341.7060852,214.5146027 		"/>
	</g>
	<g>
		<line fill="#3F434C" x1="403.405304" y1="171.4824066" x2="467.0830078" y2="177.1307983"/>
		<polygon fill="#3F434C" points="403.4151001,171.3545074 467.094696,177.0028992 467.0712891,177.2588043 
			403.3935852,171.6103058 		"/>
	</g>
	<g>
		<line fill="#3F434C" x1="403.405304" y1="171.4824066" x2="430.1083984" y2="98.5595016"/>
		<polygon fill="#3F434C" points="429.9883118,98.5156021 430.2294922,98.6035004 403.5244141,171.5263062 403.2842102,171.4375 		
			"/>
	</g>
</g>
</svg>
