<?xml version="1.0" encoding="utf-8"?>
<!-- Generator: Adobe Illustrator 21.1.0, SVG Export Plug-In . SVG Version: 6.00 Build 0)  -->
<svg version="1.1" baseProfile="tiny" id="Layer_2" xmlns="http://www.w3.org/2000/svg" xmlns:xlink="http://www.w3.org/1999/xlink"
	 x="0px" y="0px" viewBox="0 0 569 334" xml:space="preserve">
<g>
	<path fill="#FFFFFF" d="M218.6004486,54.4790039v-4.3427734c0-1.5991211,1.296875-2.8955078,2.8955078-2.8955078
		s2.8955078,1.2963867,2.8955078,2.8955078v4.3427734c0,1.5991211-1.296875,2.8955078-2.8955078,2.8955078
		S218.6004486,56.078125,218.6004486,54.4790039z"/>
	<path fill="#FFFFFF" d="M198.333847,57.3745117c-1.5986328,0-2.8955078-1.2963867-2.8955078-2.8955078v-4.3427734
		c0-1.5991211,1.296875-2.8955078,2.8955078-2.8955078s2.8955078,1.2963867,2.8955078,2.8955078v4.3427734
		C201.2293549,56.078125,199.9324799,57.3745117,198.333847,57.3745117z"/>
	<path fill="#FFFFFF" d="M328.7801514,146.6420898l-8.6860352,5.7905273
		c-0.4863281,0.3242188-1.0458984,0.4863281-1.605957,0.4863281s-1.1196289-0.1621094-1.605957-0.4863281l-8.6860352-5.7905273
		c-0.8056641-0.5371094-1.2895508-1.440918-1.2895508-2.4091797v-8.6855469c0-0.9682617,0.4838867-1.8720703,1.2895508-2.4091797
		l8.6860352-5.7910156c0.9726562-0.6484375,2.2392578-0.6484375,3.2119141,0l8.6860352,5.7910156
		c0.8056641,0.5371094,1.2895508,1.440918,1.2895508,2.4091797v8.6855469
		C330.0697021,145.2011719,329.5858154,146.1049805,328.7801514,146.6420898z M324.2786865,137.0966797l-5.7905273-3.8603516
		l-5.7905273,3.8603516v5.5869141l5.7905273,3.8603516l5.7905273-3.8603516V137.0966797z"/>
	<path fill="#FFFFFF" d="M199.9881439,66.4326172c0.5947266-1.484375,2.2773438-2.2075195,3.7636719-1.612793l6.1630859,2.465332
		l6.1630859-2.465332c1.4863281-0.5942383,3.1689453,0.128418,3.7636719,1.612793
		c0.59375,1.484375-0.1289062,3.1694336-1.6132812,3.7631836l-7.2382812,2.8955078
		c-0.3447266,0.1381836-0.7099609,0.2075195-1.0751953,0.2075195s-0.7304688-0.0693359-1.0751953-0.2075195l-7.2382812-2.8955078
		C200.1170502,69.6020508,199.3943939,67.9169922,199.9881439,66.4326172z"/>
	<path fill="#FFFFFF" d="M30.407093,316.5019531h64.1809082l19.1998291-104.2294922h-8.1033936
		c-0.8271484,0-1.6142578-0.3535156-2.1640625-0.9716797l-23.1621094-26.0576172
		c-0.7578125-0.8525391-0.9443359-2.0703125-0.4775391-3.1103516c0.4677734-1.0400391,1.5009766-1.7089844,2.6416016-1.7089844
		h19.7875977l-5.2768555-34.3027344c-0.1289062-0.8349609,0.1142578-1.6845703,0.6640625-2.3256836
		s1.3525391-1.0102539,2.1972656-1.0102539h31.8476486c0.8447266,0,1.6474609,0.3691406,2.1972656,1.0102539
		s0.7929688,1.4907227,0.6640625,2.3256836l-5.2768555,34.3027344h53.9723511l-29.4699097-11.7880859
		c-1.0996094-0.4404297-1.8203125-1.5048828-1.8203125-2.6884766v-55.0102539c0-1.1938477,0.7333984-2.265625,1.8457031-2.6982422
		l33.6505127-13.0863647c0.0241089-0.0128784,0.0436401-0.0307617,0.0682373-0.0430298
		c0.194519-0.0970459,0.3950195-0.1655884,0.5975342-0.2158813l17.7989502-6.921814
		c0.3366699-0.1307983,0.6911011-0.1965332,1.0455933-0.1972046c-0.3638306-0.0004883-0.7276001-0.069458-1.0709839-0.2070923
		l-28.953125-11.5810547c-1.0996094-0.4394531-1.8203125-1.5039062-1.8203125-2.6879883V61.9887085l-7.0644531-3.4623413
		c-0.9921875-0.4858398-1.6210938-1.4946289-1.6210938-2.5996094v-8.6860352c0-1.5991211,1.296875-2.8955078,2.8955078-2.8955078
		h5.7900391V25.4399414c0-1.0581055,0.5771484-2.0322266,1.5058594-2.5400391l28.953125-15.8378906
		c0.8652344-0.4736328,1.9140625-0.4736328,2.7792969,0l28.953125,15.8378906
		c0.9287109,0.5078125,1.5058594,1.4819336,1.5058594,2.5400391v13.1147461h23.1621246
		c1.5986328,0,2.8955078,1.2963867,2.8955078,2.8955078s-1.296875,2.8955078-2.8955078,2.8955078h-23.1621246v28.9526367
		c0,1.184082-0.7207031,2.2485352-1.8203125,2.6879883l-28.953125,11.5810547
		c-0.3439941,0.1378784-0.7084351,0.2070312-1.072876,0.2072754c0.3538208,0.0001831,0.7075195,0.0650024,1.0435791,0.1955566
		l52.1152496,20.1811523c0.9541016,0.3696289,1.6425781,1.2158203,1.8105469,2.2260742l2.8955078,17.4580078
		c0.2617188,1.5771484-0.8056641,3.0683594-2.3828125,3.3300781c-1.5703125,0.2587891-3.0683594-0.8041992-3.3300781-2.3828125
		l-2.625-15.828125l-29.9603424-11.6019897l-16.9781494,34.0394897c-0.4902344,0.9819336-1.4931641,1.6030273-2.5908203,1.6030273
		s-2.1005859-0.6210938-2.5908203-1.6035156l-16.9630737-34.0110474l-29.6658325,11.5369263v51.0698242l41.0917969,16.4365234
		h7.9707031l-36.2978516-26.6176758c-0.7441406-0.5454102-1.1835938-1.4125977-1.1835938-2.3349609v-5.7905273v-14.4765625
		c0-1.5991211,1.296875-2.8955078,2.8955078-2.8955078s2.8955078,1.2963867,2.8955078,2.8955078v14.4765625v4.3232422
		l37.3601685,27.3974609l3.4786987-6.9580078c0.4902344-0.9804688,1.4931641-1.6005859,2.5898438-1.6005859h40.6607819
		l17.3538818-61.5859375c0.3515625-1.2480469,1.4902344-2.1103516,2.7871094-2.1103516h95.5439453
		c0.9067383,0,1.7607422,0.4248047,2.3081055,1.1479492c0.5473633,0.7226562,0.7246094,1.6601562,0.4785156,2.5327148
		l-20.1743164,71.5966797h37.6547852c1.1401367,0,2.1743164,0.6689453,2.6411133,1.7089844
		c0.4672852,1.0400391,0.2802734,2.2578125-0.4770508,3.1103516L374.21521,211.3007812
		c-0.5493164,0.6181641-1.3369141,0.9716797-2.1640625,0.9716797h-10.9993896l19.2003174,104.2294922h72.0066528
		L438.7381592,265.125c-0.2285156-0.8691406-0.0415039-1.7939453,0.5068359-2.5048828
		c0.5478516-0.7109375,1.3950195-1.1279297,2.2929688-1.1279297h23.1621094V110.9370117
		c0-1.5991211,1.2963867-2.8955078,2.8955078-2.8955078s2.8955078,1.2963867,2.8955078,2.8955078v150.5551758h26.0571289
		c0.8979492,0,1.7446289,0.4169922,2.2929688,1.1279297s0.7353516,1.6357422,0.5068359,2.5048828l-13.5200806,51.3769531h48.359436
		c1.5991211,0,2.8955078,1.296875,2.8955078,2.8955078s-1.2963867,2.8955078-2.8955078,2.8955078h-52.1152344h-26.0576172H30.407093
		c-1.5986328,0-2.8955078-1.296875-2.8955078-2.8955078S28.8084602,316.5019531,30.407093,316.5019531z M172.2762299,50.1362305
		v3.9853516l2.8945312,1.4186401v-5.4039917H172.2762299z M233.0770111,27.15625l-26.0576172-14.2539062L180.9617767,27.15625
		v11.3984375h52.1152344V27.15625z M233.0770111,71.3378906V44.3457031h-52.1152344v26.9921875l26.0576172,10.4233398
		L233.0770111,71.3378906z M207.0193939,127.612793l14.1455688-28.3603516l-14.1436157-5.4770508l-14.1365967,5.4976807
		L207.0193939,127.612793z M158.0892181,316.5019531l10.9714355-104.2294922h-29.5087891l-38.4006271,104.2294922H158.0892181z
		 M174.8822479,212.2724609l-9.8403931,93.4931641l45.2451172-80.4365234
		c0.5126953-0.9111328,1.4775391-1.4755859,2.5234375-1.4755859s2.0107422,0.5644531,2.5234375,1.4755859l44.7656403,79.5830078
		l-12.1892853-92.6396484H174.8822479z M212.8104095,232.6542969l-47.1643677,83.8476562h94.3287506L212.8104095,232.6542969z
		 M105.9725266,286.6669922l27.4081955-74.3945312H119.676384L105.9725266,286.6669922z M128.3670502,148.5761719h-25.0976486
		l4.8994141,31.8476562h15.2988281L128.3670502,148.5761719z M220.3895111,174.6337891l-2.8945312,5.7900391h38.5028687
		l1.631546-5.7900391H220.3895111z M281.5946045,110.9375l-16.3167114,57.9052734h89.527832L371.1224365,110.9375H281.5946045z
		 M353.1738892,174.6337891h-89.527832l-1.6315308,5.7900391h89.527832L353.1738892,174.6337891z M388.7659912,186.2148438
		h-35.03125h-95.5444336h-42.4843903h-2.8955078H198.333847h-72.3818283h-20.2675781H88.9695969l18.0146484,20.2666016h263.7666016
		L388.7659912,186.2148438z M355.1641846,212.2724609h-13.7043457l27.4082031,74.3935547L355.1641846,212.2724609z
		 M335.2886963,212.2724609h-81.5387726l13.7146149,104.2294922h106.2247925L335.2886963,212.2724609z M445.2938232,267.2832031
		l4.6980591,17.8522339l8.3180542-8.3180542c1.1303711-1.1298828,2.9633789-1.1318359,4.0947266,0l6.6386719,6.6376953
		l6.6381836-6.6376953c1.1303711-1.1298828,2.9633789-1.1318359,4.0947266,0l8.3182373,8.3179321l4.697876-17.8521118H445.2938232z
		 M479.84021,316.5019531l6.5484009-24.8841553l-8.659729-8.6588135l-6.6381836,6.6376953
		c-1.1303711,1.1308594-2.9633789,1.1308594-4.0947266,0l-6.6386719-6.6376953l-8.6594238,8.6589966l6.548584,24.8839722H479.84021z
		"/>
	<path fill="#FFFFFF" d="M7.2449846,316.5019531h8.6855469c1.5986319,0,2.8955069,1.296875,2.8955069,2.8955078
		s-1.296875,2.8955078-2.8955069,2.8955078H7.2449846c-1.5986328,0-2.8955078-1.296875-2.8955078-2.8955078
		S5.6463518,316.5019531,7.2449846,316.5019531z"/>
	<path fill="#FFFFFF" d="M551.55896,316.5019531h8.6860352c1.5991211,0,2.8955078,1.296875,2.8955078,2.8955078
		s-1.2963867,2.8955078-2.8955078,2.8955078H551.55896c-1.5991211,0-2.8955078-1.296875-2.8955078-2.8955078
		S549.9598389,316.5019531,551.55896,316.5019531z"/>
	<path fill="#FFFFFF" d="M124.2557297,122.5185547l3.7431641,3.7431641
		c1.1308517,1.1308594,1.1308517,2.9638672,0.0009766,4.0947266c-0.5654297,0.5654297-1.3066406,0.8481445-2.0478516,0.8481445
		s-1.4814453-0.2827148-2.046875-0.8481445l-5.7910156-5.7905273c-0.5429688-0.5429688-0.8486328-1.2792969-0.8486328-2.0473633
		c0-0.7675781,0.3056641-1.5043945,0.8486328-2.0473633l9.5332031-9.5341797l-3.7431641-3.7431641
		c-1.1298828-1.1308594-1.1298828-2.9638672,0.0009766-4.0947266s2.9638672-1.1308594,4.0947266,0l5.7900314,5.7905273
		c1.1298828,1.1308594,1.1298828,2.9638672-0.0009766,4.0947266L124.2557297,122.5185547z"/>
	<path fill="#FFFFFF" d="M103.9891281,122.5185547l3.7431641,3.7431641
		c1.1298828,1.1308594,1.1298828,2.9638672-0.0009766,4.0947266c-0.5654297,0.5654297-1.3056641,0.8481445-2.046875,0.8481445
		s-1.4824219-0.2827148-2.0478516-0.8481445L97.84655,124.565918c-1.1298828-1.1308594-1.1298828-2.9638672,0.0009766-4.0947266
		l9.5332031-9.5341797l-3.7431641-3.7431641c-1.1308594-1.1308594-1.1308594-2.9638672-0.0009766-4.0947266
		c1.1308594-1.1308594,2.9638672-1.1308594,4.0947266,0l5.7910156,5.7905273
		c0.5429688,0.5429688,0.8486328,1.2792969,0.8486328,2.0473633c0,0.7675781-0.3056641,1.5043945-0.8486328,2.0473633
		L103.9891281,122.5185547z"/>
	<path fill="#FFFFFF" d="M456.0145264,218.0634766h-11.5810547c-1.0966797,0-2.0991211-0.6201172-2.5898438-1.6005859
		l-11.581543-23.1630859c-0.5571289-1.1152344-0.3388672-2.4609375,0.5424805-3.3417969
		c0.8813477-0.8818359,2.2260742-1.0976562,3.3422852-0.5429688l23.1625977,11.5810547
		c0.980957,0.4902344,1.6005859,1.4931641,1.6005859,2.5898438v11.5820312
		C458.9100342,216.7666016,457.6136475,218.0634766,456.0145264,218.0634766z M453.1190186,205.375l-13.7929688-6.8964844
		l6.8969727,13.7939453h6.8959961V205.375z"/>
	<path fill="#FFFFFF" d="M512.5340576,203.9394531c1.1787109-0.6435547,2.6479492-0.390625,3.5444336,0.6123047
		c0.8959961,1.0019531,0.9848633,2.4882812,0.2138672,3.5898438l-20.2670898,28.953125
		c-0.5419922,0.7744141-1.4272461,1.2353516-2.3720703,1.2353516h-11.5810547c-1.5991211,0-2.8955078-1.296875-2.8955078-2.8955078
		v-11.5810547c0-1.0595703,0.5791016-2.0341797,1.5092773-2.5419922L512.5340576,203.9394531z M484.9676514,232.5390625h7.1782227
		l12.3227539-17.6044922l-19.5009766,10.6376953V232.5390625z"/>
	<path fill="#FFFFFF" d="M453.1190186,163.0527344h-11.5810547c-0.9448242,0-1.8300781-0.4609375-2.3720703-1.2353516
		l-20.2670898-28.953125c-0.7709961-1.1010742-0.6821289-2.5883789,0.2138672-3.590332
		c0.8964844-1.0029297,2.3657227-1.253418,3.5444336-0.6118164l31.8481445,17.371582
		c0.9301758,0.5078125,1.5092773,1.4824219,1.5092773,2.5419922v11.581543
		C456.0145264,161.7563477,454.7181396,163.0527344,453.1190186,163.0527344z M450.2235107,150.2944336l-19.5014648-10.637207
		l12.3232422,17.6044922h7.1782227V150.2944336z"/>
	<path fill="#FFFFFF" d="M495.7874756,191.0664062c-0.5483398,0.5986328-1.3227539,0.9394531-2.1342773,0.9394531h-14.4765625
		c-1.5991211,0-2.8955078-1.296875-2.8955078-2.8955078v-14.4765625c0-1.1503906,0.6811523-2.1914062,1.7348633-2.6523438
		l46.324707-20.2670898c1.2529297-0.5483398,2.7207031-0.1455078,3.5161133,0.96875
		c0.7954102,1.112793,0.7036133,2.6313477-0.2211914,3.6401367L495.7874756,191.0664062z M482.0721436,176.5273438v9.6875
		h10.3076172l21.7275391-23.703125L482.0721436,176.5273438z"/>
	<path fill="#FFFFFF" d="M496.2889404,135.2978516c-0.3085938,0.6791992-0.8676758,1.2128906-1.5605469,1.4897461
		l-14.4765625,5.7905273c-0.3466797,0.1391602-0.7119141,0.2075195-1.0751953,0.2075195
		c-0.5703125,0-1.137207-0.1689453-1.6230469-0.4980469c-0.7958984-0.5385742-1.2724609-1.4365234-1.2724609-2.3974609v-14.4765625
		c0-0.8793945,0.3999023-1.7114258,1.0869141-2.2607422l28.953125-23.1621094
		c1.0463867-0.8369141,2.5297852-0.8466797,3.5869141-0.0239258s1.4116211,2.2631836,0.8574219,3.4829102L496.2889404,135.2978516z
		 M482.0721436,126.8051758v8.8085938l9.4262695-3.7705078l8.9853516-19.7670898L482.0721436,126.8051758z"/>
</g>
</svg>
