<?xml version="1.0" encoding="utf-8"?>
<!-- Generator: Adobe Illustrator 21.1.0, SVG Export Plug-In . SVG Version: 6.00 Build 0)  -->
<svg version="1.1" baseProfile="tiny" id="Layer_1" xmlns="http://www.w3.org/2000/svg" xmlns:xlink="http://www.w3.org/1999/xlink"
	 x="0px" y="0px" viewBox="0 0 1071 324" xml:space="preserve">
<g id="XMLID_22_">
	<g id="XMLID_107_">
		
			<path id="XMLID_92_" fill="#3BDDBA" stroke="#34508B" stroke-width="3" stroke-linecap="round" stroke-linejoin="round" stroke-miterlimit="10" d="
			M869.0871582,266.8008118H735.7092285l0.000061-49.7190094c0-22.5262909,18.2611084-40.7874451,40.7874146-40.7874451h51.8030396
			c22.5262451,0,40.7874146,18.2611542,40.7874146,40.7874451V266.8008118z"/>
		
			<rect id="XMLID_105_" x="788.5805664" y="157.4782104" fill="#FFFAAD" stroke="#34508B" stroke-width="3" stroke-linecap="round" stroke-linejoin="round" stroke-miterlimit="10" width="27.635294" height="24.4129219"/>
		
			<rect id="XMLID_93_" x="787.2145386" y="147.9512177" fill="#FFFAAD" stroke="#34508B" stroke-width="3" stroke-linecap="round" stroke-linejoin="round" stroke-miterlimit="10" width="30.3672924" height="19.0539875"/>
		
			<circle id="XMLID_90_" fill="#FFFAAD" stroke="#34508B" stroke-width="3" stroke-linecap="round" stroke-linejoin="round" stroke-miterlimit="10" cx="802.3982544" cy="108.0569305" r="47.2207489"/>
		
			<path id="XMLID_99_" fill="#F7AB6F" stroke="#34508B" stroke-width="3" stroke-linecap="round" stroke-linejoin="round" stroke-miterlimit="10" d="
			M841.3800049,114.3090134v7.5696259c0,1.5817337-0.7718506,3.0454636-2.0291138,3.8480988l-16.4779053,10.5194473
			c-2.7461548,1.7531281-6.2098999-1.5841064-6.2098999-5.0389709v-0.2259674c0-2.4663696-1.8442993-4.4657669-4.1194458-4.4657669
			h-10.1452637h-10.1455688c-2.2751465,0-4.1195068,1.9993973-4.1195068,4.4657669v0.2259674
			c0,3.4548645-3.4636841,6.792099-6.2098389,5.0389709l-16.4779053-10.5194473
			c-1.2572632-0.8026352-2.0291138-2.2663651-2.0291138-3.8480988v-7.5696259c0-2.4663773-1.8443604-4.4657745-4.1194458-4.4657745
			l0,0c-2.2751465,0-4.1195068,1.9993973-4.1195068,4.4657745v32.3614273c0,0.8369751,0.21698,1.6571045,0.6261597,2.3668671
			l11.8953247,20.6324768c0.7528076,1.3057098,2.072998,2.0989227,3.4933472,2.0989227h31.2060547h31.2057495
			c1.4203491,0,2.7405396-0.7932129,3.4932861-2.0989227l11.8953247-20.6324768
			c0.4092407-0.7097626,0.6262207-1.529892,0.6262207-2.3668671v-32.3614273c0-2.4663773-1.8443604-4.4657745-4.1195068-4.4657745
			l0,0C843.2243042,109.8432388,841.3800049,111.8426361,841.3800049,114.3090134z"/>
		
			<path id="XMLID_102_" fill="#F7AB6F" stroke="#34508B" stroke-width="3" stroke-linecap="round" stroke-linejoin="round" stroke-miterlimit="10" d="
			M836.2855835,66.9717636l5.7202148,36.1522369h7.3827515c0,0,3.335083-13.3955154,4.1289673-24.2546158
			C854.3115234,68.0103683,836.2855835,66.9717636,836.2855835,66.9717636z"/>
		<g id="XMLID_98_">
			
				<path id="XMLID_95_" fill="#62C3EF" stroke="#34508B" stroke-width="3" stroke-linecap="round" stroke-linejoin="round" stroke-miterlimit="10" d="
				M770.0527954,116.6939774h16.9070435c1.8768921,0,3.6552124-0.8405762,4.8465576-2.2909241l4.9577637-6.0355759
				c0.9216919-1.1220169,1.4254761-2.5290604,1.4254761-3.9810944v-0.0000076c0-2.8984604-1.986084-5.4194031-4.8040161-6.0978012
				l-7.0723267-1.7025909c-4.9223022-1.1850052-10.0770264-0.9803314-14.8898926,0.5912247l-4.7208252,1.541481
				c-3.1174927,1.0179749-4.9244995,4.2657928-4.145752,7.4515228l1.4033813,5.7410583
				C764.6464844,114.7188797,767.1625366,116.6939774,770.0527954,116.6939774z"/>
			
				<path id="XMLID_100_" fill="#62C3EF" stroke="#34508B" stroke-width="3" stroke-linecap="round" stroke-linejoin="round" stroke-miterlimit="10" d="
				M834.7437134,116.6939774h-16.9070435c-1.8768921,0-3.6552124-0.8405762-4.8465576-2.2909241l-4.9577637-6.0355759
				c-0.9216919-1.1220169-1.4254761-2.5290604-1.4254761-3.9810944v-0.0000076c0-2.8984604,1.986084-5.4194031,4.8040161-6.0978012
				l7.0723267-1.7025909c4.9223022-1.1850052,10.0770264-0.9803314,14.8898926,0.5912247l4.7208252,1.541481
				c3.1174927,1.0179749,4.9244995,4.2657928,4.145752,7.4515228l-1.4033813,5.7410583
				C840.1500244,114.7188797,837.6339722,116.6939774,834.7437134,116.6939774z"/>
			<g id="XMLID_119_">
				<path id="XMLID_116_" fill="#C8EBFF" d="M811.8300171,100.0255051c-2.0235596,0.486702-3.4365234,2.280571-3.4365234,4.3611145
					c0,0.1692047,0.010437,0.3395844,0.0325317,0.5105362c10.7713623-0.5239105,20.347229-2.4288483,26.7190552-5.2618256
					l-2.3270874-0.7599945c-2.5747681-0.8408203-5.2518921-1.2635574-7.9325562-1.2635574
					c-2.0061035,0-4.0133667,0.2366562-5.9834595,0.7111511L811.8300171,100.0255051z"/>
				<path id="XMLID_128_" fill="#C8EBFF" d="M796.3707275,104.8971558c0.0220947-0.1709518,0.0325928-0.3413315,0.0325928-0.5105362
					c0-2.0805435-1.4130249-3.8744125-3.4365845-4.3611145l-7.0719604-1.7025757
					c-4.6018677-1.1088867-9.4165039-0.9169998-13.9171753,0.5524063l-2.3270874,0.7599945
					C776.0223999,102.4683075,785.5993652,104.3732452,796.3707275,104.8971558z"/>
			</g>
		</g>
		
			<path id="XMLID_106_" fill="#34508B" stroke="#34508B" stroke-width="3" stroke-linecap="round" stroke-linejoin="round" stroke-miterlimit="10" d="
			M802.3983154,101.6559753c1.8085327,0,3.2749023,1.4661331,3.2749023,3.2748337h0.9806519
			c-0.0159912-0.1816406-0.0470581-0.360878-0.0470581-0.5444107v-0.0000763c0-1.9012985,0.8652344-3.6281509,2.2485352-4.7910385
			c-1.5362549-1.8573303-3.8583984-3.0410767-6.4570312-3.0410767c-2.5988159,0-4.9207764,1.1836777-6.4573364,3.0410004
			c1.3834839,1.1628952,2.2485962,2.8898163,2.2485962,4.7911148v0.0000763c0,0.1835327-0.0311279,0.3627701-0.0471191,0.5444107
			h0.980957C799.1234131,103.1221085,800.5895996,101.6559753,802.3983154,101.6559753z"/>
		
			<rect id="XMLID_104_" x="842.4202271" y="103.1240005" fill="#34508B" stroke="#34508B" stroke-width="3" stroke-linecap="round" stroke-linejoin="round" stroke-miterlimit="10" width="7.1988001" height="8.2257233"/>
		
			<rect id="XMLID_103_" x="794.3131104" y="133.9846039" fill="#FFFAAD" stroke="#34508B" stroke-width="3" stroke-linecap="round" stroke-linejoin="round" stroke-miterlimit="10" width="16.1702156" height="4.8365698"/>
		
			<path id="XMLID_94_" fill="#F7AB6F" stroke="#34508B" stroke-width="3" stroke-linecap="round" stroke-linejoin="round" stroke-miterlimit="10" d="
			M756.0609741,103.1240463h7.3828125V84.6157379c0,0,78.4984741,7.0666656,99.3387451-23.7795601h-22.9243164l7.7406616-7.8571854
			c0,0-69.864563-12.0798416-83.7581177,10.0377159c0,0-12.7026367,4.9936981-11.9087524,15.8527298
			C752.7259521,89.7284698,756.0609741,103.1240463,756.0609741,103.1240463z"/>
		
			<rect id="XMLID_101_" x="755.1774902" y="103.1240005" fill="#34508B" stroke="#34508B" stroke-width="3" stroke-linecap="round" stroke-linejoin="round" stroke-miterlimit="10" width="7.1988001" height="8.2257233"/>
		
			<path id="XMLID_117_" fill="none" stroke="#34508B" stroke-width="3" stroke-linecap="round" stroke-linejoin="round" stroke-miterlimit="10" d="
			M763.8407593,63.0167084c-2.0322876,3.5785141-1.4644775,7.4593201-1.4644775,7.4593201"/>
	</g>
	
		<path id="XMLID_2_" fill="#FFFFFF" stroke="#34508B" stroke-width="3" stroke-linecap="round" stroke-linejoin="round" stroke-miterlimit="10" d="
		M545.9448853,206.8006592H342.920166c-9.2955322,0-16.8310547-7.5355225-16.8310547-16.8310699V60.5807838
		c0-9.2955399,7.5355225-16.8310661,16.8310547-16.8310661h203.0247192c9.2955322,0,16.8310547,7.5355263,16.8310547,16.8310661
		v129.3888092C562.7759399,199.2651367,555.2404175,206.8006592,545.9448853,206.8006592z"/>
	
		<path id="XMLID_6_" fill="#C8EBFF" stroke="#34508B" stroke-width="3" stroke-linecap="round" stroke-linejoin="round" stroke-miterlimit="10" d="
		M326.0891113,176.2943573v13.6752319c0,9.2955322,7.5355225,16.8310699,16.8310547,16.8310699h203.0247192
		c9.2955322,0,16.8310547-7.5355377,16.8310547-16.8310699v-13.6752319H326.0891113z"/>
	
		<rect id="XMLID_5_" x="421.4084473" y="206.8006592" fill="#FFFFFF" stroke="#34508B" stroke-width="3" stroke-linecap="round" stroke-linejoin="round" stroke-miterlimit="10" width="43.0186882" height="24.9932537"/>
	
		<path id="XMLID_16_" fill="#FFFFFF" stroke="#34508B" stroke-width="3" stroke-linecap="round" stroke-linejoin="round" stroke-miterlimit="10" d="
		M474.7235718,239.6781921h-63.6115723c-2.1771851,0-3.9421387-1.7649536-3.9421387-3.9421387v-0.0000153
		c0-2.1771698,1.7649536-3.9421234,3.9421387-3.9421234h63.6115723c2.1771851,0,3.9421387,1.7649536,3.9421387,3.9421234v0.0000153
		C478.6657104,237.9132385,476.9007568,239.6781921,474.7235718,239.6781921z"/>
	<g id="XMLID_64_">
		<rect id="XMLID_71_" x="337.9975586" y="55.6584625" fill="#F5FBFF" width="212.8693542" height="108.7265854"/>
		
			<rect id="XMLID_70_" x="337.9975586" y="55.6584625" fill="#F5FBFF" stroke="#34508B" stroke-width="3" stroke-linecap="round" stroke-linejoin="round" stroke-miterlimit="10" width="212.8693542" height="108.7265854"/>
	</g>
	<rect id="XMLID_56_" x="137.2754974" y="239.6781921" fill="#E7E3E4" width="816.7626953" height="32.7193871"/>
	
		<line id="XMLID_32_" fill="none" stroke="#34508B" stroke-width="3" stroke-linecap="round" stroke-linejoin="round" stroke-miterlimit="10" x1="129.3593903" y1="239.6781921" x2="1049.9542236" y2="239.6781921"/>
	
		<line id="XMLID_35_" fill="none" stroke="#34508B" stroke-width="3" stroke-linecap="round" stroke-linejoin="round" stroke-miterlimit="10" x1="21.8361492" y1="303.3602905" x2="424.480957" y2="303.3602905"/>
	
		<path id="XMLID_46_" fill="#B3B3B3" stroke="#34508B" stroke-width="3" stroke-linecap="round" stroke-linejoin="round" stroke-miterlimit="10" d="
		M358.6895752,286.0926208H225.3116608v-78.2999725c0-22.5262909,18.2611694-40.7874451,40.7874603-40.7874451h51.803009
		c22.5262756,0,40.7874451,18.2611542,40.7874451,40.7874451V286.0926208z"/>
	
		<rect id="XMLID_69_" x="337.9975586" y="55.6584625" fill="#D3B6C7" stroke="#34508B" stroke-width="3" stroke-linecap="round" stroke-linejoin="round" stroke-miterlimit="10" width="212.8693542" height="37.7878227"/>
	
		<circle id="XMLID_72_" fill="#A5D996" stroke="#FFFFFF" stroke-width="3" stroke-linecap="round" stroke-linejoin="round" stroke-miterlimit="10" cx="366.2086182" cy="74.5523758" r="7.8568878"/>
	
		<line id="XMLID_74_" fill="none" stroke="#FFFFFF" stroke-width="3" stroke-linecap="round" stroke-linejoin="round" stroke-miterlimit="10" x1="394.8127747" y1="70.3459091" x2="408.7062988" y2="70.3459091"/>
	
		<line id="XMLID_75_" fill="none" stroke="#FFFFFF" stroke-width="3" stroke-linecap="round" stroke-linejoin="round" stroke-miterlimit="10" x1="394.8127747" y1="79.6238861" x2="440.065979" y2="79.6238861"/>
	<g id="XMLID_78_">
		<g id="XMLID_76_">
			
				<rect id="XMLID_73_" x="403.6192017" y="114.0112991" fill="#FFFFFF" stroke="#34508B" stroke-width="3" stroke-linecap="round" stroke-linejoin="round" stroke-miterlimit="10" width="48.2304077" height="36.3216629"/>
			
				<rect id="XMLID_77_" x="403.6192017" y="108.0569305" fill="#F7AB6F" stroke="#34508B" stroke-width="3" stroke-linecap="round" stroke-linejoin="round" stroke-miterlimit="10" width="48.2304077" height="16.374485"/>
		</g>
		<g id="XMLID_79_">
			
				<rect id="XMLID_81_" x="477.0046692" y="114.0112991" fill="#FFFFFF" stroke="#34508B" stroke-width="3" stroke-linecap="round" stroke-linejoin="round" stroke-miterlimit="10" width="48.2304077" height="36.3216629"/>
			
				<rect id="XMLID_80_" x="477.0046692" y="108.0569305" fill="#62C3EF" stroke="#34508B" stroke-width="3" stroke-linecap="round" stroke-linejoin="round" stroke-miterlimit="10" width="48.2304077" height="16.374485"/>
		</g>
	</g>
	
		<circle id="XMLID_62_" fill="#FFFFFF" stroke="#34508B" stroke-width="3" stroke-linecap="round" stroke-linejoin="round" stroke-miterlimit="10" cx="444.4325256" cy="191.5475159" r="5.6867967"/>
	
		<rect id="XMLID_67_" x="356.7048035" y="225.5851288" fill="#B3B3B3" stroke="#34508B" stroke-width="3" stroke-linecap="round" stroke-linejoin="round" stroke-miterlimit="10" width="46.914402" height="20.3018303"/>
	
		<path id="XMLID_82_" fill="#FFFAAD" stroke="#34508B" stroke-width="3" stroke-linecap="round" stroke-linejoin="round" stroke-miterlimit="10" d="
		M420.2820129,225.5851288h-16.6628113v14.0930634h30.6908875v-0.0649719
		C434.3100891,231.8657227,428.0295105,225.5851288,420.2820129,225.5851288z"/>
	<g id="XMLID_83_">
		
			<path id="XMLID_30_" fill="#62C3EF" stroke="#34508B" stroke-width="3" stroke-linecap="round" stroke-linejoin="round" stroke-miterlimit="10" d="
			M380.2887878,303.3602905H203.7124634l19.1468658-89.3322754c2.8934784-13.4999084,18.0582275-23.4038086,35.8356476-23.4038086
			h66.6112976c17.7774048,0,32.9421692,9.9039001,35.8356323,23.4038086L380.2887878,303.3602905z"/>
		
			<line id="XMLID_59_" fill="none" stroke="#34508B" stroke-width="3" stroke-linecap="round" stroke-linejoin="round" stroke-miterlimit="10" x1="366.4229126" y1="303.3602905" x2="353.5553894" y2="243.1168365"/>
		<g id="XMLID_58_">
			
				<path id="XMLID_63_" fill="none" stroke="#34508B" stroke-width="3" stroke-linecap="round" stroke-linejoin="round" stroke-miterlimit="10" d="
				M233.5532837,227.9098663l2.1105957-9.8472595c1.6518555-7.7063599,12.0895844-13.7437286,23.7627869-13.7437286"/>
		</g>
	</g>
	
		<path id="XMLID_84_" fill="#FFFFFF" stroke="#34508B" stroke-width="3" stroke-linecap="round" stroke-linejoin="round" stroke-miterlimit="10" d="
		M819.954895,231.7939148H604.6051025l0,0c0,4.3543701,3.5299072,7.8842773,7.8842773,7.8842773h199.5812378
		C816.4249878,239.6781921,819.954895,236.1482849,819.954895,231.7939148L819.954895,231.7939148z"/>
	
		<path id="XMLID_85_" fill="#C8EBFF" stroke="#34508B" stroke-width="3" stroke-linecap="round" stroke-linejoin="round" stroke-miterlimit="10" d="
		M789.9349365,132.1721344H634.625061c-6.9332886,0-12.553772,5.6205292-12.553772,12.5538025v94.9522552h180.4174194v-94.9522552
		C802.4887085,137.7926636,796.8681641,132.1721344,789.9349365,132.1721344z"/>
	
		<circle id="XMLID_88_" fill="#FFFFFF" stroke="#34508B" stroke-width="3" stroke-linecap="round" stroke-linejoin="round" stroke-miterlimit="10" cx="712.2799683" cy="190.6242065" r="8.733077"/>
	<path id="XMLID_96_" fill="#E7E3E4" d="M712.2803955,183.6774445c-3.2051392,0-5.9090576,2.1805573-6.7080078,5.1356354
		c1.8537598-1.5374298,4.2192383-2.4387207,6.7080078-2.4387207c2.4887085,0,4.8530273,0.9012909,6.7067871,2.4387207
		C718.1882324,185.8580017,715.484314,183.6774445,712.2803955,183.6774445z"/>
	
		<line id="XMLID_115_" fill="none" stroke="#34508B" stroke-width="3" stroke-linecap="round" stroke-linejoin="round" stroke-miterlimit="10" x1="842.4202271" y1="212.4569092" x2="842.4202271" y2="239.6781921"/>
	<g id="XMLID_124_">
		
			<rect id="XMLID_111_" x="164.5770721" y="197.2342987" fill="#FFFFFF" stroke="#34508B" stroke-width="3" stroke-linecap="round" stroke-linejoin="round" stroke-miterlimit="10" width="35.3292694" height="42.443882"/>
		<rect id="XMLID_127_" x="193.5552063" y="199.0204163" fill="#E7E3E4" width="4.56463" height="38.8720436"/>
		<g id="XMLID_118_">
			
				<path id="XMLID_123_" fill="#A5D996" stroke="#34508B" stroke-width="3" stroke-linecap="round" stroke-linejoin="round" stroke-miterlimit="10" d="
				M182.241684,139.1864777l-11.1933289,24.7963562c-4.0757904,9.0290222-3.6826019,19.4466553,1.0622101,28.1427612
				l2.7874451,5.1087189h7.3436737h7.34375l2.7874298-5.1086884c4.7448273-8.6961212,5.1380157-19.1137848,1.0621948-28.142807
				L182.241684,139.1864777z"/>
			
				<line id="XMLID_120_" fill="none" stroke="#34508B" stroke-width="3" stroke-linecap="round" stroke-linejoin="round" stroke-miterlimit="10" x1="182.241684" y1="197.234314" x2="182.241684" y2="170.375473"/>
			
				<line id="XMLID_122_" fill="none" stroke="#34508B" stroke-width="3" stroke-linecap="round" stroke-linejoin="round" stroke-miterlimit="10" x1="182.2417145" y1="181.2824097" x2="187.5185852" y2="176.0055542"/>
		</g>
	</g>
	<g id="XMLID_132_">
		
			<circle id="XMLID_125_" fill="#FF9F9E" stroke="#34508B" stroke-width="3" stroke-linecap="round" stroke-linejoin="round" stroke-miterlimit="10" cx="652.2400513" cy="57.4447746" r="38.107975"/>
		
			<circle id="XMLID_126_" fill="#FFFFFF" stroke="#34508B" stroke-width="3" stroke-linecap="round" stroke-linejoin="round" stroke-miterlimit="10" cx="652.2400513" cy="57.4447746" r="26.7946701"/>
		
			<line id="XMLID_130_" fill="#FFFFFF" stroke="#34508B" stroke-width="3" stroke-linecap="round" stroke-linejoin="round" stroke-miterlimit="10" x1="652.2400513" y1="57.4447746" x2="652.2400513" y2="43.7497177"/>
		
			<line id="XMLID_131_" fill="#FFFFFF" stroke="#34508B" stroke-width="3" stroke-linecap="round" stroke-linejoin="round" stroke-miterlimit="10" x1="652.2399292" y1="57.4445267" x2="659.0874634" y2="57.4445267"/>
		
			<circle id="XMLID_129_" fill="none" stroke="#34508B" stroke-width="3" stroke-linecap="round" stroke-linejoin="round" stroke-dasharray="0,12.5298777" cx="652.2400513" cy="57.4447632" r="19.9471436"/>
	</g>
	
		<path id="XMLID_133_" fill="#FFFFFF" stroke="#34508B" stroke-width="3" stroke-linecap="round" stroke-linejoin="round" stroke-miterlimit="10" d="
		M874.7921143,226.0675507h-10.4349976c-5.0108643,0-9.072998,4.0621185-9.072998,9.072998v4.5376434h28.5809937v-4.5376434
		C883.8651123,230.1296692,879.8029785,226.0675507,874.7921143,226.0675507z"/>
	
		<path id="XMLID_134_" fill="#FFFAAD" stroke="#34508B" stroke-width="3" stroke-linecap="round" stroke-linejoin="round" stroke-miterlimit="10" d="
		M855.9294434,231.7939148h27.2946167V229.58284c0-4.4377594-3.5975342-8.0352631-8.0352783-8.0352631h-11.2240601
		c-4.4378052,0-8.0352783,3.5975037-8.0352783,8.0352631V231.7939148z"/>
	<g id="XMLID_142_">
		
			<rect id="XMLID_140_" x="537.0230103" y="153.0063629" fill="#D3C7CE" stroke="#34508B" stroke-width="3" stroke-linecap="round" stroke-linejoin="round" stroke-miterlimit="10" width="8.6338387" height="49.2907791"/>
		
			<path id="XMLID_141_" fill="#FFFFFF" stroke="#34508B" stroke-width="3" stroke-linecap="round" stroke-linejoin="round" stroke-miterlimit="10" d="
			M541.3399048,144.0217438L541.3399048,144.0217438c-2.3841553,0-4.3168945,1.9327393-4.3168945,4.3169098v4.6677094h8.6338501
			v-4.6677094C545.6568604,145.954483,543.7240601,144.0217438,541.3399048,144.0217438z"/>
		
			<polygon id="XMLID_143_" fill="#FFFFFF" stroke="#34508B" stroke-width="3" stroke-linecap="round" stroke-linejoin="round" stroke-miterlimit="10" points="
			537.0230103,202.2971497 541.3399048,208.5669708 545.6568604,202.2971497 		"/>
	</g>
	<g id="XMLID_146_">
		
			<rect id="XMLID_149_" x="561.2056885" y="152.4367218" transform="matrix(0.9724344 0.2331767 -0.2331767 0.9724344 56.8803978 -126.9853134)" fill="#3BDDBA" stroke="#34508B" stroke-width="3" stroke-linecap="round" stroke-linejoin="round" stroke-miterlimit="10" width="8.6338387" height="49.2907791"/>
		
			<path id="XMLID_148_" fill="#FFFFFF" stroke="#34508B" stroke-width="3" stroke-linecap="round" stroke-linejoin="round" stroke-miterlimit="10" d="
			M573.3643799,144.3791351L573.3643799,144.3791351c-1.4124146-0.3386841-2.8319092,0.5317383-3.1705933,1.9441223
			l-1.4818115,6.1796112l5.1147461,1.2264404l1.4817505-6.1796112
			C575.6471558,146.1373138,574.7767334,144.717804,573.3643799,144.3791351z"/>
		
			<polygon id="XMLID_147_" fill="#FFFFFF" stroke="#34508B" stroke-width="3" stroke-linecap="round" stroke-linejoin="round" stroke-miterlimit="10" points="
			555.5780029,200.0415344 558.3139038,207.1451263 563.9738159,202.0547333 		"/>
		
			<polyline id="XMLID_144_" fill="none" stroke="#34508B" stroke-width="3" stroke-linecap="round" stroke-linejoin="round" stroke-miterlimit="10" points="
			574.5170898,158.0852509 578.9562988,159.149704 573.9579468,179.9945526 		"/>
	</g>
	<g id="XMLID_137_">
		
			<rect id="XMLID_135_" x="532.5571899" y="199.3572845" fill="#62C3EF" stroke="#34508B" stroke-width="3" stroke-linecap="round" stroke-linejoin="round" stroke-miterlimit="10" width="41.6805992" height="40.3209"/>
		
			<path id="XMLID_136_" fill="#62C3EF" stroke="#34508B" stroke-width="3" stroke-linecap="round" stroke-linejoin="round" stroke-miterlimit="10" d="
			M575.0964355,191.5475159h-43.3978271c-2.1566162,0-3.9049072,1.7482758-3.9049072,3.9048767v0.0000153
			c0,2.156601,1.748291,3.9048767,3.9049072,3.9048767h43.3978271c2.1566162,0,3.9049072-1.7482758,3.9049072-3.9048767v-0.0000153
			C579.0013428,193.2957916,577.2530518,191.5475159,575.0964355,191.5475159z"/>
	</g>
	<circle id="XMLID_165_" fill="#34508B" cx="427.734375" cy="303.3602905" r="4.7926016"/>
	
		<path id="XMLID_170_" fill="#FFFFFF" stroke="#34508B" stroke-width="3" stroke-linecap="round" stroke-linejoin="round" stroke-miterlimit="10" d="
		M898.7144775,83.2070923c-13.2714233,0-24.0298462,10.7584915-24.0298462,24.0297394
		c0,0.3561859,0.0115356,0.7096176,0.0269165,1.0620346l-11.928894,7.1033783l13.8424072,1.3031387
		c3.6752319,8.5626831,12.1806641,14.5612335,22.0894165,14.5612335c13.2711792,0,24.0296631-10.7584839,24.0296631-24.0297852
		C922.7441406,93.9655838,911.9856567,83.2070923,898.7144775,83.2070923z"/>
	<g id="XMLID_168_">
		<circle id="XMLID_157_" fill="#34508B" cx="888.5889893" cy="108.1054001" r="2.6132627"/>
		<circle id="XMLID_169_" fill="#34508B" cx="898.8584595" cy="108.1054001" r="2.6132627"/>
		<circle id="XMLID_171_" fill="#34508B" cx="909.1278687" cy="108.1054001" r="2.6132627"/>
	</g>
	<g id="XMLID_54_">
		
			<path id="XMLID_48_" fill="#62C3EF" stroke="#34508B" stroke-width="3" stroke-linecap="round" stroke-linejoin="round" stroke-miterlimit="10" d="
			M240.6937866,130.385788h-0.0000153c-2.5211792,0-4.5650177-2.0438232-4.5650177-4.5650177V106.369812
			c0-2.5211868,2.0438385-4.5650101,4.5650177-4.5650101h0.0000153c2.5211792,0,4.5650024,2.0438232,4.5650024,4.5650101v19.4509583
			C245.2587891,128.3419647,243.2149658,130.385788,240.6937866,130.385788z"/>
		
			<path id="XMLID_55_" fill="#62C3EF" stroke="#34508B" stroke-width="3" stroke-linecap="round" stroke-linejoin="round" stroke-miterlimit="10" d="
			M343.3074646,130.385788L343.3074646,130.385788c-2.5211792,0-4.5650024-2.0438232-4.5650024-4.5650177V106.369812
			c0-2.5211868,2.0438232-4.5650101,4.5650024-4.5650101l0,0c2.5211792,0,4.565033,2.0438232,4.565033,4.5650101v19.4509583
			C347.8724976,128.3419647,345.8286438,130.385788,343.3074646,130.385788z"/>
	</g>
	
		<path id="XMLID_50_" fill="#666666" stroke="#34508B" stroke-width="3" stroke-linecap="round" stroke-linejoin="round" stroke-miterlimit="10" d="
		M292.0006104,55.6584625c-6.3223572,0-12.3704224,1.1637611-17.953949,3.2738113
		c-5.0468445-3.8998489-9.0392151-5.4571304-9.0392151-5.4571304c2.8041382,1.735939,3.3599548,5.6210365,3.4250793,7.9822884
		c-0.6865845,0.3602295-1.362915,0.7363739-2.0304565,1.1266212l-4.7687378-1.963665v5.1084633
		c-12.4087524,9.2643051-20.4433746,30.0180359-20.4433746,46.6945648c0,28.0619354,22.7487335,44.8562927,50.8106537,44.8562927
		c28.0619507,0,50.8106689-16.7943573,50.8106689-44.8562927S320.062561,55.6584625,292.0006104,55.6584625z"/>
	
		<rect id="XMLID_17_" x="276.8169861" y="147.9512177" fill="#FFFAAD" stroke="#34508B" stroke-width="3" stroke-linecap="round" stroke-linejoin="round" stroke-miterlimit="10" width="30.3672924" height="19.0539875"/>
	
		<path id="XMLID_57_" fill="none" stroke="#34508B" stroke-width="3" stroke-linecap="round" stroke-linejoin="round" stroke-miterlimit="10" d="
		M267.2080994,76.057045c0,0-1.1242981,5.6152878,2.123291,7.1336823l3.6074829-6.6650085"/>
	
		<path id="XMLID_173_" fill="none" stroke="#34508B" stroke-width="3" stroke-linecap="round" stroke-linejoin="round" stroke-miterlimit="10" d="
		M240.6937866,101.8048019v-9.307373c0-28.4270554,23.0446777-51.4717331,51.4717407-51.4717331h0.0000916
		c28.427063,0,51.4717407,23.0446777,51.4717407,51.4717331v9.307373"/>
	
		<path id="XMLID_172_" fill="none" stroke="#34508B" stroke-width="3" stroke-linecap="round" stroke-linejoin="round" stroke-miterlimit="10" d="
		M240.6937866,130.385788v18.3667755c0,3.8078766,3.0868835,6.8947754,6.8947754,6.8947754h3.3269043"/>
	
		<path id="XMLID_174_" fill="#34508B" stroke="#34508B" stroke-width="3" stroke-linecap="round" stroke-linejoin="round" stroke-miterlimit="10" d="
		M257.8916321,160.7085571h-3.2344818c-2.0664825,0-3.741684-1.6752167-3.741684-3.741684v-0.0000153
		c0-2.0664673,1.6752014-3.741684,3.741684-3.741684h3.2344818c2.0664978,0,3.7416992,1.6752167,3.7416992,3.741684v0.0000153
		C261.6333313,159.0333405,259.9581299,160.7085571,257.8916321,160.7085571z"/>
</g>
<circle id="XMLID_1_" fill="#34508B" cx="1049.734375" cy="239.3603058" r="4.7926016"/>
</svg>
