<?xml version="1.0" encoding="utf-8"?>
<!-- Generator: Adobe Illustrator 21.1.0, SVG Export Plug-In . SVG Version: 6.00 Build 0)  -->
<svg version="1.1" baseProfile="tiny" id="Layer_1" xmlns="http://www.w3.org/2000/svg" xmlns:xlink="http://www.w3.org/1999/xlink"
	 x="0px" y="0px" viewBox="0 0 496 389" xml:space="preserve">
<g>
	<g>
		<path fill="none" stroke="#E0F4FF" stroke-width="15.3955536" stroke-miterlimit="22.9256001" d="M268.1793213,250.8935547
			c-83.6334229,127.5248413-151.0037537-49.2695465-229.1154175,27.7979431"/>
		<g>
			<path fill="#E0F4FF" d="M44.0042114,266.2196045l7.8544998,10.7107849
				c2.315918,3.1557007,1.6268044,7.6309204-1.5284996,9.9471741l-12.4225121,9.110199l-16.2712593-22.186554l12.4205055-9.1109009
				C37.2139359,262.3763733,41.6890907,263.0638733,44.0042114,266.2196045z"/>
			<path fill="#E0F4FF" d="M32.1545448,272.2484131L32.1545448,272.2484131
				c1.617424,2.2059326,1.136631,5.3334656-1.0684738,6.9505005l-17.2265911,12.6330872
				c-2.2051039,1.6170044-5.3303375,1.1362305-6.946959-1.0672913l0,0
				c-1.6178246-2.2035828-1.1362295-5.3303223,1.0672703-6.9480591l17.2277946-12.6362915
				C27.4111652,269.5656433,30.5375214,270.0472412,32.1545448,272.2484131z"/>
			<path fill="#E0F4FF" d="M42.547718,286.4202576L42.547718,286.4202576c1.617424,2.2051086,1.1362305,5.3318787-1.06847,6.9465637
				l-17.2269936,12.635498c-2.2035007,1.6170044-5.3310585,1.1362305-6.9469585-1.0680847l0,0
				c-1.6177444-2.2051086-1.1358299-5.3303223,1.0677509-6.9465637l17.2273178-12.6362915
				C37.8043404,283.734375,40.9306984,284.2159729,42.547718,286.4202576z"/>
		</g>
	</g>
	<path fill="#F9A818" d="M368.7167358,296.2375488c12.0255127,1.1949158,20.4723206,6.6364746,23.0533447,21.4018555
		c3.1361389,17.9462585,1.1181946,58.8683472-17.2375793,64.8540344
		c-11.5102234,3.7492981-21.7808838-7.9395142-25.7165527-27.1182251
		C346.1190796,342.2182007,338.9493408,293.2814941,368.7167358,296.2375488z"/>
	<path fill="#E0F4FF" d="M252.4413605,267.6416931c7.1595306,23.5106506,24.7392731,73.6187744,66.878952,74.5530396
		c12.188385,0.2693176,24.3243103,0.2990723,27.9240723,6.6419067c9.6324463,16.9658508,31.1416016-12.580719,31.0969238-30.286499
		c-0.0696716-29.1730347-20.8200073-28.0375977-46.0557861-23.5646973
		c-2.1119385,0.3735046-3.5245667-26.8190918-13.6026001-43.1764832
		C308.9455872,236.0035706,239.9170227,226.5207367,252.4413605,267.6416931z"/>
	<path fill="#F9A818" d="M458.3601379,258.7891235c12.0427551-1.0140381,21.3384094,2.7962952,26.5653992,16.843689
		c6.3561401,17.074646,11.8234558,57.6819153-5.1322021,66.907196c-10.6339722,5.7853088-22.8645935-3.8338318-30.2278137-21.978241
		C444.515625,308.1165771,428.552887,261.3035889,458.3601379,258.7891235z"/>
	<path fill="#FCDA9F" d="M473.6212158,261.2456055c1.3374939,2.1738281,2.6130676,4.5174866,3.8002319,6.989624
		c4.8972473,10.1930847,8.429657,22.7369995,8.4719238,34.956665c0.0454712,13.0066528-0.8495483,23.6195374-5.3397217,31.0891418
		c-2.5574341,4.2567444-6.1516724,7.4179688-11.1985474,9.3184509c-2.6506348-0.8026428-5.2755127-2.3734131-7.7821045-4.6161194
		c6.7477112-0.9396973,10.9653015-3.7046509,13.5352478-7.9794312c3.7376099-6.2174988,4.478363-15.8374634,4.438446-27.7892761
		c-0.0391235-11.2119446-3.3084717-22.777771-7.8384705-32.2081604c-2.3092651-4.8079834-4.8972473-9.0224609-7.4962158-12.2917175
		C467.6448975,258.9520569,470.7959595,259.741333,473.6212158,261.2456055z"/>
	<path fill="#E0F4FF" d="M344.2162781,260.5291443c13.932251,20.2460632,37.1766663,44.6134033,79.2184448,47.6242371
		c9.2080383,0.6616821,20.1991577-2.1322327,23.9961853,0.6460571c8.9762878,6.5675049,27.1331177-18.5907288,23.4151611-31.2653503
		c-7.9911499-27.2364655-18.2108459-24.0627289-49.6046448-19.2539062
		c-2.1213074,0.3249207-15.0231018-33.302124-29.5731812-45.8483582
		C377.6068115,200.3124084,319.8442383,225.1190186,344.2162781,260.5291443z"/>
	<path fill="#F4F9FC" d="M268.5583496,270.0542908c1.2849731,17.5664368,11.2486572,40.1899109,18.4559937,48.4378967
		c7.2080383,8.2479553,29.7133179,11.3387146,13.9823608-39.2729187
		C285.267334,228.6044464,267.5708618,233.7703247,268.5583496,270.0542908z"/>
	<path fill="#F4F9FC" d="M348.2396545,250.5090637c7.9472656,16.1145935,24.480896,31.7781982,33.2206421,35.2949829
		c8.7381592,3.5166931,27.0258484-7.3036194-4.9943542-46.3659668
		C344.4464722,200.3789673,333.084259,216.1968536,348.2396545,250.5090637z"/>
	<path fill="#BEDCED" d="M282.7490234,93.8934555c77.3305054-22.5667038,190.3718262,143.7232056,53.5935669,183.6421509
		C199.5627289,317.4514465,205.4200439,116.4620972,282.7490234,93.8934555z"/>
	<path fill="#E0F4FF" d="M282.7490234,93.8934555c77.3305054-22.5667038,188.5010986,137.3139038,51.7212524,177.2289124
		C197.6912079,311.0405273,205.4200439,116.4620972,282.7490234,93.8934555z"/>
	<path fill="#F4F9FC" d="M283.4286804,96.2206879c66.6159363-19.4406815,164.8839417,126.8506317,47.0534668,161.2364655
		C212.6507874,291.844574,216.8120117,115.6602402,283.4286804,96.2206879z"/>
	<path fill="#BEDCED" d="M280.86026,87.4092484c25.9577637-7.5752869,57.8479614,9.0913544,80.4439392,33.6470795
		c-30.2480774,44.0675888-80.7469482,55.8581619-129.5920868,35.7263718
		C237.5999756,124.0338593,254.9048309,94.9838257,280.86026,87.4092484z"/>
	<path fill="#E0F4FF" d="M179.4407196,78.3413849l7.8999634-2.305336l17.155304,58.7903976l-7.8979492,2.3038025
		c-2.6890259,0.7861481-8.7099915-11.7389297-13.4467316-27.9721832
		C178.4133911,92.9228134,176.7516937,79.1260834,179.4407196,78.3413849z"/>
	<path fill="#E0F4FF" d="M378.6342468,84.0068893c2.6882019-0.7842865,1.0273438-14.5806198-3.7109985-30.8142738
		c-4.7359314-16.2356567-10.7592163-28.7595234-13.4459229-27.9749088l-7.8979492,2.3045349l17.1536865,58.7907104
		L378.6342468,84.0068893z"/>
	<path fill="#BEDCED" d="M187.3014679,76.0474319l3.0994263-0.904007l17.1560974,58.7895889l-3.0977936,0.9052124
		C182.4148102,121.2677002,176.0700378,99.3216248,187.3014679,76.0474319z"/>
	<path fill="#BEDCED" d="M354.31073,27.3092575l-3.3225708,0.9693737l17.1553345,58.7892685l3.3233643-0.9694443
		C382.3788147,62.9119911,376.1472168,40.9329605,354.31073,27.3092575z"/>
	
		<ellipse transform="matrix(0.9599616 -0.2801317 0.2801317 0.9599616 -11.567276 81.4172211)" fill="#E0F4FF" cx="279.0370789" cy="81.1742477" rx="95.8454208" ry="71.3131561"/>
	
		<ellipse transform="matrix(0.9599646 -0.2801214 0.2801214 0.9599646 -12.8411531 81.9918976)" fill="#F4F9FC" cx="280.4215393" cy="85.9197006" rx="81.3242188" ry="62.1091652"/>
	<path fill="#FCD592" d="M352.9755859,57.6365013c0.1088867,0.3413391,0.2185059,0.6812553,0.3187256,1.0254135
		c9.7099915,33.2714882-15.7653809,69.9744415-56.9020081,81.9803162
		c-41.1358643,12.0043335-82.3539124-5.2370911-92.0639038-38.5070496c-0.0994263-0.3445587-0.191803-0.6899185-0.284256-1.0355988
		C229.9087372,61.8128891,307.9612122,38.9235916,352.9755859,57.6365013z"/>
	<g>
		<g>
			<g>
				
					<ellipse transform="matrix(0.9599928 -0.2800248 0.2800248 0.9599928 -16.2067451 75.3050156)" fill="none" stroke="#FFFFFF" stroke-width="9.6221905" stroke-linecap="round" stroke-linejoin="round" stroke-miterlimit="22.9256001" cx="255.4398804" cy="94.3708878" rx="8.0778046" ry="8.0788422"/>
				<path d="M253.1773834,86.6152573c4.2826385-1.2497787,8.7679901,1.2090378,10.0169525,5.4923859
					c1.2497559,4.2833557-1.208252,8.7683792-5.4924011,10.0188751c-4.2817535,1.2490463-8.7671661-1.2090454-10.0161438-5.4923935
					C246.4352264,92.350769,248.8948517,87.8654175,253.1773834,86.6152573z"/>
			</g>
			
				<ellipse transform="matrix(0.959898 -0.2803494 0.2803494 0.959898 -14.8754158 75.8560867)" fill="#FFFFFF" cx="257.7138977" cy="89.9244003" rx="2.6172867" ry="2.6172104"/>
		</g>
		<g>
			<g>
				
					<ellipse transform="matrix(0.959978 -0.2800755 0.2800755 0.959978 -10.0482121 88.8971252)" fill="none" stroke="#FFFFFF" stroke-width="9.6221905" stroke-linecap="round" stroke-linejoin="round" stroke-miterlimit="22.9256001" cx="306.0284729" cy="79.6074295" rx="8.0779114" ry="8.0773773"/>
				<path d="M303.7663879,71.8533249c4.2833557-1.2516937,8.7663879,1.2071152,10.0161438,5.4904709
					c1.2505798,4.2837524-1.2082214,8.768692-5.4915771,10.017746c-4.2818298,1.251297-8.7687683-1.2079163-10.0169373-5.4904709
					C297.024231,77.5873184,299.4822388,73.1019745,303.7663879,71.8533249z"/>
			</g>
			
				<ellipse transform="matrix(0.959949 -0.2801749 0.2801749 0.959949 -8.7102661 89.3888168)" fill="#FFFFFF" cx="308.3022766" cy="75.1605148" rx="2.6172793" ry="2.6174471"/>
		</g>
		<path fill="#381E1E" d="M234.7042236,93.9247284c-4.1252289-7.8921051,12.6746216-25.4350281,20.6368103-23.9734039
			c6.8674011,1.2595444-5.203476,2.416069-11.7091827,11.0035477
			C235.5733643,91.5881271,238.0745087,100.3763809,234.7042236,93.9247284z"/>
		<path fill="#381E1E" d="M324.2247009,68.4865723c0.1291809-8.9042168-22.7738037-17.0014267-29.2246704-12.1108398
			c-5.5613708,4.2156067,5.7374268-0.1871414,15.4122314,4.5503845
			C322.3962402,66.7928162,324.119751,75.7655029,324.2247009,68.4865723z"/>
		<g>
			<path fill="#381E1E" d="M286.9384155,105.6268539c20.73703-6.0605011,48.8521118-3.2986755,43.1380615,6.509552
				c-3.1917725,5.482605-12.6972961,4.8405609-38.0270386,11.2866821
				c-21.0933838,5.3675461-32.3976135,10.075325-37.5345612,7.9374924
				C246.7273407,128.1179504,255.568924,114.7972794,286.9384155,105.6268539z"/>
			<g>
				<path fill="#FFFFFF" d="M270.3664551,111.7002716c0.056366,0.1468201,0.1080017,0.2955627,0.1518555,0.4506454
					c0.8128662,2.7873306-0.7861328,5.708168-3.5746765,6.5209351c-2.1949158,0.6421204-4.4704895-0.2148972-5.7366943-1.9682388
					C263.7229004,115.0439301,266.7674866,113.358429,270.3664551,111.7002716z"/>
				<path fill="#FFFFFF" d="M283.7106323,106.6111374c0.1980591,2.4369049-1.3312683,4.7590866-3.7673645,5.469696
					c-2.2199402,0.6487808-4.5260925-0.2345428-5.7829285-2.0273285
					C277.0467224,108.8718033,280.2251892,107.7164154,283.7106323,106.6111374z"/>
				<path fill="#FFFFFF" d="M299.1603699,103.1304398c-0.2364502,2.033989-1.6607971,3.8275757-3.750824,4.4364243
					c-2.4368591,0.7110062-4.9732056-0.4216919-6.1195984-2.5806122
					C292.4957581,104.1710892,295.832428,103.552124,299.1603699,103.1304398z"/>
				<path fill="#FFFFFF" d="M315.3345337,102.6190948c-0.3977356,1.8214188-1.7516479,3.3742065-3.6678467,3.9340668
					c-2.7876587,0.8132401-5.7077026-0.7873459-6.5213318-3.5753937c-0.0391235-0.1323929-0.0728149-0.2638931-0.1010437-0.3970795
					C308.6526794,102.3653793,312.1436462,102.3806152,315.3345337,102.6190948z"/>
			</g>
			<path fill="#8F410E" d="M273.7852478,128.4272308c1.1347046-6.7374344,4.9560242-12.0884628,9.0341797-15.4216156
				c2.1549988-1.7618408,6.1768494,7.9308319,8.1118164,7.3890228c1.7281799-0.482399,2.078186-11.3728027,4.4352417-10.7984314
				c4.4243164,1.0763245,9.6003723,4.1666794,14.1992493,9.8399734c-4.7727051,0.9748917-10.5439148,2.2132797-17.5162964,3.986908
				C284.8765869,125.2480316,278.8344421,126.9966354,273.7852478,128.4272308z"/>
		</g>
	</g>
	<g>
		<path fill="#E0F4FF" d="M233.7825012,187.6784515c-9.960495,6.8917084-38.6793671,2.7313538-56.0621643-1.8354492
			c-17.3843994-4.5668945-39.3152313-14.3637238-47.5741882-22.8740692
			c-7.0545654-7.2684174,13.5818329-36.3474121,27.7471008-25.9741974
			c13.7313843,10.0545502,24.7024536,22.581955,42.8495026,17.6283264
			c9.7969208-2.6710663,23.1152496-3.2606659,30.0030365-0.1166687
			C241.77211,159.5429993,243.7688904,180.768692,233.7825012,187.6784515z"/>
		<path fill="#BEDCED" d="M140.4117584,170.5834351c-4.282959-2.5410767-7.8572388-5.1321869-10.2656097-7.614502
			c-7.0545654-7.2684174,13.5818329-36.3474121,27.7471008-25.9741974c2.4122162,1.7650452,4.7359161,3.6068268,7.0302734,5.4156494
			c-2.4501495,8.5392914-9.1583252,15.9227753-16.1698303,22.7917938
			C146.105011,167.8004456,143.3082886,169.5255585,140.4117584,170.5834351z"/>
		<path fill="#BEDCED" d="M233.7825012,187.6784515c-2.955246,2.0461731-7.5651093,3.1189728-13.0379333,3.4956055
			c12.8899841-4.2097473,20.1082153-22.3704987,3.9270172-38.1108551c2.9654846,0.3148193,4.0014801,0.4980469,6.0742035,1.4431915
			C241.77211,159.5429993,243.7688904,180.768692,233.7825012,187.6784515z"/>
		<path fill="#F9A818" d="M143.1078339,157.848526c8.3466797-8.1790924,13.2149811-16.6949768,12.1405792-29.1934052
			c-1.7411499-20.2315521-8.18927-22.8395844-11.9307251-8.3662491
			c-3.5946503,13.9041061-13.2435455,1.9713516-17.1295013-7.6586838
			c-4.2313156-10.4903641-17.3409348-10.2793121-11.3586884,1.1988525
			c7.4477158,14.2889099,4.5343399,17.4759674-6.4426727,8.8470383c-6.3122864-4.9606857-17.8161926,1.5269699-7.9351654,8.6132889
			c12.7094955,9.1132507,15.6416397,15.1577301,2.6682587,12.0975189
			c-8.0044479-1.8863525-14.6322708,6.542511-1.8417053,10.3457947
			C114.2050095,157.5775757,130.7201996,169.9906311,143.1078339,157.848526z"/>
		<path fill="#FCDA9F" d="M155.2382202,128.6191101c-0.4627533,0.3296509-0.9521942,0.6342773-1.4592133,0.9068146
			c-1.2019806,0.6467896-2.5171814,1.1416931-3.8432922,1.3906708c-1.4012451,0.2662964-2.8299866,0.267807-4.1854553-0.0907745
			c-2.1788788-0.5732422-4.082077-1.9937286-5.2692261-4.5950394c1.1780853-0.8903809,2.2152863-2.6459579,3.0085602-5.5237503
			l0.0015259-0.005043c0.100235,0.4490356,0.1910858,0.9106674,0.271347,1.3891373
			c0.4733429,2.8295898,1.6737976,4.1537704,3.0860138,4.526474c0.6988983,0.1848297,1.4835205,0.1746445,2.2881012,0.0219727
			c0.8770752-0.1675873,1.7607117-0.4996414,2.5794067-0.9396973c1.2568359-0.6762009,2.3406219-1.533638,2.9514008-2.3417358
			C154.8983917,124.9485397,155.0914001,126.7029953,155.2382202,128.6191101L155.2382202,128.6191101z M130.5251923,120.5758591
			c-1.1804962,1.2936325-2.7505341,2.3535233-4.4861526,3.004631c-1.8237381,0.685585-3.8585281,0.9388962-5.8537827,0.5755692
			c-0.4177704-0.0759354-0.8328094-0.1781693-1.2431183-0.3100739c-0.3011017-1.8781891-1.2086411-4.4869461-2.7552567-7.8153763
			c0.3555374,0.4216995,0.7200699,0.889183,1.094368,1.4051819c1.0430527,1.4373245,2.3471985,2.1878586,3.6838913,2.4321899
			c1.1820908,0.2153778,2.4165497,0.0536423,3.5442047-0.3707809c1.151062-0.4306793,2.1662903-1.1166687,2.8859558-1.9400101
			c0.3046341-0.3460846,0.5544052-0.7157364,0.7332993-1.091568
			C128.8490601,117.8880386,129.6603088,119.2873535,130.5251923,120.5758591L130.5251923,120.5758591z M114.0311661,126.3732758
			c-0.0454636,1.0125046-0.1750412,2.0343933-0.3923416,3.0218658c-0.4130402,1.8738708-1.1503448,3.6741028-2.2508926,5.1031799
			c-0.9404984,1.219223-2.1279678,2.1597137-3.5860519,2.6577454c-1.5896072-1.5692291-3.681572-3.3483887-6.222168-5.2841492
			c0.1945267,0.1049652,0.3945923,0.2145844,0.603714,0.3289185c1.5042801,0.8300934,2.7062683,1.1041565,3.6478882,0.975708
			c0.8542938-0.1151428,1.5563202-0.612381,2.1111221-1.3327637c0.6769257-0.8794098,1.1514664-2.0813904,1.4396515-3.3875275
			c0.3896255-1.769783,0.4287567-3.6271896,0.1621399-5.1051712
			C111.2626038,124.6888962,112.7614288,125.6951447,114.0311661,126.3732758L114.0311661,126.3732758z M110.628334,143.6649017
			c1.135025,1.5966492,2.1416779,3.4877472,2.7775497,5.477478c0.5673141,1.779953,0.8523712,3.6522064,0.6922379,5.4853363
			c-0.1147385,1.3195343-0.45224,2.6123657-1.0685501,3.8330994c-1.3471985-0.5872803-2.6811676-1.1870575-3.998291-1.7688904
			c0.4236145-0.7674561,0.6523056-1.5943298,0.725914-2.4423676c0.1076889-1.2388763-0.09478-2.5363617-0.496109-3.7923737
			c-0.9173203-2.8730621-2.8001556-5.4548645-4.4414749-6.726532l-0.2274857-0.1785736
			C107.6812744,144.2051849,109.6542358,144.2028656,110.628334,143.6649017z"/>
	</g>
	<g>
		<path fill="#E0F4FF" d="M379.9638672,155.060791c11.987915-1.7297668,30.197998-24.324295,39.8265381-39.4992676
			c9.6316223-15.1772842,19.0315552-37.2819595,19.289978-49.1375656
			c0.223175-10.1249504-34.6865234-17.3882446-38.0074768-0.1475372
			c-3.2168884,16.7117157-2.7305603,33.357605-19.3981018,42.0809174
			c-8.997406,4.7074509-19.1576233,13.3410339-22.0604248,20.3299332
			C354.9606323,139.8811035,367.9446106,156.7944794,379.9638672,155.060791z"/>
		<path fill="#BEDCED" d="M436.7405701,78.9901657c1.4111023-4.7762527,2.2654114-9.1078033,2.3398132-12.5662079
			c0.223175-10.1249504-34.6865234-17.3882446-38.0074768-0.1475372c-0.5646667,2.9344711-1.0149231,5.8670959-1.4651489,8.7537766
			c7.6082458,4.5887833,17.5476379,5.4309692,27.3585815,5.6944656
			C430.6765442,80.8244934,433.8980713,80.1866913,436.7405701,78.9901657z"/>
		<path fill="#BEDCED" d="M379.9638672,155.060791c3.5582581-0.5144653,7.6630249-2.8652649,11.9322815-6.3162231
			c-11.7764587,6.2214508-30.1478577-2.1471252-27.9161377-26.661705c-1.9608765,2.24897-3.4924927,4.5010605-4.3656311,6.6044083
			C354.9606323,139.8811035,367.9446106,156.7944794,379.9638672,155.060791z"/>
		<path fill="#F9A818" d="M426.1010742,71.494339c-11.6848145-0.3124847-21.0455933-3.2379761-28.7649841-13.128067
			c-12.4937744-16.0088959-9.5439453-22.3070717,3.047699-14.2489815
			c12.0959167,7.7421608,11.0450745-7.568718,7.3396301-17.2696495c-4.039032-10.565506,5.7084656-19.3338013,9.1360168-6.8517799
			c4.2692566,15.5382843,8.5713501,15.8906212,10.7443848,2.097414c1.2473755-7.9301138,14.0903625-11.0051508,11.6746216,0.9102669
			c-3.110321,15.3265133-1.1455994,21.750742,6.2794189,10.6806431c4.5801086-6.8290882,15.1718445-5.1650772,8.388916,6.3263206
			C447.090271,51.6241074,443.436554,71.9586868,426.1010742,71.494339z"/>
		<path fill="#FCDA9F" d="M397.3180542,58.3337936c0.5645752-0.0744095,1.1299744-0.1836243,1.6859741-0.3297195
			c1.3225708-0.3440781,2.6216736-0.8762016,3.7657471-1.5950546c1.207428-0.7603989,2.2536316-1.7321663,3.0038452-2.9157066
			c1.2034912-1.904808,1.6326599-4.238369,0.7320862-6.9528122c-1.4682007,0.1491432-3.4243164-0.4306793-5.9638062-2.0007935
			l-0.0038452-0.0023232c0.2309265,0.3962784,0.4783936,0.7972031,0.7446899,1.2012596
			c1.5794067,2.3945808,1.6013184,4.1842461,0.8198242,5.4171791c-0.3852234,0.6111755-0.967865,1.1389542-1.6608887,1.5743637
			c-0.7540588,0.4764633-1.6295471,0.8324051-2.5285034,1.0669479c-1.3828735,0.3593941-2.759491,0.468605-3.7555542,0.2928391
			C395.0706787,55.4141579,396.1207886,56.8295135,397.3180542,58.3337936L397.3180542,58.3337936z M409.9512024,35.6214676
			c1.7462769,0.1456184,3.6177368-0.1472206,5.3318481-0.8515701c1.8034668-0.7396317,3.4689941-1.9380875,4.6819763-3.5617657
			c0.2553101-0.3406277,0.487854-0.6984959,0.6984863-1.0736046c-1.0547485-1.5794144-2.1667786-4.1099129-3.2982788-7.601593
			c0.025116,0.5504742,0.0759583,1.1413612,0.15271,1.7736244c0.2145386,1.7638321-0.230957,3.20117-1.0422668,4.2892876
			c-0.7196045,0.9627075-1.7352295,1.684288-2.8503723,2.1416779c-1.1369629,0.4662781-2.3475952,0.6542339-3.4337158,0.5430164
			c-0.4604187-0.0481911-0.8934326-0.1472321-1.2810364-0.301899
			C409.3506165,32.510746,409.7084961,34.0870361,409.9512024,35.6214676L409.9512024,35.6214676z M425.9859924,28.6431561
			c0.7203979,0.7110863,1.5097351,1.3730984,2.3390198,1.9474678c1.5802002,1.0924473,3.3459778,1.9095402,5.1251526,2.20751
			c1.5175781,0.2537041,3.0273132,0.1335068,4.4352112-0.492981c0.0963135-2.2305241,0.4181824-4.9594803,0.9631958-8.1062031
			c-0.0720215,0.208643-0.1455994,0.4247437-0.2200317,0.6507053c-0.5371704,1.6322594-1.2325439,2.6498947-2.0085754,3.1987648
			c-0.7047424,0.4961071-1.5583191,0.608448-2.4556885,0.4589024c-1.0907593-0.1824226-2.2575378-0.7411556-3.3569641-1.5018768
			c-1.4893494-1.0301437-2.7829895-2.3660374-3.5927124-3.6303234
			C426.865387,25.5250587,426.4511414,27.2818451,425.9859924,28.6431561L425.9859924,28.6431561z M440.2439575,38.9976006
			c0.2545166,1.9412155,0.8042603,4.0140114,1.6930237,5.9035034c0.7947998,1.6899109,1.8613586,3.2552147,3.2254028,4.4897537
			c0.9819641,0.8886948,2.1087952,1.6071587,3.3922424,2.0820999c0.5864868-1.3480034,1.1566162-2.6948776,1.7243042-4.0178719
			c-0.83078-0.2736626-1.5622559-0.7247047-2.1940918-1.2955475c-0.9217529-0.8336105-1.6554565-1.9228516-2.2177124-3.1166534
			c-1.2810364-2.7293587-1.6569519-5.9003754-1.3233643-7.9500122l0.0454407-0.2857704
			C442.7717285,37.3861122,441.323822,38.7286606,440.2439575,38.9976006z"/>
	</g>
	<path fill="#FCDA9F" d="M383.2753906,301.4308472c0.9169922,2.383606,1.7462769,4.9199524,2.4635315,7.5667114
		c2.9560547,10.9151001,4.1471252,23.8927307,1.9615784,35.9159241
		c-2.3240967,12.7960205-5.1392517,23.0690002-10.9135742,29.5958557
		c-3.2912292,3.7195129-7.4014587,6.1728516-12.7091064,7.1235352c-2.4611206-1.2725525-4.7554932-3.294342-6.8118286-5.9583435
		c6.8063965,0.3061523,11.4585876-1.6436462,14.7615051-5.3788452c4.8088074-5.4328918,7.2918396-14.7583923,9.4280701-26.5168152
		c2.0031128-11.0318604,0.896637-22.9978027-1.839386-33.0977478c-1.3946533-5.1478271-3.1737366-9.7616272-5.1321716-13.4506226
		C377.8158569,298.0902405,380.7711792,299.4395142,383.2753906,301.4308472z"/>
	<path fill="#F4F9FC" d="M408.1079102,292.6009827c3.4078674-2.9967957,13.7787476-8.6950989,26.4620361-8.1062012
		c12.6793518,0.5864563,21.056488,8.4014282,14.7544556,13.8428955c-6.302887,5.4399719-18.1357117,4.6239929-26.8653564,2.919342
		C413.7310791,299.5483398,404.4556885,295.962677,408.1079102,292.6009827z"/>
	<path fill="#F4F9FC" d="M321.3297119,329.2028809c3.2238464-2.9450378,13.0865173-8.493103,25.2388611-7.7507324
		c12.1531067,0.7415466,20.2711792,8.6324463,14.3034363,13.9745178
		c-5.9693298,5.3444519-17.3111877,4.3851624-25.6930542,2.5762634
		C326.798584,336.1941223,317.8740234,332.5058899,321.3297119,329.2028809z"/>
	<path fill="#BEDCED" d="M347.2678833,348.8757935c9.644165,16.8772888,31.118103-12.6331787,31.0734253-30.3256531
		c-0.0375977-15.5947266-5.9841614-22.5248413-15.3652344-24.9202271c0.2059326,0.3938599,0.4260254,0.815979,0.6679382,1.2669983
		c4.32724,8.086731,10.0984192,41.3441772-7.5706177,49.9444885
		C353.1000977,346.2901306,350.1378174,347.6362,347.2678833,348.8757935z"/>
	<path fill="#BEDCED" d="M446.7762756,308.4086609c0.2364807,0.1151733,0.4565735,0.2458801,0.6546326,0.3907776
		c8.9762878,6.5675049,27.1331177-18.5907288,23.4151611-31.2653503
		c-3.7790527-12.8719482-8.0537415-18.9492798-14.8241577-21.2742615c5.6724854,9.4084778,9.5306091,18.3080444,8.5760803,25.65625
		C463.3505554,291.5274353,458.2152405,301.3893127,446.7762756,308.4086609z"/>
</g>
<path fill="#BEDCED" d="M324.4880981,227.8932037c-13.8485107,3.91362-28.2991333-4.1690369-32.2128601-18.0178986
	c-3.9136047-13.848526,4.1690369-28.2991333,18.0175781-32.2127686c13.8488464-3.9137115,28.299469,4.1689453,32.2131042,18.0174713
	C346.4196167,209.5288696,338.3369751,223.9794769,324.4880981,227.8932037z M310.4837952,178.3382874
	c-13.4760132,3.8083496-21.341156,17.8700409-17.5328064,31.3460541
	c3.8083496,13.4759979,17.8701477,21.3414612,31.3461609,17.5331116
	c13.4759827-3.8083496,21.3413696-17.8704529,17.53302-31.3464661S323.9598083,174.5299377,310.4837952,178.3382874z
	 M325.7282715,232.281601c-16.2684021,4.5974884-33.2441711-4.8972931-37.8417358-21.1660309
	c-4.5975037-16.2684174,4.8977051-33.2439423,21.1661072-37.8414307c16.2687378-4.59758,33.2441711,4.8972931,37.8416748,21.1657104
	C351.4918823,210.7085876,341.9970093,227.684021,325.7282715,232.281601z M309.6255493,175.3013916
	c-15.1505432,4.2815704-23.9933472,20.090744-19.711792,35.241272c4.2816772,15.1508636,20.091095,23.9932709,35.2416077,19.7116852
	c15.1508789-4.281662,23.9933777-20.090744,19.7117004-35.2416077
	C340.5854797,179.8622131,324.7763977,171.0197144,309.6255493,175.3013916z M304.8074341,189.2819519
	c-2.0039062,0.5662994-2.7829285,1.7849731-2.2382812,3.7122192l6.8508606,24.2420654
	c0.5444641,1.9266205,1.8679504,2.6345673,3.9491577,2.0464172c2.0429077-0.5773315,2.7617188-1.862442,2.2172546-3.7890625
	l-1.4885559-5.2672424l-0.4610291-1.6313629l-2.5269165-8.9416656l-1.3574829-4.8035431l-1.0168457-3.5981293
	C308.190918,189.3242798,306.8886414,188.6938019,304.8074341,189.2819519z M332.7505188,205.7396545
	c-0.4185791-1.5666504-1.4340515-2.4691467-3.0535583-2.8621216c-0.6592407-0.1599426-1.2597656-0.3061066-1.8326416-0.445755
	c-2.8678894-0.6989136-4.7622681-1.1681519-6.6115112-1.6286621c-0.6966858-0.1734161-1.3927612-0.3471222-2.1307373-0.5308838
	c-0.5977783-0.1489563-1.2266235-0.305481-1.9119568-0.4754791c-0.3440552-0.0854797-0.6979675-0.173172-1.0743408-0.2664032
	c-0.1477966-0.0365601-0.2755737-0.0763397-0.3886108-0.1188049l-0.9255066-0.2152863
	c1.2192993-2.0122375,3.9059448-6.4426575,4.985321-8.1984711c0.8741455-1.4220581,1.1176147-1.8622284,2.0011902-3.2791138
	c0.3877869-0.6219482,1.002655-0.6620178,1.3996582-0.0987244c0.1138306,0.1614838,0.2115479,0.309845,0.2872009,0.4561768
	c0.2037659,0.5738831-0.151886,1.0926208-0.151886,1.0926208l-5.2654114,8.529068l0.6329346,0.156723l1.6358643,0.404953
	c0.4104309-0.673584,0.7708435-1.2633514,1.0344238-1.6920624c0.874176-1.4220581,1.1176147-1.8622284,2.0012207-3.2791138
	c0.3877563-0.6219482,1.1328735-0.4597931,1.5298157,0.1033783c0.4709778,0.6682587,0.4526672,1.1516266-0.0649414,1.8914185
	c-0.4519043,0.645874-0.2342529,0.334671-0.6605225,0.9966583c-0.4369202,0.6784973-1.0044861,1.5539551-1.635437,2.5253754
	l2.1542358,0.5332794c0.9584045-1.5104218,2.6018372-4.0510101,3.3832092-5.2823792
	c0.0783691-0.1235657,0.151001-0.2383423,0.2103882-0.3330536c0.4371033-0.6969147,0.4489441-1.3660278,0.0392456-2.0717163
	c-1.2617188-2.172821-2.5115967-4.352478-3.7329712-6.5469513c-0.3997192-0.7182312-0.9355164-1.1834259-1.8149414-1.1634064
	c-0.869873,0.0197754-1.4400635,0.5013733-1.869812,1.207016c-2.5245361,4.1449127-5.0522766,8.2880096-7.6007385,12.4198303
	c-0.250061,0.4054413-0.3727722,0.7993317-0.3734436,1.1921082l-0.0151978-0.00354
	c0.0059204,0.1580811,0.0303955,0.3206482,0.0752563,0.4889221c0.001709,0.006012,0.0012512,0.0120697,0.0029602,0.0180817
	l0.0009766,0.0001221c0.0014648,0.005249,0.0019226,0.0101318,0.0033875,0.0153809
	c0.512146,1.8022003,1.0308228,3.6026764,1.5463562,5.4039154c0.3794861,1.3261261,0.7544861,2.6536255,1.1383667,3.9785004
	c0.2028198,0.7000122,0.6357727,1.2103424,1.4226685,1.4010468c5.1292419,1.2437897,10.2536926,2.5041962,15.3844604,3.7425385
	c1.2738342,0.3075409,2.2371521-0.5915833,2.0195312-1.7788239c-0.0115356-0.0627899-0.0239258-0.1257172-0.0420837-0.1900024
	C333.9056702,209.8037567,333.2957458,207.780304,332.7505188,205.7396545z M329.9116516,210.0328064
	c-0.7720947,0.2182007-1.5747681-0.2308655-1.7929382-1.0028381s0.2308655-1.5747681,1.0028381-1.792923
	s1.5747681,0.2308655,1.7929382,1.0028381C331.1326599,209.0119781,330.6837463,209.8146057,329.9116516,210.0328064z"/>
</svg>
