<svg id="Capa_1" data-name="Capa 1" xmlns="http://www.w3.org/2000/svg" viewBox="0 0 120 120">
	<defs>
		<style>.cls-1{fill:#1172ff;}</style>
	</defs>
	<title>whiteMesa de trabajo 1vector</title>

<path class="cls-1" d="M60,0a60,60,0,1,0,60,60A60,60,0,0,0,60,0ZM84.83,67.17,94.41,88A4.84,4.84,0,0,1,88,94.41L67.17,84.83a17.16,17.16,0,0,0-14.34,0L32,94.41A4.84,4.84,0,0,1,25.59,88l9.57-20.82a17.16,17.16,0,0,0,0-14.34L25.59,32A4.84,4.84,0,0,1,32,25.59l20.82,9.57a17.16,17.16,0,0,0,14.34,0L88,25.59A4.84,4.84,0,0,1,94.41,32L84.83,52.83A17.16,17.16,0,0,0,84.83,67.17Z"/>
</svg>