<?xml version="1.0" encoding="utf-8"?>
<!-- Generator: Adobe Illustrator 21.1.0, SVG Export Plug-In . SVG Version: 6.00 Build 0)  -->
<svg version="1.1" baseProfile="tiny" id="Layer_2" xmlns="http://www.w3.org/2000/svg" xmlns:xlink="http://www.w3.org/1999/xlink"
	 x="0px" y="0px" viewBox="0 0 256 256" xml:space="preserve">
<g>
	<path fill="#85C808" d="M54.5384598,82.5317612C47.0652313,82.5317612,41,88.5969849,41,96.0702209v54.1538544
		c0,7.4732208,6.0652313,13.5384521,13.5384598,13.5384521s13.5384598-6.0652313,13.5384598-13.5384521V96.0702286
		C68.0769196,88.5902252,62.011692,82.5317612,54.5384598,82.5317612z"/>
	<path fill="#85C808" d="M203.4615326,82.5317612c-7.4732208,0-13.5384521,6.0652237-13.5384521,13.5384598v54.1538544
		c0,7.4732208,6.0652313,13.5384521,13.5384521,13.5384521c7.4732361,0,13.5384674-6.0652313,13.5384674-13.5384521V96.0702286
		C217,88.5902252,210.9347687,82.5317612,203.4615326,82.5317612z"/>
	<path fill="#85C808" d="M74.8461533,190.8394623H88.384613v33.8461456c0,7.4732361,6.0652313,13.5384674,13.5384674,13.5384674
		c7.4732285,0,13.5384598-6.0652313,13.5384598-13.5384674v-33.8461456h27.0769272v33.8461456
		c0,7.4732361,6.0652313,13.5384674,13.5384521,13.5384674c7.4732361,0,13.5384674-6.0652313,13.5384674-13.5384674v-33.8461456
		h13.5384521V89.3009949H74.8461533V190.8394623z"/>
	<path fill="#85C808" d="M160.9710693,38.8837585l6.9520111-12.0424595c0.940918-1.6246166,0.3858337-3.6892319-1.2455444-4.6301556
		c-1.611084-0.9409218-3.6892242-0.3858452-4.6233826,1.2455387l-6.776001,11.7378483
		C147.4935455,30.8622227,138.5446167,28.3779144,129,28.3779144c-9.5378494,0-18.4867706,2.4843082-26.2781525,6.8233833
		l-6.7827682-11.7513828c-0.9409256-1.6178474-2.9987717-2.172924-4.6301575-1.2387695
		c-1.6110764,0.9341526-2.166153,2.9987679-1.2387619,4.6233845l6.9587631,12.0492287
		c-13.4233856,9.8560028-22.1827698,25.7095413-22.1827698,43.6480026h108.3076859
		C183.1538391,64.5932999,174.394455,48.7397614,160.9710693,38.8837585z M108.6923065,62.2240677
		c-3.7433777,0-6.7692261-3.0258446-6.7692261-6.7692299s3.0258408-6.7692299,6.7692261-6.7692299
		s6.7692337,3.0258446,6.7692337,6.7692299S112.4356918,62.2240677,108.6923065,62.2240677z M149.3076935,62.2240677
		c-3.7433777,0-6.7692261-3.0258446-6.7692261-6.7692299s3.0258484-6.7692299,6.7692261-6.7692299
		s6.7692261,3.0258446,6.7692261,6.7692299S153.0510712,62.2240677,149.3076935,62.2240677z"/>
</g>
</svg>
