<?xml version="1.0" encoding="iso-8859-1"?>
<!-- Generator: Adobe Illustrator 19.0.0, SVG Export Plug-In . SVG Version: 6.00 Build 0)  -->
<svg version="1.1" id="Capa_1" xmlns="http://www.w3.org/2000/svg" xmlns:xlink="http://www.w3.org/1999/xlink" x="0px" y="0px"
	 viewBox="0 0 480 480" style="enable-background:new 0 0 480 480;" xml:space="preserve">
<linearGradient id="SVGID_1_" gradientUnits="userSpaceOnUse" x1="-26.875" y1="556.719" x2="-26.875" y2="619.574" gradientTransform="matrix(8 0 0 -8 455 4941)">
	<stop  offset="0" style="stop-color:#FFF"/>
	<stop  offset="1" style="stop-color:#FFF"/>
</linearGradient>
<path style="fill:url(#SVGID_1_);" d="M472,0H8C3.582,0,0,3.582,0,8v464c0,4.418,3.582,8,8,8h464c4.418,0,8-3.582,8-8V8
	C480,3.582,476.418,0,472,0z M464,464H16V16h448V464z"/>
<g>
	
		<linearGradient id="SVGID_2_" gradientUnits="userSpaceOnUse" x1="-41.875" y1="556.719" x2="-41.875" y2="619.574" gradientTransform="matrix(8 0 0 -8 455 4941)">
		<stop  offset="0" style="stop-color:#FFF"/>
		<stop  offset="1" style="stop-color:#FFF"/>
	</linearGradient>
	<path style="fill:url(#SVGID_2_);" d="M192,48H48v144h144V48z M176,176H64V64h112V176z"/>
	
		<linearGradient id="SVGID_3_" gradientUnits="userSpaceOnUse" x1="-41.875" y1="556.719" x2="-41.875" y2="619.574" gradientTransform="matrix(8 0 0 -8 455 4941)">
		<stop  offset="0" style="stop-color:#FFF"/>
		<stop  offset="1" style="stop-color:#FFF"/>
	</linearGradient>
	<path style="fill:url(#SVGID_3_);" d="M160,80H80v80h80V80z M144,144H96V96h48V144z"/>
	
		<linearGradient id="SVGID_4_" gradientUnits="userSpaceOnUse" x1="-11.875" y1="556.719" x2="-11.875" y2="619.574" gradientTransform="matrix(8 0 0 -8 455 4941)">
		<stop  offset="0" style="stop-color:#FFF"/>
		<stop  offset="1" style="stop-color:#FFF"/>
	</linearGradient>
	<path style="fill:url(#SVGID_4_);" d="M432,48H288v144h144V48z M416,176H304V64h112V176z"/>
	
		<linearGradient id="SVGID_5_" gradientUnits="userSpaceOnUse" x1="-41.875" y1="556.719" x2="-41.875" y2="619.574" gradientTransform="matrix(8 0 0 -8 455 4941)">
		<stop  offset="0" style="stop-color:#FFF"/>
		<stop  offset="1" style="stop-color:#FFF"/>
	</linearGradient>
	<path style="fill:url(#SVGID_5_);" d="M192,288H48v144h144V288z M176,416H64V304h112V416z"/>
	
		<linearGradient id="SVGID_6_" gradientUnits="userSpaceOnUse" x1="-47.875" y1="556.719" x2="-47.875" y2="619.574" gradientTransform="matrix(8 0 0 -8 455 4941)">
		<stop  offset="0" style="stop-color:#FFF"/>
		<stop  offset="1" style="stop-color:#FFF"/>
	</linearGradient>
	<path style="fill:url(#SVGID_6_);" d="M96,208H48v40h48V208z M80,232H64v-8h16V232z"/>
	
		<linearGradient id="SVGID_7_" gradientUnits="userSpaceOnUse" x1="-38.875" y1="556.719" x2="-38.875" y2="619.574" gradientTransform="matrix(8 0 0 -8 455 4941)">
		<stop  offset="0" style="stop-color:#FFF"/>
		<stop  offset="1" style="stop-color:#FFF"/>
	</linearGradient>
	<path style="fill:url(#SVGID_7_);" d="M176,208h-64v40h64V208z M160,232h-32v-8h32V232z"/>
	
		<linearGradient id="SVGID_8_" gradientUnits="userSpaceOnUse" x1="-49.875" y1="556.719" x2="-49.875" y2="619.574" gradientTransform="matrix(8 0 0 -8 455 4941)">
		<stop  offset="0" style="stop-color:#FFF"/>
		<stop  offset="1" style="stop-color:#FFF"/>
	</linearGradient>
	<path style="fill:url(#SVGID_8_);" d="M48,256h16v16H48V256z"/>
	
		<linearGradient id="SVGID_9_" gradientUnits="userSpaceOnUse" x1="-45.875" y1="556.719" x2="-45.875" y2="619.574" gradientTransform="matrix(8 0 0 -8 455 4941)">
		<stop  offset="0" style="stop-color:#FFF"/>
		<stop  offset="1" style="stop-color:#FFF"/>
	</linearGradient>
	<path style="fill:url(#SVGID_9_);" d="M80,256h16v16H80V256z"/>
</g>
<linearGradient id="SVGID_10_" gradientUnits="userSpaceOnUse" x1="-26.875" y1="556.719" x2="-26.875" y2="619.574" gradientTransform="matrix(8 0 0 -8 455 4941)">
	<stop  offset="0" style="stop-color:#FFF"/>
	<stop  offset="1" style="stop-color:#FFF"/>
</linearGradient>
<path style="fill:url(#SVGID_10_);" d="M224,224h32v32h-32V224z"/>
<g>
	
		<linearGradient id="SVGID_11_" gradientUnits="userSpaceOnUse" x1="-41.875" y1="556.719" x2="-41.875" y2="619.574" gradientTransform="matrix(8 0 0 -8 455 4941)">
		<stop  offset="0" style="stop-color:#FFF"/>
		<stop  offset="1" style="stop-color:#FFF"/>
	</linearGradient>
	<path style="fill:url(#SVGID_11_);" d="M104,104h32v32h-32V104z"/>
	
		<linearGradient id="SVGID_12_" gradientUnits="userSpaceOnUse" x1="-11.875" y1="556.719" x2="-11.875" y2="619.574" gradientTransform="matrix(8 0 0 -8 455 4941)">
		<stop  offset="0" style="stop-color:#FFF"/>
		<stop  offset="1" style="stop-color:#FFF"/>
	</linearGradient>
	<path style="fill:url(#SVGID_12_);" d="M400,80h-80v80h80V80z M384,144h-48V96h48V144z"/>
	
		<linearGradient id="SVGID_13_" gradientUnits="userSpaceOnUse" x1="-11.875" y1="556.719" x2="-11.875" y2="619.574" gradientTransform="matrix(8 0 0 -8 455 4941)">
		<stop  offset="0" style="stop-color:#FFF"/>
		<stop  offset="1" style="stop-color:#FFF"/>
	</linearGradient>
	<path style="fill:url(#SVGID_13_);" d="M344,104h32v32h-32V104z"/>
	
		<linearGradient id="SVGID_14_" gradientUnits="userSpaceOnUse" x1="-41.875" y1="556.719" x2="-41.875" y2="619.574" gradientTransform="matrix(8 0 0 -8 455 4941)">
		<stop  offset="0" style="stop-color:#FFF"/>
		<stop  offset="1" style="stop-color:#FFF"/>
	</linearGradient>
	<path style="fill:url(#SVGID_14_);" d="M160,320H80v80h80V320z M144,384H96v-48h48V384z"/>
	
		<linearGradient id="SVGID_15_" gradientUnits="userSpaceOnUse" x1="-41.875" y1="556.719" x2="-41.875" y2="619.574" gradientTransform="matrix(8 0 0 -8 455 4941)">
		<stop  offset="0" style="stop-color:#FFF"/>
		<stop  offset="1" style="stop-color:#FFF"/>
	</linearGradient>
	<path style="fill:url(#SVGID_15_);" d="M104,344h32v32h-32V344z"/>
</g>
<linearGradient id="SVGID_16_" gradientUnits="userSpaceOnUse" x1="-26.875" y1="556.719" x2="-26.875" y2="619.574" gradientTransform="matrix(8 0 0 -8 455 4941)">
	<stop  offset="0" style="stop-color:#FFF"/>
	<stop  offset="1" style="stop-color:#FFF"/>
</linearGradient>
<path style="fill:url(#SVGID_16_);" d="M280,48h-80v48h80V48z M264,80h-48V64h48V80z"/>
<g>
	
		<linearGradient id="SVGID_17_" gradientUnits="userSpaceOnUse" x1="-28.875" y1="556.719" x2="-28.875" y2="619.574" gradientTransform="matrix(8 0 0 -8 455 4941)">
		<stop  offset="0" style="stop-color:#FFF"/>
		<stop  offset="1" style="stop-color:#FFF"/>
	</linearGradient>
	<path style="fill:url(#SVGID_17_);" d="M248,112h-48v64h48V112z M232,160h-16v-32h16V160z"/>
	
		<linearGradient id="SVGID_18_" gradientUnits="userSpaceOnUse" x1="-23.375" y1="556.719" x2="-23.375" y2="619.574" gradientTransform="matrix(8 0 0 -8 455 4941)">
		<stop  offset="0" style="stop-color:#FFF"/>
		<stop  offset="1" style="stop-color:#FFF"/>
	</linearGradient>
	<path style="fill:url(#SVGID_18_);" d="M256,112h24v16h-24V112z"/>
	
		<linearGradient id="SVGID_19_" gradientUnits="userSpaceOnUse" x1="-23.875" y1="556.719" x2="-23.875" y2="619.574" gradientTransform="matrix(8 0 0 -8 455 4941)">
		<stop  offset="0" style="stop-color:#FFF"/>
		<stop  offset="1" style="stop-color:#FFF"/>
	</linearGradient>
	<path style="fill:url(#SVGID_19_);" d="M256,144h16v32h-16V144z"/>
	
		<linearGradient id="SVGID_20_" gradientUnits="userSpaceOnUse" x1="-27.375" y1="556.719" x2="-27.375" y2="619.574" gradientTransform="matrix(8 0 0 -8 455 4941)">
		<stop  offset="0" style="stop-color:#FFF"/>
		<stop  offset="1" style="stop-color:#FFF"/>
	</linearGradient>
	<path style="fill:url(#SVGID_20_);" d="M200,192h72v16h-72V192z"/>
	
		<linearGradient id="SVGID_21_" gradientUnits="userSpaceOnUse" x1="-31.875" y1="556.719" x2="-31.875" y2="619.574" gradientTransform="matrix(8 0 0 -8 455 4941)">
		<stop  offset="0" style="stop-color:#FFF"/>
		<stop  offset="1" style="stop-color:#FFF"/>
	</linearGradient>
	<path style="fill:url(#SVGID_21_);" d="M192,216h16v64h-16V216z"/>
	
		<linearGradient id="SVGID_22_" gradientUnits="userSpaceOnUse" x1="-38.875" y1="556.719" x2="-38.875" y2="619.574" gradientTransform="matrix(8 0 0 -8 455 4941)">
		<stop  offset="0" style="stop-color:#FFF"/>
		<stop  offset="1" style="stop-color:#FFF"/>
	</linearGradient>
	<path style="fill:url(#SVGID_22_);" d="M112,256h64v16h-64V256z"/>
	
		<linearGradient id="SVGID_23_" gradientUnits="userSpaceOnUse" x1="-18.875" y1="556.719" x2="-18.875" y2="619.574" gradientTransform="matrix(8 0 0 -8 455 4941)">
		<stop  offset="0" style="stop-color:#FFF"/>
		<stop  offset="1" style="stop-color:#FFF"/>
	</linearGradient>
	<path style="fill:url(#SVGID_23_);" d="M272,280h64v-64h-64V280z M288,232h32v32h-32V232z"/>
	
		<linearGradient id="SVGID_24_" gradientUnits="userSpaceOnUse" x1="-7.875" y1="556.719" x2="-7.875" y2="619.574" gradientTransform="matrix(8 0 0 -8 455 4941)">
		<stop  offset="0" style="stop-color:#FFF"/>
		<stop  offset="1" style="stop-color:#FFF"/>
	</linearGradient>
	<path style="fill:url(#SVGID_24_);" d="M352,256h80v-48h-80V256z M368,224h48v16h-48V224z"/>
	
		<linearGradient id="SVGID_25_" gradientUnits="userSpaceOnUse" x1="-7.875" y1="556.719" x2="-7.875" y2="619.574" gradientTransform="matrix(8 0 0 -8 455 4941)">
		<stop  offset="0" style="stop-color:#FFF"/>
		<stop  offset="1" style="stop-color:#FFF"/>
	</linearGradient>
	<path style="fill:url(#SVGID_25_);" d="M352,264h80v16h-80V264z"/>
	
		<linearGradient id="SVGID_26_" gradientUnits="userSpaceOnUse" x1="-23.875" y1="556.719" x2="-23.875" y2="619.574" gradientTransform="matrix(8 0 0 -8 455 4941)">
		<stop  offset="0" style="stop-color:#FFF"/>
		<stop  offset="1" style="stop-color:#FFF"/>
	</linearGradient>
	<path style="fill:url(#SVGID_26_);" d="M232,328h-16v64h64v-48h40v-16h-72v-56h-16v24h-24v16h24V328z M264,376h-32v-32h32V376z"/>
	
		<linearGradient id="SVGID_27_" gradientUnits="userSpaceOnUse" x1="-17.375" y1="556.719" x2="-17.375" y2="619.574" gradientTransform="matrix(8 0 0 -8 455 4941)">
		<stop  offset="0" style="stop-color:#FFF"/>
		<stop  offset="1" style="stop-color:#FFF"/>
	</linearGradient>
	<path style="fill:url(#SVGID_27_);" d="M272,296h88v16h-88V296z"/>
	
		<linearGradient id="SVGID_28_" gradientUnits="userSpaceOnUse" x1="-8.875" y1="556.719" x2="-8.875" y2="619.574" gradientTransform="matrix(8 0 0 -8 455 4941)">
		<stop  offset="0" style="stop-color:#FFF"/>
		<stop  offset="1" style="stop-color:#FFF"/>
	</linearGradient>
	<path style="fill:url(#SVGID_28_);" d="M384,328h-48v16h32v88h64v-64h-48V328z M416,416h-32v-32h32V416z"/>
	
		<linearGradient id="SVGID_29_" gradientUnits="userSpaceOnUse" x1="-6.875" y1="556.719" x2="-6.875" y2="619.574" gradientTransform="matrix(8 0 0 -8 455 4941)">
		<stop  offset="0" style="stop-color:#FFF"/>
		<stop  offset="1" style="stop-color:#FFF"/>
	</linearGradient>
	<path style="fill:url(#SVGID_29_);" d="M392,296h16v56h-16V296z"/>
	
		<linearGradient id="SVGID_30_" gradientUnits="userSpaceOnUse" x1="-3.875" y1="556.719" x2="-3.875" y2="619.574" gradientTransform="matrix(8 0 0 -8 455 4941)">
		<stop  offset="0" style="stop-color:#FFF"/>
		<stop  offset="1" style="stop-color:#FFF"/>
	</linearGradient>
	<path style="fill:url(#SVGID_30_);" d="M416,312h16v40h-16V312z"/>
	
		<linearGradient id="SVGID_31_" gradientUnits="userSpaceOnUse" x1="-28.875" y1="556.719" x2="-28.875" y2="619.574" gradientTransform="matrix(8 0 0 -8 455 4941)">
		<stop  offset="0" style="stop-color:#FFF"/>
		<stop  offset="1" style="stop-color:#FFF"/>
	</linearGradient>
	<path style="fill:url(#SVGID_31_);" d="M216,400h16v32h-16V400z"/>
	
		<linearGradient id="SVGID_32_" gradientUnits="userSpaceOnUse" x1="-22.375" y1="556.719" x2="-22.375" y2="619.574" gradientTransform="matrix(8 0 0 -8 455 4941)">
		<stop  offset="0" style="stop-color:#FFF"/>
		<stop  offset="1" style="stop-color:#FFF"/>
	</linearGradient>
	<path style="fill:url(#SVGID_32_);" d="M248,408h56v16h-56V408z"/>
	
		<linearGradient id="SVGID_33_" gradientUnits="userSpaceOnUse" x1="-16.375" y1="556.719" x2="-16.375" y2="619.574" gradientTransform="matrix(8 0 0 -8 455 4941)">
		<stop  offset="0" style="stop-color:#FFF"/>
		<stop  offset="1" style="stop-color:#FFF"/>
	</linearGradient>
	<path style="fill:url(#SVGID_33_);" d="M312,360h-16v40h40v32h16v-48h-40V360z"/>
	
		<linearGradient id="SVGID_34_" gradientUnits="userSpaceOnUse" x1="-14.375" y1="556.719" x2="-14.375" y2="619.574" gradientTransform="matrix(8 0 0 -8 455 4941)">
		<stop  offset="0" style="stop-color:#FFF"/>
		<stop  offset="1" style="stop-color:#FFF"/>
	</linearGradient>
	<path style="fill:url(#SVGID_34_);" d="M328,352h24v16h-24V352z"/>
</g>
<g>
</g>
<g>
</g>
<g>
</g>
<g>
</g>
<g>
</g>
<g>
</g>
<g>
</g>
<g>
</g>
<g>
</g>
<g>
</g>
<g>
</g>
<g>
</g>
<g>
</g>
<g>
</g>
<g>
</g>
</svg>
