<?xml version="1.0" encoding="utf-8"?>
<!-- Generator: Adobe Illustrator 21.1.0, SVG Export Plug-In . SVG Version: 6.00 Build 0)  -->
<svg version="1.1" baseProfile="tiny" id="Layer_1" xmlns="http://www.w3.org/2000/svg" xmlns:xlink="http://www.w3.org/1999/xlink"
	 x="0px" y="0px" viewBox="0 0 170 170" xml:space="preserve">
<g>
	<g>
		<circle fill="#4FC309" cx="118.3409119" cy="114.7358856" r="4.8032413"/>
		<path fill="#4FC309" d="M85.0229111,1.2180367c-46.3048897,0-83.9761429,37.6712532-83.9761429,83.9761505
			c0,46.3045807,37.671257,83.9770966,83.9761429,83.9770966C131.3274841,169.1712799,169,131.498764,169,85.1941833
			C169,38.8892899,131.3274841,1.2180367,85.0229111,1.2180367z M67.8480759,53.0993805v16.5053482v30.7245941v5.6051559v18.098938
			c0,6.6201172-3.4430466,10.062851-10.4625893,10.062851c-7.1511078,0-10.7260323-3.4427338-10.7260323-10.062851v-83.297821
			c0-6.6223297,3.5749245-9.799408,10.4606972-9.799408c7.1511116,0,10.7279243,3.1770782,10.7279243,9.7997246V53.0993805z
			 M131.2281036,130.0298004c-0.3751373,3.9734039-4.2488327,5.9682922-8.0256653,3.8443604
			c-15.2124329-8.554451-30.3847961-17.1729507-45.5874481-25.7428589c-2.332489-1.314682-3.2509079-3.3275681-3.2669983-5.7373505
			c-0.0299683-4.5611801-0.0296555-9.1223526-0.0447998-13.6832123c-0.0205078-6.1948242-0.0517426-12.3906021-0.0608902-18.585434
			c0-0.0183029,0.0031509-0.0340729,0.0031509-0.0520554l-0.0031509-0.0015793c0-0.0205078,0.0069427-0.0394363,0.0069427-0.0599442
			c0.0085144-0.5757904,0.0769806-1.1152878,0.2000275-1.623558l0.0454254,0.0249252
			c0.3552551-1.2490692,1.0998306-2.3918076,2.2599258-3.4572449c11.824913-10.8557014,23.5936737-21.7659874,35.3539124-32.6847878
			c2.0018387-1.858923,4.2491455-2.8786163,7.0350037-2.1589622c2.8161469,0.7265949,4.1027527,2.6886864,4.7290192,5.3338318
			c1.9128647,8.0808868,3.9298553,16.1406326,5.9910126,24.1890221c0.6688538,2.6135941,0.0293427,4.7321739-1.9879684,6.5567055
			c-0.2741623,0.2479858-0.6085968,0.5480194-0.9692078,0.8704605c-3.5935287,3.2155762-11.1074677,9.8218155-15.5149918,13.7661896
			l-6.3752975-3.6339264c2.8811417-2.523674,5.4745483-4.799057,7.4748154-6.5652237
			c1.9516754-1.723259,0.9793091-0.9285126,2.9981918-2.5773163c2.3119736-1.8885803,2.8047867-3.4102325,1.9071884-5.9597816
			c-0.7565689-2.1491814-2.981781-3.335144-4.774765-1.7049599c-4.0857162,3.7140579-5.256218,4.8959198-9.3166962,8.6345901
			c-1.2241364,1.1272736-2.9010162,2.6795349-4.8129425,4.4539032l-4.8410263-2.7593613l-1.8731155-1.0679626L116.2018204,47.24403
			c0,0,1.5980072-1.3310928,1.4658127-3.3405075c-0.1091614-0.5335083-0.2867889-1.0935211-0.5038528-1.7096901
			c-0.7565689-2.1491814-2.7492599-2.574791-4.542244-0.9446068c-4.0857162,3.7140579-5.256218,4.8956032-9.3166962,8.6345863
			c-5.0132828,4.6163864-17.5461807,16.2980652-23.2352676,21.6044464l2.7514725,1.5172424
			c0.3211746,0.2366257,0.6922073,0.4782944,1.1297989,0.7272263c1.1134033,0.6354141,2.1608582,1.2326508,3.1786575,1.8141174
			c2.0280304,1.1572495,3.8882141,2.2204895,5.6562729,3.2322922c2.1829453,1.2481155,4.24189,2.4268188,6.3027344,3.6048965
			c5.4698105,3.1284943,11.0759201,6.3251266,19.5729446,11.1276627c1.6973877,0.9597473,3.4764862,1.9649277,5.4303741,3.0666504
			c4.8000031,2.7066727,7.219574,6.4914017,7.1425781,11.852684c-0.1000061,6.9838943,0.0211487,13.9706268,0.0306244,20.9564056
			C131.2650299,129.6082916,131.2479858,129.8196716,131.2281036,130.0298004z"/>
	</g>
</g>
</svg>
