<?xml version="1.0" encoding="utf-8"?>
<!-- Generator: Adobe Illustrator 21.1.0, SVG Export Plug-In . SVG Version: 6.00 Build 0)  -->
<svg version="1.1" baseProfile="tiny" id="Layer_1" xmlns="http://www.w3.org/2000/svg" xmlns:xlink="http://www.w3.org/1999/xlink"
	 x="0px" y="0px" viewBox="0 0 48.75 30" xml:space="preserve">
<path fill="#FFFFFF" d="M6.8821106,8.8927736c0.0200119-0.2004213,0.2006416-0.3812714,0.4012871-0.3812714h2.4888229
	c0.1806297,0,0.3008804,0.18085,0.2808647,0.3812714L8.5478516,19.6105595h4.0942421
	c0.2008667,0,0.3010483,0.1804066,0.2810326,0.3812714l-0.3010979,2.1877766
	c-0.0200195,0.2004223-0.2006454,0.381216-0.4012909,0.381216h-6.904129c-0.2009201,0-0.3211746-0.1807938-0.3011017-0.381216
	L6.8821106,8.8927736z M14.0256958,17.3426685c-0.4415894,3.0504475,1.766201,5.4190197,4.4556122,5.4190197
	c3.3315353,0,5.5193138-2.1677074,5.9806976-5.4190197l1.1642723-8.4498949
	c0.0200119-0.2004213-0.1202545-0.3812714-0.3011017-0.3812714h-2.5289078c-0.2004242,0-0.3612061,0.18085-0.3812752,0.3812714
	l-1.1439781,8.289115c-0.2006454,1.4051647-1.1840668,2.3685722-2.3883667,2.3685722
	c-1.1038933,0-1.806282-0.9634075-1.6056404-2.3685722l1.1439819-8.289115
	c0.0202332-0.2004213-0.1202545-0.3812714-0.300827-0.3812714h-2.5489807c-0.1808472,0-0.3614197,0.18085-0.3814926,0.3812714
	L14.0256958,17.3426685z M48.0613022,22.0388412L44.2880096,8.531517c-0.0400848-0.1202536-0.1407623-0.2204361-0.2810364-0.2204361
	h-0.1808472c-0.1603394,0-0.2605209,0.1001825-0.3411865,0.2204361l-7.5364151,13.3833122l-3.2993546-6.5590181l4.7967987-6.1013937
	c0.2204895-0.3011026,0.1002426-0.7429152-0.2409515-0.7429152H34.294838c-0.1607819,0-0.2810287,0.0806665-0.3611984,0.2009192
	l-4.1746368,5.5592871l0.7424736-5.2783089c0.0400848-0.2609634-0.1403236-0.4818974-0.3812714-0.4818974h-2.428669
	c-0.2605782,0-0.461441,0.2209339-0.5015259,0.4818974l-1.8465881,13.085969
	c-0.0200157,0.2605762,0.1202507,0.4814548,0.3812675,0.4814548h2.4286728c0.2405586,0,0.4814529-0.2208786,0.5015221-0.4814548
	l0.8431015-5.9811401L32.408165,22.29986c0.0801697,0.1807957,0.220932,0.2609634,0.4013405,0.2609634h5.5980415
	c0.4213638,0,0.6823273-0.2208786,0.8025742-0.4814548l0.7825546-1.6060829h4.4356003l0.3411865,1.5855713
	c0.0806122,0.401783,0.2810364,0.5019665,0.6422348,0.5019665h2.2678909
	C47.9606781,22.5608234,48.1414719,22.29986,48.0613022,22.0388412z M41.4179688,17.7439537l1.6055832-3.3515501h0.0200195
	l0.6222153,3.3515501H41.4179688z"/>
</svg>
