<?xml version="1.0" encoding="utf-8"?>
<!-- Generator: Adobe Illustrator 21.1.0, SVG Export Plug-In . SVG Version: 6.00 Build 0)  -->
<svg version="1.1" baseProfile="tiny" id="Layer_1" xmlns="http://www.w3.org/2000/svg" xmlns:xlink="http://www.w3.org/1999/xlink"
	 x="0px" y="0px" viewBox="0 0 500 467" xml:space="preserve">
<linearGradient id="SVGID_1_" gradientUnits="userSpaceOnUse" x1="-24.3015442" y1="148.2569885" x2="424.3453979" y2="538.2598267">
	<stop  offset="0" style="stop-color:#CCE0F4"/>
	<stop  offset="0.0640509" style="stop-color:#C3DCF2"/>
	<stop  offset="0.1706315" style="stop-color:#A9D2EE"/>
	<stop  offset="0.3065549" style="stop-color:#80C2E7"/>
	<stop  offset="0.4648658" style="stop-color:#47ACDE"/>
	<stop  offset="0.567416" style="stop-color:#1E9CD7"/>
	<stop  offset="0.865168" style="stop-color:#0075BE"/>
	<stop  offset="0.994382" style="stop-color:#005B97"/>
</linearGradient>
<path fill="url(#SVGID_1_)" d="M401.7041016,369.8583984c-0.9873047-0.9873047-0.9873047-2.5888672,0-3.5761719l5.0576172-5.0576172
	c0.9882812-0.9882812,2.5878906-0.9882812,3.5761719,0c0.9873047,0.9873047,0.9873047,2.5888672,0,3.5761719l-3.2695312,3.2695312
	l8.3271484,8.3271484c0.9873047,0.9873047,0.9873047,2.5888672,0,3.5761719l-5.0576172,5.0576172
	c-0.4941406,0.4941406-1.140625,0.7402344-1.7880859,0.7402344s-1.2939453-0.2460938-1.7880859-0.7402344
	c-0.9873047-0.9873047-0.9873047-2.5888672,0-3.5761719l3.2695312-3.2695312L401.7041016,369.8583984z M427.7324219,378.1855469
	l-3.2695312,3.2695312c-0.9873047,0.9873047-0.9873047,2.5888672,0,3.5761719
	c0.4941406,0.4941406,1.140625,0.7402344,1.7880859,0.7402344s1.2939453-0.2460938,1.7880859-0.7402344l5.0576172-5.0576172
	c0.9873047-0.9873047,0.9873047-2.5888672,0-3.5761719l-8.3271484-8.3271484l3.2695312-3.2695312
	c0.9873047-0.9873047,0.9873047-2.5888672,0-3.5761719c-0.9882812-0.9882812-2.5878906-0.9882812-3.5761719,0l-5.0576172,5.0576172
	c-0.9873047,0.9873047-0.9873047,2.5888672,0,3.5761719L427.7324219,378.1855469z M445.4345703,378.1855469l-3.2695312,3.2695312
	c-0.9873047,0.9873047-0.9873047,2.5888672,0,3.5761719c0.4941406,0.4941406,1.140625,0.7402344,1.7880859,0.7402344
	s1.2939453-0.2460938,1.7880859-0.7402344l5.0576172-5.0576172c0.9873047-0.9873047,0.9873047-2.5888672,0-3.5761719
	l-8.3271484-8.3271484l3.2695312-3.2695312c0.9873047-0.9873047,0.9873047-2.5888672,0-3.5761719
	c-0.9882812-0.9882812-2.5878906-0.9882812-3.5761719,0l-5.0576172,5.0576172c-0.9873047,0.9873047-0.9873047,2.5888672,0,3.5761719
	L445.4345703,378.1855469z M236.5917969,416.1181641V408.53125c0-0.8457031,0.4223633-1.6347656,1.1259766-2.1044922
	l7.5864258-5.0576172c0.8500977-0.5654297,1.956543-0.5654297,2.8056641,0l7.5854492,5.0576172
	c0.7041016,0.4697266,1.1259766,1.2587891,1.1259766,2.1044922v7.5869141c0,0.8457031-0.421875,1.6347656-1.1259766,2.1044922
	l-7.5854492,5.0576172c-0.4248047,0.2832031-0.9135742,0.4238281-1.402832,0.4238281
	c-0.4887695,0-0.9780273-0.140625-1.402832-0.4238281l-7.5864258-5.0576172
	C237.0141602,417.7529297,236.5917969,416.9638672,236.5917969,416.1181641z M241.6494141,414.7646484l5.0576172,3.3720703
	l5.0576172-3.3720703v-4.8798828l-5.0576172-3.3720703l-5.0576172,3.3720703V414.7646484z M63.5068359,365.9658203
	c-1.159668-0.7734375-2.730957-0.4599609-3.5063477,0.7021484l-5.0571289,7.5869141
	c-0.5664062,0.8496094-0.5664062,1.9560547,0,2.8046875l4.1220703,6.1835938l-4.1220703,6.1845703
	c-0.5664062,0.8496094-0.5664062,1.9560547,0,2.8046875l4.1220703,6.1835938l-4.1220703,6.1845703
	c-0.7749023,1.1621094-0.4604492,2.7314453,0.7016602,3.5068359c0.4306641,0.2871094,0.9179688,0.4248047,1.3999023,0.4248047
	c0.8173828,0,1.6191406-0.3955078,2.1064453-1.1269531l5.0571289-7.5869141c0.5664062-0.8496094,0.5664062-1.9560547,0-2.8046875
	l-4.1220703-6.1835938l4.1220703-6.1845703c0.5664062-0.8496094,0.5664062-1.9560547,0-2.8046875l-4.1220703-6.1835938
	l4.1220703-6.1845703C64.9833984,368.3105469,64.6689453,366.7412109,63.5068359,365.9658203z M78.6801758,365.9658203
	c-1.1611328-0.7734375-2.7314453-0.4599609-3.5068359,0.7021484l-5.0576172,7.5869141
	c-0.5664062,0.8486328-0.5664062,1.9560547,0,2.8046875l4.1225586,6.1835938l-4.1225586,6.1845703
	c-0.5664062,0.8486328-0.5664062,1.9560547,0,2.8046875l4.1225586,6.1835938l-4.1225586,6.1845703
	c-0.7749023,1.1621094-0.4609375,2.7314453,0.7011719,3.5068359c0.4311523,0.2871094,0.918457,0.4248047,1.4003906,0.4248047
	c0.8173828,0,1.6191406-0.3955078,2.1064453-1.1269531l5.0576172-7.5869141c0.5664062-0.8486328,0.5664062-1.9560547,0-2.8046875
	l-4.1225586-6.1835938l4.1225586-6.1845703c0.5664062-0.8486328,0.5664062-1.9560547,0-2.8046875l-4.1225586-6.1835938
	l4.1225586-6.1845703C80.15625,368.3105469,79.8422852,366.7412109,78.6801758,365.9658203z M492,454.0498047h-7.5859375
	c-1.3964844,0-2.5283203,1.1318359-2.5283203,2.5283203s1.1318359,2.5283203,2.5283203,2.5283203H492
	c1.3964844,0,2.5283203-1.1318359,2.5283203-2.5283203S493.3964844,454.0498047,492,454.0498047z M16.5864258,454.0498047H9
	c-1.3964844,0-2.5288086,1.1318359-2.5288086,2.5283203S7.6035156,459.1064453,9,459.1064453h7.5864258
	c1.3964844,0,2.5288086-1.1318359,2.5288086-2.5283203S17.9829102,454.0498047,16.5864258,454.0498047z M234.0629883,192.3193359
	v-12.644043c0-0.8720703,0.4492188-1.6821289,1.1884766-2.1445312l10.1152344-6.3217773
	c0.8203125-0.5126953,1.8603516-0.5126953,2.6806641,0l10.1147461,6.3217773
	c0.7402344,0.4624023,1.1884766,1.2724609,1.1884766,2.1445312v12.644043c0,0.8720703-0.4482422,1.6821289-1.1884766,2.1445312
	l-10.1147461,6.3222656c-0.4101562,0.2563477-0.875,0.3842773-1.340332,0.3842773s-0.9301758-0.1279297-1.340332-0.3842773
	l-10.1152344-6.3222656C234.512207,194.0014648,234.0629883,193.1914062,234.0629883,192.3193359z M239.1206055,190.9179688
	l7.5864258,4.7416992l7.5869141-4.7416992v-9.8413086l-7.5869141-4.7412109l-7.5864258,4.7412109V190.9179688z
	 M191.1339722,309.3685913c0.0015259-0.006958,0.0006714-0.0139771,0.0022583-0.0209351l12.644043-55.6337891
	c0.2617188-1.1513672,1.2851562-1.9677734,2.4658203-1.9677734s2.2041016,0.8164062,2.4658203,1.9677734l3.1726685,13.9598999
	l14.2198486-28.5117798l-7.1967163-60.4520264c-0.0527344-0.4448242,0.0136719-0.8959961,0.1923828-1.3071289l25.078125-57.6796875
	v-12.1186523c0-1.3964844,1.1323242-2.5288086,2.5288086-2.5288086s2.5288086,1.1323242,2.5288086,2.5288086v12.1186523
	l25.0786133,57.6796875c0.1787109,0.4111328,0.2451172,0.8623047,0.1914062,1.3071289l-7.1969604,60.4515381l14.2202148,28.5133057
	l3.1730347-13.9609375c0.2617188-1.1513672,1.2851562-1.9677734,2.4658203-1.9677734s2.2041016,0.8164062,2.4658203,1.9677734
	l12.6435547,55.6337891c0.001709,0.0076294,0.0008545,0.0154419,0.0025024,0.0230713
	c0.0376587,0.1735229,0.0599976,0.3526611,0.0599976,0.5374756c0,0.0026245-0.0007935,0.0049438-0.0007935,0.0075684
	c-0.0001221,0.0418091-0.0102539,0.0821533-0.0124512,0.1238403c-0.0075073,0.1435547-0.0209961,0.2850952-0.0514526,0.4213257
	c-0.0129395,0.0576782-0.0354004,0.1119385-0.0523682,0.1686401c-0.0352173,0.1176758-0.0738525,0.2330322-0.125061,0.3428345
	c-0.0278931,0.0598755-0.0616455,0.1160278-0.0942993,0.1737671c-0.0576172,0.1016846-0.119873,0.1986694-0.1904907,0.2909546
	c-0.0219727,0.0288086-0.0357056,0.0622559-0.059021,0.09021l-12.6435547,15.1728516
	c-0.4804688,0.5761719-1.1914062,0.9091797-1.9423828,0.9091797c-0.75,0-1.4619141-0.3330078-1.9423828-0.9091797
	l-12.6445312-15.1728516c-0.0233154-0.0279541-0.0369873-0.0612793-0.05896-0.0900879
	c-0.0707397-0.0924072-0.1331177-0.1896362-0.1907959-0.2915039c-0.0325317-0.0575562-0.0662231-0.1134033-0.0939331-0.1730347
	c-0.0512085-0.1098022-0.0897217-0.2250977-0.125-0.3427734c-0.0170898-0.0568237-0.0395508-0.1113892-0.0525513-0.1693115
	c-0.0305176-0.1365967-0.0441284-0.2785645-0.0515747-0.4225464c-0.0021362-0.0410156-0.012207-0.0808105-0.0123291-0.1220093
	c0-0.0026855-0.0007935-0.005188-0.0007935-0.0078735c0-0.1847534,0.0223999-0.3637695,0.0599976-0.5372314
	c0.001709-0.0077515,0.0007324-0.015564,0.0025024-0.0233154l1.9984741-8.7929688l-15.6411743-13.40625h-23.4161987
	l-15.6411133,13.4064941l1.9983521,8.7927246c0.0015869,0.006958,0.0007324,0.0139771,0.0022583,0.0209351
	c0.0379639,0.1741943,0.06073,0.3540039,0.06073,0.5396118c0,0.003418-0.0009766,0.0064697-0.0009766,0.0098877
	c-0.0001221,0.0336914-0.008606,0.0662231-0.0100708,0.0998535c-0.0066528,0.1519165-0.0220337,0.3011475-0.0543213,0.4449463
	c-0.0123901,0.0548706-0.0338745,0.1065063-0.0498657,0.1604614c-0.0357056,0.1204224-0.0751953,0.2382202-0.1276855,0.3504028
	c-0.0275269,0.059082-0.0609131,0.1143799-0.0930786,0.1714478c-0.0575562,0.1016846-0.119873,0.1988525-0.1904297,0.2911377
	c-0.0221558,0.0291138-0.0360107,0.0627441-0.0595093,0.0910034l-12.644043,15.1728516
	c-0.4804688,0.5761719-1.1923828,0.9091797-1.9428711,0.9091797s-1.4624023-0.3330078-1.9428711-0.9091797l-12.644043-15.1728516
	c-0.0234985-0.0282593-0.0373535-0.0618896-0.0595093-0.0910034c-0.0705566-0.0922852-0.1328735-0.1894531-0.1904297-0.2911377
	c-0.0321655-0.0570679-0.0655518-0.1123657-0.0930786-0.1714478c-0.0524902-0.1121826-0.09198-0.2299805-0.1276855-0.3504028
	c-0.0159912-0.0539551-0.0374756-0.1055908-0.0498657-0.1604614c-0.0322876-0.1437988-0.0476685-0.2930298-0.0543213-0.4449463
	c-0.0014648-0.0336304-0.0099487-0.0661621-0.0100708-0.0998535c0-0.003418-0.0009766-0.0064697-0.0009766-0.0098877
	C191.0732422,309.7225952,191.0960083,309.5427856,191.1339722,309.3685913z M213.4915161,312.4365234h-14.4908447
	l7.2454224,8.6943359L213.4915161,312.4365234z M294.4130249,312.4365234h-14.4907837l7.2457275,8.6943359L294.4130249,312.4365234z
	 M277.6916504,307.3798828h18.9517212l-9.4754028-41.6953125L277.6916504,307.3798828z M266.2197876,248.3095093
	l-4.1989136,35.269043l13.3022461,11.4014893l4.4367676-19.5209961L266.2197876,248.3095093z M224.0107422,178.7919922
	l7.2015381,60.4916382c0.0001221,0.0010376,0.0002441,0.0020752,0.0003662,0.0031128l5.0959473,42.8050537h20.796875
	l5.0959473-42.8050537c0.0001221-0.0010376,0.0002441-0.0020752,0.0003662-0.0031128l7.2015381-60.4916382l-22.6962891-52.2011719
	L224.0107422,178.7919922z M213.6540527,275.4593506l4.4365845,19.520874l13.3015747-11.4012451l-4.1985474-35.2675171
	L213.6540527,275.4593506z M196.7702026,307.3798828h18.9517822l-9.4758911-41.6953125L196.7702026,307.3798828z
	 M443.2148438,425.4921875l-15.1728516,15.1728516c-0.4941406,0.4941406-1.140625,0.7402344-1.7880859,0.7402344
	s-1.2939453-0.2460938-1.7880859-0.7402344l-15.1728516-15.1728516c-0.8203125-0.8203125-0.9775391-2.09375-0.3798828-3.0888672
	l7.5859375-12.6435547c0.4003906-0.6679688,1.0859375-1.1142578,1.859375-1.2089844
	c0.7705078-0.0947266,1.5458984,0.1708984,2.0966797,0.7216797l5.7988281,5.7978516l5.7978516-5.7978516
	c0.5507812-0.5507812,1.3291016-0.8154297,2.0966797-0.7216797c0.7734375,0.0947266,1.4589844,0.5410156,1.859375,1.2089844
	l7.5869141,12.6435547C444.1923828,423.3984375,444.0351562,424.671875,443.2148438,425.4921875z M438.2421875,423.3125
	l-4.9042969-8.1738281l-5.2958984,5.2958984c-0.9882812,0.9882812-2.5878906,0.9882812-3.5761719,0l-5.296875-5.2958984
	L414.265625,423.3125l11.9882812,11.9882812L438.2421875,423.3125z M476.4033203,409.6582031
	c0.46875,0.703125,0.5546875,1.5947266,0.2294922,2.375l-12.6445312,30.3447266
	c-0.3925781,0.9423828-1.3134766,1.5556641-2.3339844,1.5556641h-8.5129395l-1.2645264,10.1152344h19.8927002
	c1.3964844,0,2.5283203,1.1328125,2.5283203,2.5292969s-1.1318359,2.5292969-2.5283203,2.5292969H31.7592773
	c-1.3964844,0-2.5288086-1.1328125-2.5288086-2.5292969s1.1323242-2.5292969,2.5288086-2.5292969h14.262085l-11.618042-37.1767578
	c-0.2402344-0.7675781-0.1005859-1.6035156,0.3759766-2.2519531s1.2329102-1.0302734,2.0375977-1.0302734h7.5864258V408.53125
	h-5.0576172c-1.3964844,0-2.5288086-1.1318359-2.5288086-2.5283203s1.1323242-2.5283203,2.5288086-2.5283203h5.0576172v-10.1162109
	h-5.0576172c-1.3964844,0-2.5288086-1.1318359-2.5288086-2.5283203s1.1323242-2.5283203,2.5288086-2.5283203h5.0576172v-10.1162109
	h-5.0576172c-1.3964844,0-2.5288086-1.1318359-2.5288086-2.5283203s1.1323242-2.5283203,2.5288086-2.5283203h5.0576172v-8.5533447
	l-3.659668-1.8294678c-1.2490234-0.6240234-1.7553711-2.1435547-1.1308594-3.3925781
	c0.6240234-1.2480469,2.140625-1.7568359,3.3925781-1.1308594l3.6593628,1.8293457l6.5322876-4.8994141l-2.9953613-2.9953613
	c-0.987793-0.9873047-0.987793-2.5888672,0-3.5761719c0.9873047-0.9882812,2.5888672-0.9882812,3.5761719,0l3.5062256,3.5062256
	l8.3609619-6.270874c0.8984375-0.6738281,2.1357422-0.6738281,3.0341797,0l8.3613281,6.2709961l3.5063477-3.5063477
	c0.9873047-0.9882812,2.5888672-0.9882812,3.5761719,0c0.987793,0.9873047,0.987793,2.5888672,0,3.5761719l-2.9954834,2.9954834
	l6.5324097,4.899292l3.6593628-1.8293457c1.2504883-0.625,2.7680664-0.1171875,3.3925781,1.1308594
	c0.6245117,1.2490234,0.1181641,2.7685547-1.1308594,3.3925781l-3.659668,1.8294678v8.5533447h5.0576172
	c1.3964844,0,2.5288086,1.1318359,2.5288086,2.5283203s-1.1323242,2.5283203-2.5288086,2.5283203h-5.0576172v10.1162109h5.0576172
	c1.3964844,0,2.5288086,1.1318359,2.5288086,2.5283203s-1.1323242,2.5283203-2.5288086,2.5283203h-5.0576172v10.1162109h5.0576172
	c1.3964844,0,2.5288086,1.1318359,2.5288086,2.5283203s-1.1323242,2.5283203-2.5288086,2.5283203h-5.0576172v5.0585938h7.5864258
	c0.8046875,0,1.5610352,0.3818359,2.0375977,1.0302734s0.6162109,1.484375,0.3759766,2.2519531l-11.618042,37.1767578h128.8157959
	l8.276062-22.7587891H125.324707c-1.3964844,0-2.5288086-1.1318359-2.5288086-2.5283203V256.8037109
	c0-1.3964844,1.1323242-2.5283203,2.5288086-2.5283203h63.2197266c1.3964844,0,2.5288086,1.1318359,2.5288086,2.5283203
	s-1.1323242,2.5283203-2.5288086,2.5283203h-60.690918V393.359375h237.7070312V259.3320312h-55.6337891
	c-1.3964844,0-2.5283203-1.1318359-2.5283203-2.5283203s1.1318359-2.5283203,2.5283203-2.5283203h58.1621094
	c1.3964844,0,2.5283203,1.1318359,2.5283203,2.5283203v171.9580078c0,1.3964844-1.1318359,2.5283203-2.5283203,2.5283203
	H268.0188599l8.276062,22.7587891h124.3360596l-7.2315674-57.8476562c-0.0908203-0.7197266,0.1328125-1.4433594,0.6132812-1.9873047
	c0.4794922-0.5439453,1.1699219-0.8544922,1.8955078-0.8544922h60.6914062c0.7255859,0,1.4160156,0.3105469,1.8955078,0.8544922
	c0.4804688,0.5439453,0.7041016,1.2675781,0.6132812,1.9873047l-1.5415039,12.3310547h16.7319336
	C475.1445312,408.5322266,475.9335938,408.9541016,476.4033203,409.6582031z M127.8535156,426.2333984h101.1518555h35.402832
	h101.1523438v-27.8173828H127.8535156V426.2333984z M222.5008545,454.0488281h48.4118652l-8.276001-22.7587891h-31.8603516
	L222.5008545,454.0488281z M49.4609375,413.5898438h35.402832v-49.3125l-17.7016602-13.2763672l-17.7011719,13.2763672V413.5898438z
	 M40.2563477,418.6464844l1.5808716,5.0585938h50.6503296l1.5808105-5.0585938h-6.6757812H46.9321289H40.2563477z
	 M51.3200073,454.0488281H83.005188l7.9021606-25.2871094H43.4174805L51.3200073,454.0488281z M446.7803955,454.0488281
	l6.9549561-55.6328125h-54.9628906l6.9549561,55.6328125H446.7803955z M470.5058594,413.5888672h-13.571106l-3.1612549,25.2880859
	h6.1952515L470.5058594,413.5888672z M249.2358398,337.7255859c0-1.3964844-1.1323242-2.5283203-2.5288086-2.5283203
	s-2.5288086,1.1318359-2.5288086,2.5283203v15.171875c0,1.3964844,1.1323242,2.5283203,2.5288086,2.5283203
	s2.5288086-1.1318359,2.5288086-2.5283203V337.7255859z M249.2358398,363.0126953
	c0-1.3964844-1.1323242-2.5283203-2.5288086-2.5283203s-2.5288086,1.1318359-2.5288086,2.5283203v5.0576172
	c0,1.3964844,1.1323242,2.5283203,2.5288086,2.5283203s2.5288086-1.1318359,2.5288086-2.5283203V363.0126953z
	 M259.3505859,332.6679688c0-1.3964844-1.1318359-2.5283203-2.5283203-2.5283203s-2.5283203,1.1318359-2.5283203,2.5283203
	v15.171875c0,1.3964844,1.1318359,2.5283203,2.5283203,2.5283203s2.5283203-1.1318359,2.5283203-2.5283203V332.6679688z
	 M259.3505859,357.9550781c0-1.3964844-1.1318359-2.5283203-2.5283203-2.5283203s-2.5283203,1.1318359-2.5283203,2.5283203
	v5.0576172c0,1.3964844,1.1318359,2.5283203,2.5283203,2.5283203s2.5283203-1.1318359,2.5283203-2.5283203V357.9550781z
	 M239.1206055,332.6679688c0-1.3964844-1.1323242-2.5283203-2.5288086-2.5283203s-2.5288086,1.1318359-2.5288086,2.5283203
	v15.171875c0,1.3964844,1.1323242,2.5283203,2.5288086,2.5283203s2.5288086-1.1318359,2.5288086-2.5283203V332.6679688z
	 M239.1206055,357.9550781c0-1.3964844-1.1323242-2.5283203-2.5288086-2.5283203s-2.5288086,1.1318359-2.5288086,2.5283203
	v5.0576172c0,1.3964844,1.1323242,2.5283203,2.5288086,2.5283203s2.5288086-1.1318359,2.5288086-2.5283203V357.9550781z
	 M246.7070312,375.6572266c-1.3964844,0-2.5288086,1.1318359-2.5288086,2.5283203v2.5292969
	c0,1.3964844,1.1323242,2.5283203,2.5288086,2.5283203s2.5288086-1.1318359,2.5288086-2.5283203v-2.5292969
	C249.2358398,376.7890625,248.1035156,375.6572266,246.7070312,375.6572266z M256.8222656,370.5996094
	c-1.3964844,0-2.5283203,1.1318359-2.5283203,2.5283203v2.5292969c0,1.3964844,1.1318359,2.5283203,2.5283203,2.5283203
	s2.5283203-1.1318359,2.5283203-2.5283203v-2.5292969C259.3505859,371.7314453,258.21875,370.5996094,256.8222656,370.5996094z
	 M236.5917969,370.5996094c-1.3964844,0-2.5288086,1.1318359-2.5288086,2.5283203v2.5292969
	c0,1.3964844,1.1323242,2.5283203,2.5288086,2.5283203s2.5288086-1.1318359,2.5288086-2.5283203v-2.5292969
	C239.1206055,371.7314453,237.9882812,370.5996094,236.5917969,370.5996094z M208.7749023,337.7255859
	c0-1.3964844-1.1323242-2.5283203-2.5288086-2.5283203s-2.5288086,1.1318359-2.5288086,2.5283203v15.171875
	c0,1.3964844,1.1323242,2.5283203,2.5288086,2.5283203s2.5288086-1.1318359,2.5288086-2.5283203V337.7255859z
	 M208.7749023,363.0126953c0-1.3964844-1.1323242-2.5283203-2.5288086-2.5283203s-2.5288086,1.1318359-2.5288086,2.5283203
	v5.0576172c0,1.3964844,1.1323242,2.5283203,2.5288086,2.5283203s2.5288086-1.1318359,2.5288086-2.5283203V363.0126953z
	 M218.8901367,332.6679688c0-1.3964844-1.1323242-2.5283203-2.5288086-2.5283203s-2.5288086,1.1318359-2.5288086,2.5283203
	v15.171875c0,1.3964844,1.1323242,2.5283203,2.5288086,2.5283203s2.5288086-1.1318359,2.5288086-2.5283203V332.6679688z
	 M218.8901367,357.9550781c0-1.3964844-1.1323242-2.5283203-2.5288086-2.5283203s-2.5288086,1.1318359-2.5288086,2.5283203
	v5.0576172c0,1.3964844,1.1323242,2.5283203,2.5288086,2.5283203s2.5288086-1.1318359,2.5288086-2.5283203V357.9550781z
	 M198.659668,332.6679688c0-1.3964844-1.1323242-2.5283203-2.5288086-2.5283203s-2.5288086,1.1318359-2.5288086,2.5283203v15.171875
	c0,1.3964844,1.1323242,2.5283203,2.5288086,2.5283203s2.5288086-1.1318359,2.5288086-2.5283203V332.6679688z
	 M198.659668,357.9550781c0-1.3964844-1.1323242-2.5283203-2.5288086-2.5283203s-2.5288086,1.1318359-2.5288086,2.5283203v5.0576172
	c0,1.3964844,1.1323242,2.5283203,2.5288086,2.5283203s2.5288086-1.1318359,2.5288086-2.5283203V357.9550781z
	 M206.2460938,375.6572266c-1.3964844,0-2.5288086,1.1318359-2.5288086,2.5283203v2.5292969
	c0,1.3964844,1.1323242,2.5283203,2.5288086,2.5283203s2.5288086-1.1318359,2.5288086-2.5283203v-2.5292969
	C208.7749023,376.7890625,207.6425781,375.6572266,206.2460938,375.6572266z M216.3613281,370.5996094
	c-1.3964844,0-2.5288086,1.1318359-2.5288086,2.5283203v2.5292969c0,1.3964844,1.1323242,2.5283203,2.5288086,2.5283203
	s2.5288086-1.1318359,2.5288086-2.5283203v-2.5292969C218.8901367,371.7314453,217.7578125,370.5996094,216.3613281,370.5996094z
	 M196.1308594,370.5996094c-1.3964844,0-2.5288086,1.1318359-2.5288086,2.5283203v2.5292969
	c0,1.3964844,1.1323242,2.5283203,2.5288086,2.5283203s2.5288086-1.1318359,2.5288086-2.5283203v-2.5292969
	C198.659668,371.7314453,197.5273438,370.5996094,196.1308594,370.5996094z M289.6962891,337.7255859
	c0-1.3964844-1.1318359-2.5283203-2.5283203-2.5283203s-2.5283203,1.1318359-2.5283203,2.5283203v15.171875
	c0,1.3964844,1.1318359,2.5283203,2.5283203,2.5283203s2.5283203-1.1318359,2.5283203-2.5283203V337.7255859z
	 M289.6962891,363.0126953c0-1.3964844-1.1318359-2.5283203-2.5283203-2.5283203s-2.5283203,1.1318359-2.5283203,2.5283203
	v5.0576172c0,1.3964844,1.1318359,2.5283203,2.5283203,2.5283203s2.5283203-1.1318359,2.5283203-2.5283203V363.0126953z
	 M299.8115234,332.6679688c0-1.3964844-1.1318359-2.5283203-2.5283203-2.5283203s-2.5283203,1.1318359-2.5283203,2.5283203
	v15.171875c0,1.3964844,1.1318359,2.5283203,2.5283203,2.5283203s2.5283203-1.1318359,2.5283203-2.5283203V332.6679688z
	 M299.8115234,357.9550781c0-1.3964844-1.1318359-2.5283203-2.5283203-2.5283203s-2.5283203,1.1318359-2.5283203,2.5283203
	v5.0576172c0,1.3964844,1.1318359,2.5283203,2.5283203,2.5283203s2.5283203-1.1318359,2.5283203-2.5283203V357.9550781z
	 M279.5810547,332.6679688c0-1.3964844-1.1318359-2.5283203-2.5283203-2.5283203s-2.5283203,1.1318359-2.5283203,2.5283203
	v15.171875c0,1.3964844,1.1318359,2.5283203,2.5283203,2.5283203s2.5283203-1.1318359,2.5283203-2.5283203V332.6679688z
	 M279.5810547,357.9550781c0-1.3964844-1.1318359-2.5283203-2.5283203-2.5283203s-2.5283203,1.1318359-2.5283203,2.5283203
	v5.0576172c0,1.3964844,1.1318359,2.5283203,2.5283203,2.5283203s2.5283203-1.1318359,2.5283203-2.5283203V357.9550781z
	 M287.1679688,375.6572266c-1.3964844,0-2.5283203,1.1318359-2.5283203,2.5283203v2.5292969
	c0,1.3964844,1.1318359,2.5283203,2.5283203,2.5283203s2.5283203-1.1318359,2.5283203-2.5283203v-2.5292969
	C289.6962891,376.7890625,288.5644531,375.6572266,287.1679688,375.6572266z M297.2832031,370.5996094
	c-1.3964844,0-2.5283203,1.1318359-2.5283203,2.5283203v2.5292969c0,1.3964844,1.1318359,2.5283203,2.5283203,2.5283203
	s2.5283203-1.1318359,2.5283203-2.5283203v-2.5292969C299.8115234,371.7314453,298.6796875,370.5996094,297.2832031,370.5996094z
	 M277.0527344,370.5996094c-1.3964844,0-2.5283203,1.1318359-2.5283203,2.5283203v2.5292969
	c0,1.3964844,1.1318359,2.5283203,2.5283203,2.5283203s2.5283203-1.1318359,2.5283203-2.5283203v-2.5292969
	C279.5810547,371.7314453,278.4492188,370.5996094,277.0527344,370.5996094z M124.7231445,135.2470703l53.7368164-29.5551758
	c0.8583984-0.4726562,1.3920898-1.3745117,1.3920898-2.3544922V44.2265625c0-0.9799805-0.5336914-1.8818359-1.3920898-2.3544922
	l-53.7368164-29.5551758c-0.8066406-0.4433594-1.7832031-0.4433594-2.5898438,0L68.3959961,41.8720703
	c-0.8583984,0.4726562-1.3920898,1.3745117-1.3920898,2.3544922v59.1108398c0,0.9799805,0.5336914,1.8818359,1.3920898,2.3544922
	l53.7373047,29.5551758c0.4033203,0.2216797,0.8491211,0.3325195,1.2949219,0.3325195
	S124.3198242,135.46875,124.7231445,135.2470703z M72.3779297,45.8154297l51.050293-28.0776367l51.0498047,28.0776367v55.9331055
	l-51.0498047,28.0776367l-51.050293-28.0776367V45.8154297z M177.1650391,103.3374023h0.0097656H177.1650391z
	 M104.6635742,89.4790039v-6.5170898H92.1196289V58.2167969h-7.5952148v31.262207H104.6635742z M134.8959961,58.2167969h-7.3989258
	v19.894043c0,1.6010742-0.5561523,2.8994141-1.6660156,3.8955078c-1.1108398,0.9970703-2.5810547,1.4946289-4.4101562,1.4946289
	c-1.8295898,0-3.2915039-0.4975586-4.3852539-1.4946289c-1.0952148-0.9960938-1.6416016-2.2944336-1.6416016-3.8955078v-19.894043
	h-7.5952148V78.796875c0,1.7319336,0.359375,3.2998047,1.078125,4.7041016
	c0.7182617,1.4047852,1.6904297,2.597168,2.9155273,3.5771484s2.6538086,1.7392578,4.2875977,2.2783203
	c1.6328125,0.5390625,3.3808594,0.8085938,5.2431641,0.8085938c1.8618164,0,3.6171875-0.2695312,5.2670898-0.8085938
	c1.6494141-0.5390625,3.0874023-1.2983398,4.3120117-2.2783203c1.2250977-0.9799805,2.1967773-2.1723633,2.9155273-3.5771484
	c0.7182617-1.4042969,1.078125-2.972168,1.078125-4.7041016V58.2167969z M166.1088867,89.4790039L154.8388672,73.75
	l10.9267578-15.5332031h-8.2807617l-9.6040039,13.4262695V58.2167969h-7.5952148v31.262207h7.5952148v-12.887207
	l9.4082031,12.887207H166.1088867z"/>
</svg>
